<svg width="4346.5" height="604.72" version="1.1" viewBox="0 0 4346.5 604.72" xmlns="http://www.w3.org/2000/svg">
 <defs>
  <clipPath id="clipPath6">
   <path transform="translate(-124.63 -349.31)" d="M 0,470.551 H 3276.85 V 0 H 0 Z"/>
  </clipPath>
  <clipPath id="clipPath8">
   <path transform="translate(-103.43 -325.83)" d="M 0,470.551 H 3276.85 V 0 H 0 Z"/>
  </clipPath>
  <clipPath id="clipPath20">
   <path transform="translate(-603.78 -151.9)" d="M 0,470.551 H 3276.85 V 0 H 0 Z"/>
  </clipPath>
  <clipPath id="clipPath22">
   <path transform="translate(-603.78 -157.57)" d="M 0,470.551 H 3276.85 V 0 H 0 Z"/>
  </clipPath>
  <clipPath id="clipPath24">
   <path transform="translate(-603.78 -163.24)" d="M 0,470.551 H 3276.85 V 0 H 0 Z"/>
  </clipPath>
  <clipPath id="clipPath26">
   <path transform="translate(-2871.5 -151.9)" d="M 0,470.551 H 3276.85 V 0 H 0 Z"/>
  </clipPath>
  <clipPath id="clipPath28">
   <path transform="translate(-2871.5 -157.57)" d="M 0,470.551 H 3276.85 V 0 H 0 Z"/>
  </clipPath>
  <clipPath id="clipPath30">
   <path transform="translate(-2871.5 -163.24)" d="M 0,470.551 H 3276.85 V 0 H 0 Z"/>
  </clipPath>
  <clipPath id="clipPath32">
   <path transform="translate(-1359.7 -151.9)" d="M 0,470.551 H 3276.85 V 0 H 0 Z"/>
  </clipPath>
  <clipPath id="clipPath34">
   <path transform="translate(-1359.7 -157.57)" d="M 0,470.551 H 3276.85 V 0 H 0 Z"/>
  </clipPath>
  <clipPath id="clipPath477">
   <path transform="translate(-214.99 -437.99)" d="M 0,541.417 H 5615.433 V 0 H 0 Z"/>
  </clipPath>
  <clipPath id="clipPath475">
   <path transform="translate(-143.08 -419.66)" d="M 0,541.417 H 5615.433 V 0 H 0 Z"/>
  </clipPath>
  <clipPath id="clipPath32-2">
   <path transform="translate(-1359.7 -151.9)" d="M 0,470.551 H 3276.85 V 0 H 0 Z"/>
  </clipPath>
  <clipPath id="clipPath34-5">
   <path transform="translate(-1359.7 -157.57)" d="M 0,470.551 H 3276.85 V 0 H 0 Z"/>
  </clipPath>
  <clipPath id="clipPath32-9">
   <path transform="translate(-1359.7 -151.9)" d="M 0,470.551 H 3276.85 V 0 H 0 Z"/>
  </clipPath>
  <clipPath id="clipPath34-3">
   <path transform="translate(-1359.7 -157.57)" d="M 0,470.551 H 3276.85 V 0 H 0 Z"/>
  </clipPath>
  <clipPath id="clipPath32-6">
   <path transform="translate(-1359.7 -151.9)" d="M 0,470.551 H 3276.85 V 0 H 0 Z"/>
  </clipPath>
  <clipPath id="clipPath34-53">
   <path transform="translate(-1359.7 -157.57)" d="M 0,470.551 H 3276.85 V 0 H 0 Z"/>
  </clipPath>
  <clipPath id="clipPath32-4">
   <path transform="translate(-1359.7 -151.9)" d="M 0,470.551 H 3276.85 V 0 H 0 Z"/>
  </clipPath>
  <clipPath id="clipPath34-6">
   <path transform="translate(-1359.7 -157.57)" d="M 0,470.551 H 3276.85 V 0 H 0 Z"/>
  </clipPath>
  <clipPath id="clipPath32-28">
   <path transform="translate(-1359.7 -151.9)" d="M 0,470.551 H 3276.85 V 0 H 0 Z"/>
  </clipPath>
  <clipPath id="clipPath34-72">
   <path transform="translate(-1359.7 -157.57)" d="M 0,470.551 H 3276.85 V 0 H 0 Z"/>
  </clipPath>
  <clipPath id="clipPath32-7">
   <path transform="translate(-1359.7 -151.9)" d="M 0,470.551 H 3276.85 V 0 H 0 Z"/>
  </clipPath>
  <clipPath id="clipPath34-0">
   <path transform="translate(-1359.7 -157.57)" d="M 0,470.551 H 3276.85 V 0 H 0 Z"/>
  </clipPath>
 </defs>
 <g>
  <path d="m3817.3 440.19h-3023.6v18.897h3023.6z" fill="#ff82b4"/>
  <path transform="matrix(1.3333 0 0 -1.3333 793.7 476.09)" d="m0 0c10.959 0 19.843 8.884 19.843 19.843 0 10.958-8.884 19.843-19.843 19.843-10.958 0-19.842-8.885-19.842-19.843 0-10.959 8.884-19.843 19.842-19.843" clip-path="url(#clipPath20)" fill="#231f20"/>
  <path transform="matrix(1.3333 0 0 -1.3333 793.7 468.53)" d="m0 0c7.828 0 14.173 6.346 14.173 14.173 0 7.828-6.345 14.174-14.173 14.174-7.827 0-14.173-6.346-14.173-14.174 0-7.827 6.346-14.173 14.173-14.173" clip-path="url(#clipPath22)" fill="#fff"/>
  <path transform="matrix(1.3333 0 0 -1.3333 793.7 460.97)" d="m0 0c4.697 0 8.504 3.808 8.504 8.503 0 4.697-3.807 8.505-8.504 8.505-4.696 0-8.503-3.808-8.503-8.505 0-4.695 3.807-8.503 8.503-8.503" clip-path="url(#clipPath24)" fill="#ff82b4"/>
  <path transform="matrix(1.3333 0 0 -1.3333 3817.3 476.09)" d="m0 0c10.959 0 19.843 8.884 19.843 19.843 0 10.958-8.884 19.843-19.843 19.843-10.958 0-19.842-8.885-19.842-19.843 0-10.959 8.884-19.843 19.842-19.843" clip-path="url(#clipPath26)" fill="#231f20"/>
  <path transform="matrix(1.3333 0 0 -1.3333 3817.3 468.53)" d="m0 0c7.828 0 14.174 6.346 14.174 14.173 0 7.828-6.346 14.174-14.174 14.174-7.827 0-14.173-6.346-14.173-14.174 0-7.827 6.346-14.173 14.173-14.173" clip-path="url(#clipPath28)" fill="#fff"/>
 </g>
 <g fill="#ff82b4">
  <path transform="matrix(1.3333 0 0 -1.3333 3817.3 460.97)" d="m0 0c4.697 0 8.505 3.808 8.505 8.503 0 4.697-3.808 8.505-8.505 8.505-4.695 0-8.503-3.808-8.503-8.505 0-4.695 3.808-8.503 8.503-8.503" clip-path="url(#clipPath30)"/>
  <path transform="matrix(1.3333 0 0 -1.3333 2305.5 476.09)" d="m0 0c10.958 0 19.842 8.884 19.842 19.843 0 10.958-8.884 19.843-19.842 19.843-10.959 0-19.843-8.885-19.843-19.843 0-10.959 8.884-19.843 19.843-19.843" clip-path="url(#clipPath32)"/>
  <path transform="matrix(1.3333 0 0 -1.3333 2305.5 468.53)" d="m0 0c7.828 0 14.173 6.346 14.173 14.173 0 7.828-6.345 14.174-14.173 14.174s-14.173-6.346-14.173-14.174c0-7.827 6.345-14.173 14.173-14.173" clip-path="url(#clipPath34)"/>
  <path transform="matrix(1.3333 0 0 -1.3333 2683.5 476.09)" d="m0 0c10.958 0 19.842 8.884 19.842 19.843 0 10.958-8.884 19.843-19.842 19.843-10.959 0-19.843-8.885-19.843-19.843 0-10.959 8.884-19.843 19.843-19.843" clip-path="url(#clipPath32-2)"/>
  <path transform="matrix(1.3333 0 0 -1.3333 2683.5 468.53)" d="m0 0c7.828 0 14.173 6.346 14.173 14.173 0 7.828-6.345 14.174-14.173 14.174s-14.173-6.346-14.173-14.174c0-7.827 6.345-14.173 14.173-14.173" clip-path="url(#clipPath34-5)"/>
  <path transform="matrix(1.3333 0 0 -1.3333 3439.4 476.09)" d="m0 0c10.958 0 19.842 8.884 19.842 19.843 0 10.958-8.884 19.843-19.842 19.843-10.959 0-19.843-8.885-19.843-19.843 0-10.959 8.884-19.843 19.843-19.843" clip-path="url(#clipPath32-9)"/>
  <path transform="matrix(1.3333 0 0 -1.3333 3439.4 468.53)" d="m0 0c7.828 0 14.173 6.346 14.173 14.173 0 7.828-6.345 14.174-14.173 14.174s-14.173-6.346-14.173-14.174c0-7.827 6.345-14.173 14.173-14.173" clip-path="url(#clipPath34-3)"/>
  <path transform="matrix(1.3333 0 0 -1.3333 3061.4 476.09)" d="m0 0c10.958 0 19.842 8.884 19.842 19.843 0 10.958-8.884 19.843-19.842 19.843-10.959 0-19.843-8.885-19.843-19.843 0-10.959 8.884-19.843 19.843-19.843" clip-path="url(#clipPath32-6)"/>
  <path transform="matrix(1.3333 0 0 -1.3333 3061.4 468.53)" d="m0 0c7.828 0 14.173 6.346 14.173 14.173 0 7.828-6.345 14.174-14.173 14.174s-14.173-6.346-14.173-14.174c0-7.827 6.345-14.173 14.173-14.173" clip-path="url(#clipPath34-53)"/>
  <path transform="matrix(1.3333 0 0 -1.3333 1927.6 476.09)" d="m0 0c10.958 0 19.842 8.884 19.842 19.843 0 10.958-8.884 19.843-19.842 19.843-10.959 0-19.843-8.885-19.843-19.843 0-10.959 8.884-19.843 19.843-19.843" clip-path="url(#clipPath32-4)"/>
  <path transform="matrix(1.3333 0 0 -1.3333 1927.6 468.53)" d="m0 0c7.828 0 14.173 6.346 14.173 14.173 0 7.828-6.345 14.174-14.173 14.174s-14.173-6.346-14.173-14.174c0-7.827 6.345-14.173 14.173-14.173" clip-path="url(#clipPath34-6)"/>
  <path transform="matrix(1.3333 0 0 -1.3333 1171.7 476.09)" d="m0 0c10.958 0 19.842 8.884 19.842 19.843 0 10.958-8.884 19.843-19.842 19.843-10.959 0-19.843-8.885-19.843-19.843 0-10.959 8.884-19.843 19.843-19.843" clip-path="url(#clipPath32-28)"/>
  <path transform="matrix(1.3333 0 0 -1.3333 1171.7 468.53)" d="m0 0c7.828 0 14.173 6.346 14.173 14.173 0 7.828-6.345 14.174-14.173 14.174s-14.173-6.346-14.173-14.174c0-7.827 6.345-14.173 14.173-14.173" clip-path="url(#clipPath34-72)"/>
  <path transform="matrix(1.3333 0 0 -1.3333 1549.6 476.09)" d="m0 0c10.958 0 19.842 8.884 19.842 19.843 0 10.958-8.884 19.843-19.842 19.843-10.959 0-19.843-8.885-19.843-19.843 0-10.959 8.884-19.843 19.843-19.843" clip-path="url(#clipPath32-7)"/>
  <path transform="matrix(1.3333 0 0 -1.3333 1549.6 468.53)" d="m0 0c7.828 0 14.173 6.346 14.173 14.173 0 7.828-6.345 14.174-14.173 14.174s-14.173-6.346-14.173-14.174c0-7.827 6.345-14.173 14.173-14.173" clip-path="url(#clipPath34-0)"/>
 </g>
 <g fill="#1f3c90" stroke-linecap="round" stroke-linejoin="round">
  <path transform="rotate(-30 881.82 380.88)" d="m1081.6 284.08-289.78-5.3e-4 -8.2e-4 76.244 289.78 5.3e-4 8e-4 -76.244zm-20.428 29.678c0.6268 0.33855 1.2154 0.73345 1.761 1.1881 2.1931 1.8117 3.3583 4.2728 3.3583 7.1012a1.0001 1.0001 0 0 1-1.004 0.99678l-4.8425 7.2e-4a1.0001 1.0001 0 0 1-0.9964-0.99696c0-1.0344-0.3883-1.8416-1.3434-2.6497a1.0001 1.0001 0 0 1-0.0074-0.00658c-0.9198-0.79041-2.0518-1.1906-3.5661-1.1906-1.6083 0-2.7353 0.3496-3.4987 0.93891-0.7837 0.60491-1.1007 1.2344-1.1007 2.1994 0 0.89951 0.2551 1.3651 0.924 1.7942 0.7043 0.45188 2.3046 1.0305 4.6509 1.5576 2.4663 0.55005 4.4898 1.2072 6.0897 2.0071 1.5984 0.7992 2.8446 1.7969 3.6763 3.0269 0.8594 1.2277 1.2765 2.735 1.2765 4.4063 0 2.784-1.1937 5.1705-3.4183 6.8581a1.0001 1.0001 0 0 1 5e-4 0.00703c-2.2181 1.6635-5.0757 2.4656-8.4443 2.4656-2.3748 0-4.5226-0.42382-6.4082-1.2912-1.8755-0.86275-3.3915-2.0922-4.4875-3.6689a1.0001 1.0001 0 0 1-0.0079-0.0136c-1.0722-1.5892-1.6319-3.3593-1.6319-5.2204a1.0001 1.0001 0 0 1 1.004-0.99678l4.8127 1.1e-4a1.0001 1.0001 0 0 1 1.0038 0.94491c0.0742 1.3789 0.5581 2.3324 1.5504 3.1233 1.0062 0.77159 2.3485 1.1879 4.163 1.1879 1.6896 0 2.9446-0.33502 3.825-0.92196 0.8996-0.60444 1.2179-1.2086 1.2179-2.1407 0-1.0488-0.3087-1.6655-1.0636-2.2086a1.0001 1.0001 0 0 1-0.0145-0.00612c-0.7414-0.55602-2.3574-1.1918-4.7388-1.6985a1.0001 1.0001 0 0 1-7e-3 4.5e-4c-2.4845-0.53238-4.4893-1.1761-6.0467-1.9643a1.0001 1.0001 0 0 1-0.0071 4.5e-4c-1.5311-0.78423-2.733-1.7536-3.5447-2.9306a1.0001 1.0001 0 0 1-0.0065-0.00826c-0.7959-1.1836-1.1817-2.5972-1.1817-4.1486 0-2.5897 1.1509-4.8874 3.278-6.6346a1.0001 1.0001 0 0 1 7e-3 -4.5e-4c2.1578-1.7568 4.9146-2.6211 8.128-2.6211 2.5249 0 4.7603 0.49778 6.6409 1.5134zm-38.329-12.522a1.0001 1.0001 0 0 1 0.2929 0.7036v21.43l0.8128-0.97413a1.0001 1.0001 0 0 1 0.0438-0.04463l8.7696-9.2714a1.0001 1.0001 0 0 1 0.7313-0.31749l5.8619-7.9e-4a1.0001 1.0001 0 0 1 0.7302 1.6845l-10.394 11.159 11.738 15.739a1.0001 1.0001 0 0 1-0.8053 1.5941l-5.6475 5.3e-4a1.0001 1.0001 0 0 1-0.796-0.39867l-9.1104-12.107-1.9333 2.0164-1e-4 9.4924a1.0001 1.0001 0 0 1-0.997 0.99633l-4.8197 3.4e-4a1.0001 1.0001 0 0 1-0.9963-0.99696l-9e-4 -40.002a1.0001 1.0001 0 0 1 0.997-0.99633l4.8197-3.4e-4a1.0001 1.0001 0 0 1 0.7034 0.29336zm-9.5314 11.482a1.0001 1.0001 0 0 1 0.5537 0.89252l-8e-4 4.474a1.0001 1.0001 0 0 1-1.1592 0.98833c-0.667-0.11115-1.4041-0.16923-2.2072-0.16923-2.8189 0-4.429 1.0372-5.4339 3.3219l0.0014 19.716a1.0001 1.0001 0 0 1-1.004 0.99678l-4.8127-1.1e-4a1.0001 1.0001 0 0 1-1.0034-0.99651l-0.00197-28.176a1.0001 1.0001 0 0 1 1.0052-1.0028l4.6867-4.5e-4a1.0001 1.0001 0 0 1 0.9964 0.98122l0.0229 1.0033c1.5977-1.4749 3.4717-2.5022 5.7793-2.5022 1.024 0 1.8614 0.11519 2.5775 0.47322zm-25.507 1.0381c0.60714 0.33873 1.1701 0.73576 1.6847 1.1914 0.00189 0.00147 0.00538-0.00192 0.00703-4.5e-4 2.0498 1.8023 3.1225 4.3576 3.197 7.4118a1.0001 1.0001 0 0 1-8.5e-4 0.02883l6.6e-4 12.964c0 2.5018 0.32964 4.4398 0.90793 5.779a1.0001 1.0001 0 0 1 0.08062 0.39161l0.00104 0.42007a1.0001 1.0001 0 0 1-0.99697 0.99633l-5.0569 9.8e-4a1.0001 1.0001 0 0 1-0.8934-0.55414c-0.21073-0.42142-0.28693-1.1702-0.41392-1.7635-2.1543 1.7369-4.5971 2.8405-7.3887 2.8405-2.9653 0-5.5258-0.85963-7.5072-2.5909a1.0001 1.0001 0 0 1-0.00748-0.00658c-1.9596-1.7482-2.9893-4.0748-2.9893-6.7326 0-3.1865 1.286-5.8485 3.7413-7.6324 2.4712-1.8007 5.8398-2.6432 10.019-2.6432l3.6891 9.2e-4 6e-5 -1.211c0-1.4847-0.40524-2.5081-1.2099-3.2989a1.0001 1.0001 0 0 1-0.00819-0.00924c-0.77734-0.77734-1.9584-1.2173-3.7491-1.2173-1.5504 0-2.7467 0.38162-3.7207 1.1085-0.98135 0.73237-1.3431 1.4278-1.3431 2.3459a1.0001 1.0001 0 0 1-1.0045 1.0055l-4.8415-9.6e-4a1.0001 1.0001 0 0 1-0.99678-1.004c0-1.6408 0.58814-3.2243 1.6827-4.6644a1.0001 1.0001 0 0 1 0.00703-4.5e-4c1.1153-1.4614 2.6143-2.611 4.4447-3.4329a1.0001 1.0001 0 0 1 0.00703-4.5e-4c1.8535-0.82377 3.8793-1.2328 6.0522-1.2328 2.5585 0 4.7845 0.49512 6.6059 1.5113zm-27.881-8.8103c0.75791 0.43018 1.4575 0.9331 2.0978 1.5111 2.5643 2.3003 3.8756 5.4394 3.8756 9.1545 0 3.8897-1.2708 7.0753-3.8098 9.2707-2.5252 2.1808-6.0836 3.2192-10.526 3.2192l-7.9296 6e-5 0.00135 13.841a1.0001 1.0001 0 0 1-1.004 0.99678l-4.9973-6.9e-4a1.0001 1.0001 0 0 1-0.99633-0.99696l-7.3e-4 -37.921a1.0001 1.0001 0 0 1 0.99697-0.99633l13.989 5.2e-4c3.2376 0 6.0289 0.62974 8.3026 1.9203zm-3.8492 5.2607c-1.0927-0.66854-2.4668-1.0328-4.1955-1.0691l-8.2455 3.5e-4 -8.7e-4 12.873 7.9872 0.00165c2.5147 0 4.2873-0.5894 5.4777-1.6322 0.00152-0.00129 0.00556 8.4e-4 0.00703-4.5e-4 1.1871-1.0604 1.7943-2.5424 1.7943-4.7172 0-2.0467-0.60061-3.5229-1.8232-4.6859-0.30448-0.28963-0.637-0.54691-1.0012-0.76976zm29.804 19.061-2.7738-2.4e-4c-2.8538 0-4.9174 0.44136-6.1423 1.1583-1.2249 0.71691-1.7122 1.5854-1.7122 3.0281 0 1.2882 0.36713 2.1132 1.1512 2.7756 0.81 0.6843 1.8325 1.0411 3.2329 1.0411 1.338 0 2.5868-0.34067 3.8015-1.0415 1.1652-0.67223 1.9254-1.5108 2.4437-2.5178l-0.00105-4.4435zm-73.648-15.512c0.60714 0.33873 1.1684 0.73478 1.683 1.1904 0.00189 0.00147 0.00707-9.4e-4 0.00872 5.2e-4 2.0498 1.8023 3.1279 4.3562 3.2024 7.4104a1.0001 1.0001 0 0 1 8.3e-4 0.0298l-0.00103 12.963c0 2.5018 0.33036 4.4425 0.90865 5.7817a1.0001 1.0001 0 0 1 0.0816 0.38991l6e-5 0.42177a1.0001 1.0001 0 0 1-1.004 0.99678l-5.0489-0.00116a1.0001 1.0001 0 0 1-0.89341-0.55415c-0.21072-0.42142-0.28692-1.1702-0.41391-1.7635-2.1546 1.7377-4.5974 2.8422-7.3896 2.8422-2.9653 0-5.5258-0.85963-7.5072-2.5909a1.0001 1.0001 0 0 1-0.00748-0.00657c-1.9596-1.7482-2.998-4.0753-2.998-6.7331 0-3.1865 1.2957-5.8497 3.751-7.6336 2.4712-1.8007 5.8372-2.6425 10.017-2.6425l3.6847 6.6e-4 6e-5 -1.211c0-1.4847-0.40693-2.509-1.2116-3.2999a1.0001 1.0001 0 0 1-0.00748-0.00657c-0.77734-0.77734-1.9514-1.2178-3.7421-1.2178-1.5504 0-2.7544 0.37941-3.7284 1.1063-0.98135 0.73237-1.3441 1.4295-1.3441 2.3476a1.0001 1.0001 0 0 1-0.99652 1.0034l-4.8425 7.2e-4a1.0001 1.0001 0 0 1-1.0038-1.0035c0-1.6408 0.59614-3.2264 1.6907-4.6666 1.1153-1.4614 2.6143-2.611 4.4447-3.4329a1.0001 1.0001 0 0 1 0.00605 0.00124c1.8535-0.82377 3.882-1.2335 6.0549-1.2335 2.5585 0 4.7845 0.49512 6.6059 1.5113zm-23.055-0.69958a1.0001 1.0001 0 0 1 0.28997 0.70868l8e-5 3.41a1.0001 1.0001 0 0 1-0.19917 0.6067l-14.491 19.229 14.47 4.7e-4a1.0001 1.0001 0 0 1 1.0034 0.99651l-8.1e-4 3.935a1.0001 1.0001 0 0 1-1.004 0.99678l-22.365-9.8e-4a1.0001 1.0001 0 0 1-0.99731-0.99528l-0.00166-3.544a1.0001 1.0001 0 0 1 0.20132-0.59869l14.342-19.051-13.31-8.8e-4a1.0001 1.0001 0 0 1-1.0034-0.99652l0.00128-3.9866a1.0001 1.0001 0 0 1 1.0035-1.0038l21.355-1.2e-4a1.0001 1.0001 0 0 1 0.70681 0.29531zm21.129 16.211-2.7765 4.7e-4c-2.8538 0-4.9087 0.44188-6.1336 1.1588-1.2249 0.7169-1.7199 1.5832-1.7199 3.0259 0 1.2882 0.37415 2.1127 1.1582 2.7751 0.80999 0.68431 1.8325 1.0411 3.2329 1.0411 1.338 0 2.5798-0.34022 3.7945-1.041 1.1618-0.67027 1.9248-1.5061 2.4432-2.5091l0.00116-4.4512zm-52.823-15.468c1.0934 0.62078 2.065 1.4276 2.8983 2.4176 2.2283 2.6473 3.2784 6.366 3.2784 11.013l-1.9e-4 2.0003a1.0001 1.0001 0 0 1-0.99749 1.005l-17.731-2.2e-4c0.23905 1.9882 0.66445 3.7958 1.8014 5.0635l0.00748 0.00657c1.3888 1.5085 3.034 2.2226 5.1894 2.2226 1.5653 0 2.8171-0.31171 3.8167-0.89971 1.0676-0.62797 1.9979-1.4576 2.8117-2.5106a1.0001 1.0001 0 0 1 1.4107-0.17783l2.9383 2.2896a1.0001 1.0001 0 0 1 0.22783 1.3358c-2.5273 3.8839-6.4851 5.8983-11.463 5.8983-4.0376 0-7.4673-1.3678-10.047-4.0594-2.5874-2.7186-3.8686-6.3805-3.8686-10.772l5.4e-4 -0.88376c0-2.9214 0.55123-5.5694 1.683-7.9073a1.0001 1.0001 0 0 1 0.00657-0.00749c1.1448-2.345 2.7663-4.217 4.8282-5.5502 2.0754-1.3462 4.3732-2.0376 6.7988-2.0376 2.4268 0 4.5877 0.51918 6.41 1.5538zm-3.8487 4.9317c-0.71668-0.35527-1.5542-0.52911-2.561-0.52911-1.7004 0-3.0101 0.5721-4.163 1.8161a1.0001 1.0001 0 0 1-0.00703 4.6e-4c-0.90206 0.96138-1.347 2.5667-1.7283 4.2592l11.434 2.8e-4c-0.22288-1.8369-0.63974-3.4134-1.4982-4.3855-0.24884-0.28547-0.5134-0.53335-0.7988-0.74535-0.21405-0.15901-0.43878-0.29765-0.67768-0.41607zm-24.81-13.95c0.75579 0.39581 1.4498 0.86049 2.0811 1.3955 2.5491 2.1466 3.8247 5.3358 3.8247 9.2582 0 2.5425-0.71491 4.8346-2.1261 6.7607-1.1649 1.6087-2.9315 2.6754-4.8364 3.5879l8.5056 15.362a1.0001 1.0001 0 0 1 0.12478 0.48701l-1.7e-4 0.30887a1.0001 1.0001 0 0 1-1.004 0.99678l-5.3658 8.2e-4a1.0001 1.0001 0 0 1-0.87949-0.52356l-7.9429-14.809-7.3075 6.5e-4 6.1e-4 14.335a1.0001 1.0001 0 0 1-1.004 0.99678l-5.0271 1.5e-4a1.0001 1.0001 0 0 1-0.9973-0.99528l2.5e-4 -37.922a1.0001 1.0001 0 0 1 0.99696-0.99632l12.557 0.00116c3.3148 0 6.1326 0.56805 8.4 1.7555zm-3.8792 5.3088c-1.0933-0.60501-2.538-0.93919-4.3959-0.95251l-6.6512 6.6e-4 -1.2e-4 12.379 6.681-0.0015c2.3102 0 4.0016-0.58225 5.2487-1.6809a1.0001 1.0001 0 0 1 0.00703-4.6e-4c1.267-1.1031 1.868-2.4753 1.868-4.3996 0-2.1438-0.59796-3.6014-1.7723-4.6452a1.0001 1.0001 0 0 1-0.00748-0.00657c-0.2888-0.2599-0.6134-0.49143-0.97782-0.69309z" stroke-width=".45379" style="paint-order:markers stroke fill"/>
  <path transform="rotate(-30 4247.5 104.81)" d="m4146.3 76.226-422.78 3.15e-4 0.0018 76.243 422.78 4e-4 8e-4 -76.244zm-11.591 28.017a1.0001 1.0001 0 0 1 0.1285 0.90637l-11.328 32.528a1.0001 1.0001 0 0 1-0.0091 0.01958c-0.9185 2.4553-2.1327 4.3739-3.6982 5.6906s-3.4829 1.9916-5.5972 1.9916a1.0001 1.0001 0 0 1-0.0855-0.00426l-0.9116-0.07746a1.0001 1.0001 0 0 1-0.1007-0.01305l-1.798-0.33893a1.0001 1.0001 0 0 1-0.8134-0.98161l-1e-4 -3.9062a1.0001 1.0001 0 0 1 1.0793-0.99838l1.2375 0.09878c1.4886-0.00218 2.5284-0.30653 3.197-0.79515a1.0001 1.0001 0 0 1 0.01-0.00553c0.6615-0.47426 1.3486-1.4839 1.9008-3.1244a1.0001 1.0001 0 0 1 0.0116-0.03168l0.9388-2.5206-9.9285-27.518a1.0001 1.0001 0 0 1 0.9433-1.3408l5.2589 6.4e-4a1.0001 1.0001 0 0 1 0.9495 0.68352l6.0497 18.17 5.6396-18.151a1.0001 1.0001 0 0 1 0.9557-0.70217l5.1558-3e-4a1.0001 1.0001 0 0 1 0.8147 0.4208zm-32.791 0.56502c0.607 0.33835 1.1684 0.73452 1.683 1.1904 2.0546 1.8026 3.1312 4.3615 3.2062 7.4194a1.0001 1.0001 0 0 1-6e-4 0.02446l4e-4 12.968c0 2.5018 0.33 4.4354 0.9082 5.7746a1.0001 1.0001 0 0 1 0.0821 0.39694l3e-4 0.41742a1.0001 1.0001 0 0 1-1.0006 0.99873l-5.0525 0.00124a1.0001 1.0001 0 0 1-0.8934-0.55414c-0.2108-0.42155-0.2903-1.1719-0.4173-1.7655-2.154 1.7361-4.5952 2.8398-7.3861 2.8398-2.9653 0-5.5267-0.85795-7.5081-2.5892a1.0001 1.0001 0 0 1-0.0109-0.00853c-1.9596-1.7482-2.99-4.0774-2.99-6.7352 0-3.186 1.2912-5.8482 3.7457-7.6321 2.4711-1.8007 5.8369-2.6382 10.016-2.6382l3.6874-5e-5 3e-4 -1.2154c0-1.4847-0.4088-2.5056-1.2136-3.2965a1.0001 1.0001 0 0 1-0.0101-0.00586c-0.7773-0.77733-1.9541-1.2171-3.7448-1.2171-1.5504 0-2.7507 0.37699-3.7247 1.1038-0.9814 0.73236-1.3424 1.4304-1.3424 2.3485a1.0001 1.0001 0 0 1-0.9999 1.0014l-4.8442-2.5e-4a1.0001 1.0001 0 0 1-0.9987-1.0006c0-1.6408 0.5919-3.2267 1.6863-4.6668a1.0001 1.0001 0 0 0-8e-4 -0.00267c1.1153-1.4614 2.6168-2.6074 4.4472-3.4292a1.0001 1.0001 0 0 0 1e-3 -0.0017c1.8535-0.82377 3.8837-1.2325 6.0566-1.2325l0.0113-1.9e-4c2.5593 0 4.7852 0.49189 6.6062 1.507zm-25.29-12.81a1.0001 1.0001 0 0 1 0.9997 0.99892l-8e-4 40.001a1.0001 1.0001 0 0 1-0.9989 0.99971l-4.818 0.00132a1.0001 1.0001 0 0 1-1.0005-1.0016l-2e-4 -40a1.0001 1.0001 0 0 1 1.0007-0.99873l4.818-0.001319zm-12.944 9.92e-4a1.0001 1.0001 0 0 1 0.9997 0.99892l2e-4 40a1.0001 1.0001 0 0 1-0.9999 1.0014l-4.8171-3.7e-4a1.0001 1.0001 0 0 1-0.9987-1.0006l-2e-4 -40a1.0001 1.0001 0 0 1 0.9989-0.99971l4.8171 3.72e-4zm36.293 28.326-2.7765 4.8e-4c-2.8538 0-4.9096 0.44356-6.1345 1.1605-1.2248 0.7169-1.719 1.5815-1.719 3.0242 0 1.2882 0.3716 2.1134 1.1556 2.7758 0.81 0.6843 1.8335 1.0394 3.2339 1.0394 1.338 0 2.5838-0.33558 3.7986-1.0364 1.1505-0.66378 1.9233-1.4861 2.4421-2.4759l-2e-4 -4.4881zm-48.839-16.502a1.0001 1.0001 0 0 1 0.9997 0.99892l3e-4 28.175a1.0001 1.0001 0 0 1-0.9999 1.0014l-4.5842-0.00128a1.0001 1.0001 0 0 1-0.9994-0.96039l-0.0241-0.6341c-1.9415 1.4084-4.4259 2.1157-7.3355 2.1157-3.1962 0-5.8233-0.9614-7.6154-2.9308a1.0001 1.0001 0 0 1-0.0092-0.00755c-1.7761-1.9932-2.6057-4.8489-2.6237-8.4204a1.0001 1.0001 0 0 1-5e-4 -0.00703l-5e-4 -18.331a1.0001 1.0001 0 0 1 1.0016-1.0004l4.8188 0.00135a1.0001 1.0001 0 0 1 1.0014 0.99989l3e-4 18.203c0 1.9999 0.4147 3.3593 1.0769 4.1738s1.6002 1.2327 3.1313 1.2327c3.356 0 5.2648-1.0886 6.343-3.381l5e-4 -20.227a1.0001 1.0001 0 0 1 0.9999-1.0014l4.8187 0.00135zm-34.775 0.85368c0.6137 0.30454 1.1992 0.65957 1.7563 1.0636 0.7427 0.53868 1.4328 1.1656 2.0677 1.8794 2.5619 2.8611 3.8233 6.6751 3.8233 11.265l7e-4 0.33868c0 2.8711-0.5597 5.4944-1.6897 7.829l7e-4 0.00267c-1.1161 2.3234-2.7583 4.1789-4.8781 5.4921-2.1091 1.3172-4.5525 1.9715-7.2455 1.9715-4.0513 0-7.4868-1.462-10.043-4.3164a1.0001 1.0001 0 0 0-7e-4 -0.00267c-2.5423-2.86-3.7933-6.6562-3.7933-11.211l-6e-4 -0.33868c0-2.8904 0.5674-5.5334 1.7159-7.8861a1.0001 1.0001 0 0 1 0.0012-0.00605c1.1656-2.3497 2.8105-4.2108 4.8992-5.5092a1.0001 1.0001 0 0 0 1e-3 -0.0017c2.1063-1.2976 4.5216-1.9456 7.1652-1.9456l0.0027-7.2e-4c2.2871 0 4.3757 0.4632 6.2167 1.3768zm-3.3757 5.1867c-0.8252-0.40895-1.758-0.60415-2.8399-0.60449l-0.0027 7.2e-4c-2.1118 7e-4 -3.6616 0.76484-4.9588 2.4482-1.2752 1.6546-1.9814 4.1276-1.9814 7.514 0 2.9705 0.6774 5.238 1.9569 6.9191 1.2937 1.6762 2.8704 2.4472 5.0394 2.4472 2.1862 0 3.7551-0.77507 5.0316-2.4649 1.2694-1.6976 1.9623-4.1573 1.9623-7.4732 0-2.9311-0.6899-5.1856-2.006-6.8888a1.0001 1.0001 0 0 1-0.0091-0.00755c-0.6485-0.85696-1.3664-1.4811-2.1923-1.8904zm-26.431-14.24c0.7051 0.3502 1.3483 0.76213 1.9277 1.2393 2.3282 1.9038 3.4897 4.7833 3.4897 8.3228 0 1.9604-0.577 3.7683-1.7054 5.3054a1.0001 1.0001 0 0 1-2e-4 0.00436c-0.7321 0.9845-1.6984 1.7672-2.7637 2.4548 1.3603 0.68811 2.59 1.5531 3.493 2.7858 1.3297 1.7746 1.9962 3.9235 1.9962 6.3238 0 3.6188-1.2241 6.6363-3.646 8.7722-2.4315 2.1442-5.822 3.167-10.011 3.167l-13.153-1.8e-4a1.0001 1.0001 0 0 1-0.9988-1.0006l-1e-3 -37.916a1.0001 1.0001 0 0 1 0.999-0.99971l12.393-7.79e-4c3.1893 0 5.8642 0.49152 7.9796 1.5421zm-3.8883 5.2855c-0.9689-0.44831-2.3208-0.71081-4.0866-0.71081l-6.3973-0.0016 0.0097 10.057 6.5514 3.4e-4c2.0208 0 3.5008-0.48986 4.5917-1.4062a1.0001 1.0001 0 0 1 3e-4 -0.00436c1.1033-0.91458 1.6167-2.0427 1.6167-3.6831 0-1.8889-0.5021-3.0206-1.4337-3.7393a1.0001 1.0001 0 0 1-0.0102-0.00586c-0.2387-0.18762-0.519-0.357-0.842-0.50643zm0.8982 16.19c-0.9747-0.5365-2.3016-0.83541-4.0486-0.83541l-7.3336-9.2e-4 1e-3 11.647 7.2549 5.7e-4c2.154 0 3.7053-0.53603 4.8273-1.5408 1.1392-1.0224 1.6992-2.3507 1.6992-4.2557 0-2.1017-0.5425-3.4836-1.5393-4.4002-0.2492-0.22916-0.536-0.43549-0.8609-0.61432zm-41.983-12.284c0.6269 0.33885 1.2118 0.73585 1.7574 1.1905 2.1916 1.8115 3.3559 4.2701 3.3559 7.0976a1.0001 1.0001 0 0 1-0.9989 0.99971l-4.8442-2.5e-4a1.0001 1.0001 0 0 1-0.9997-0.99892c0-1.0344-0.3823-1.8404-1.3374-2.6485a1.0001 1.0001 0 0 1-0.0101-0.00586c-0.9197-0.7904-2.0544-1.1899-3.5687-1.1899-1.6083 0-2.7414 0.34835-3.5048 0.93768-0.7837 0.6049-1.093 1.2366-1.093 2.2016 0 0.89949 0.252 1.3588 0.9209 1.7878 0.7041 0.45165 2.3057 1.0324 4.65 1.5593 2.4663 0.55004 4.4887 1.2089 6.0886 2.0088 1.6025 0.80124 2.8526 1.8062 3.6843 3.0405 0.8552 1.2261 1.2705 2.7219 1.2705 4.3893 0 2.784-1.1933 5.1775-3.4178 6.8652a1.0001 1.0001 0 0 1-3e-4 0.00435c-2.218 1.6635-5.0703 2.4642-8.4389 2.4642-2.3749 0-4.5203-0.42016-6.4058-1.2875-1.8756-0.86275-3.3956-2.0968-4.4916-3.6735a1.0001 1.0001 0 0 1-0.0099-0.01022c-1.0722-1.5892-1.6292-3.36-1.6292-5.2211a1.0001 1.0001 0 0 1 0.9989-0.99972l4.8171 3.8e-4a1.0001 1.0001 0 0 1 1.0002 0.94732c0.0739 1.3756 0.5569 2.3278 1.5445 3.1177 1.0068 0.77453 2.3558 1.1964 4.1739 1.1964 1.6883 0 2.9379-0.33973 3.8182-0.92587 0.8996-0.60445 1.2247-1.2047 1.2247-2.1368 0-1.0488-0.313-1.6658-1.068-2.2088a1.0001 1.0001 0 0 1-0.0176-0.01243c-0.7413-0.55602-2.3584-1.1901-4.7397-1.6968-2.4845-0.53238-4.4929-1.1737-6.0504-1.9618a1.0001 1.0001 0 0 0 1e-3 -0.00169c-1.5311-0.78424-2.7324-1.751-3.544-2.928a1.0001 1.0001 0 0 1-0.0109-0.00852c-0.7959-1.1836-1.1868-2.6001-1.1868-4.1515 0-2.5897 1.1543-4.8854 3.2814-6.6327a1.0001 1.0001 0 0 0 1e-3 -0.00169c2.1578-1.7568 4.9172-2.6218 8.1307-2.6218l6e-3 0.00124c2.5249 0 4.762 0.49782 6.6425 1.5144zm-28.167-0.25213c0.5666 0.27998 1.1041 0.60622 1.6091 0.97862 0.6733 0.49654 1.289 1.0748 1.8445 1.7348 2.2282 2.6473 3.2813 6.3609 3.2813 11.008l0.0013 2.0057a1.0001 1.0001 0 0 1-1.0016 1.0004l-17.911-5.3e-4c0.2228 2.0568 0.8224 3.7739 1.9882 5.072 1.3891 1.51 3.038 2.2255 5.1945 2.2255 1.5653 0 2.8173-0.31606 3.8169-0.90406 1.0675-0.62797 2.0006-1.4583 2.8144-2.5113a1.0001 1.0001 0 0 1 1.4053-0.17641l2.9427 2.2898a1.0001 1.0001 0 0 1 0.2252 1.3366c-2.5273 3.8839-6.4858 5.8957-11.464 5.8957-4.0376 0-7.4639-1.3658-10.043-4.0575a1.0001 1.0001 0 0 0-7e-4 -0.00267c-2.5874-2.7186-3.8689-6.3762-3.8689-10.768l-0.0011-0.88474c0-2.9214 0.5592-5.5716 1.691-7.9094a1.0001 1.0001 0 0 0-7e-4 -0.00267c1.1459-2.3475 2.7671-4.2235 4.8321-5.557 2.0755-1.3462 4.3679-2.0362 6.7935-2.0362 2.1841 0 4.1518 0.42309 5.8517 1.263zm-24.421-12.566a1.0001 1.0001 0 0 1 0.9997 0.99892l-7e-4 40.001a1.0001 1.0001 0 0 1-0.999 0.99971l-4.4267-5.8e-4a1.0001 1.0001 0 0 1-0.9974-0.9209l-0.0709-0.90466c-1.9441 1.5442-4.3864 2.3471-7.212 2.3471-3.5369 0-6.5657-1.5216-8.7875-4.3969a1.0001 1.0001 0 0 1 3e-4 -0.00436c-2.2063-2.8793-3.2798-6.6129-3.2798-11.077l9e-4 -0.36484c0-4.4798 1.0711-8.1983 3.2828-11.03 2.2088-2.8453 5.254-4.3462 8.8353-4.3462 2.6358 0 4.9552 0.70899 6.8403 2.0976l4e-4 -12.399a1.0001 1.0001 0 0 1 0.999-0.99971l4.8153-6.04e-4zm21.808 18.204c-0.8559-0.63519-1.8956-0.94251-3.2379-0.94251-1.7004 0-3.0092 0.57041-4.1621 1.8144a1.0001 1.0001 0 0 1-3e-4 0.00436c-0.9359 0.99747-1.5333 2.4661-1.9073 4.2528l11.72 8.3e-4c-0.212-1.8994-0.726-3.385-1.6036-4.3787a1.0001 1.0001 0 0 1-0.0102-0.00586c-0.2489-0.28547-0.5135-0.53362-0.7988-0.74535zm-29.944-0.00179c-0.9209-0.54786-2.0081-0.81083-3.3185-0.81083-2.1037 0-3.558 0.72704-4.7113 2.3204-1.1373 1.5713-1.7888 4.059-1.7888 7.5124 0 3.0568 0.6305 5.3309 1.7842 6.9096 1.1542 1.5795 2.5947 2.2994 4.6624 2.2994 2.685 0 4.4286-1.0571 5.6934-3.4043l0.0013-12.311c-0.6465-1.1367-1.4017-1.9682-2.3227-2.516zm-38.32-5.3855c0.6266 0.33859 1.2129 0.73463 1.7584 1.1888 2.1931 1.8117 3.3566 4.2718 3.3566 7.1003a1.0001 1.0001 0 0 1-0.9989 0.99971l-4.8442-2.5e-4a1.0001 1.0001 0 0 1-0.9997-0.99892c0-1.0344-0.384-1.8413-1.3391-2.6495a1.0001 1.0001 0 0 1-0.0101-0.00586c-0.9197-0.7904-2.0501-1.1896-3.5644-1.1896-1.6082 0-2.7413 0.34835-3.5048 0.93768-0.7836 0.6049-1.0956 1.2373-1.0956 2.2023 0 0.89951 0.2521 1.3588 0.9209 1.7878 0.7041 0.45167 2.3066 1.0308 4.6509 1.5576 2.4663 0.55004 4.4878 1.2106 6.0877 2.0105 1.6005 0.80027 2.8512 1.8029 3.6829 3.0352 0.857 1.2268 1.2719 2.7256 1.2719 4.3946 0 2.784-1.1933 5.1775-3.4178 6.8651a1.0001 1.0001 0 0 1-3e-4 0.00436c-2.2181 1.6635-5.0687 2.4652-8.4372 2.4652-2.3749 0-4.522-0.42116-6.4075-1.2885-1.8756-0.86275-3.3956-2.0968-4.4916-3.6735a1.0001 1.0001 0 0 1-0.0116-0.01119c-1.0722-1.5892-1.6275-3.359-1.6275-5.2202a1.0001 1.0001 0 0 1 0.9999-1.0014l4.8187 0.00135a1.0001 1.0001 0 0 1 0.9976 0.94803c0.0739 1.3756 0.5569 2.3278 1.5445 3.1177 1.0068 0.77453 2.3585 1.1957 4.1766 1.1957 1.6875 0 2.9353-0.33957 3.8155-0.92515 0.8996-0.60445 1.2247-1.2047 1.2247-2.1368 0-1.0488-0.313-1.6658-1.068-2.2088a1.0001 1.0001 0 0 1-0.0159-0.01146c-0.7413-0.55602-2.3574-1.1918-4.7388-1.6985-2.4845-0.53238-4.4911-1.1728-6.0486-1.9609a1.0001 1.0001 0 0 0-8e-4 -0.00266c-1.5311-0.78424-2.7323-1.751-3.544-2.928a1.0001 1.0001 0 0 1-0.0109-0.00852c-0.796-1.1836-1.185-2.5992-1.185-4.1506 0-2.5897 1.1569-4.8862 3.284-6.6334a1.0001 1.0001 0 0 0-7e-4 -0.00266c2.1578-1.7568 4.919-2.6209 8.1324-2.6209l0.0017 9.8e-4c2.5237 0 4.7584 0.49837 6.6381 1.5141zm-28.158-0.25159c0.5666 0.27998 1.1041 0.60621 1.6091 0.97861 0.6733 0.49655 1.2907 1.0758 1.8462 1.7358 2.2283 2.6473 3.2823 6.3592 3.2823 11.006l3e-4 2.0074a1.0001 1.0001 0 0 1-1.0006 0.99873l-17.914 1.8e-4c0.2228 2.0569 0.8224 3.7739 1.9882 5.072 1.3891 1.51 3.0397 2.2265 5.1962 2.2265 1.5653 0 2.8156-0.31704 3.8152-0.90504 1.0675-0.62797 2.0023-1.4573 2.8161-2.5103a1.0001 1.0001 0 0 1 1.4053-0.1764l2.9427 2.2898a1.0001 1.0001 0 0 1 0.2235 1.3356c-2.5273 3.8839-6.4841 5.8966-11.462 5.8966-4.0376 0-7.4656-1.3668-10.045-4.0585a1.0001 1.0001 0 0 0-7e-4 -0.00267c-2.5874-2.7186-3.8689-6.3762-3.8689-10.768l6e-4 -0.88376c0-2.9214 0.5548-5.5718 1.6867-7.9097a1.0001 1.0001 0 0 0-8e-4 -0.00267c1.1459-2.3475 2.7699-4.2242 4.8348-5.5577 2.0755-1.3462 4.3679-2.0362 6.7935-2.0362 2.1841 0 4.1518 0.42309 5.8517 1.263zm-2.6127 5.6385c-0.8565-0.63518-1.8972-0.94348-3.2396-0.94348l-7e-3 4.5e-4c-1.7003 0-3.0101 0.57208-4.1631 1.8161a1.0001 1.0001 0 0 0 7e-4 0.00267c-0.9359 0.99744-1.5317 2.4671-1.9056 4.2538l11.718-1.5e-4c-0.2121-1.8992-0.7261-3.385-1.6036-4.3787a1.0001 1.0001 0 0 1-0.0015-0.00534c-0.2488-0.28546-0.5133-0.53362-0.7988-0.74535zm-21.646-6.3788a1.0001 1.0001 0 0 1 0.9997 0.99892l3e-4 28.175a1.0001 1.0001 0 0 1-0.9999 1.0014l-4.5843-0.00127a1.0001 1.0001 0 0 1-0.9994-0.9604l-0.0223-0.63312c-1.9415 1.4084-4.4278 2.1147-7.3373 2.1147-3.1961 0-5.8233-0.96142-7.6154-2.9308a1.0001 1.0001 0 0 1-0.0091-0.00755c-1.7761-1.9932-2.6058-4.8489-2.6238-8.4204a1.0001 1.0001 0 0 1 0.0013-0.00606l-5e-4 -18.331a1.0001 1.0001 0 0 1 0.9999-1.0014l4.8187 0.00135a1.0001 1.0001 0 0 1 1.0014 0.9999l4e-4 18.203c0 1.9999 0.4147 3.3593 1.0769 4.1738s1.6001 1.2327 3.1312 1.2327c3.356 0 5.2666-1.0876 6.3448-3.3801l-0.0013-20.228a1.0001 1.0001 0 0 1 0.9999-1.0014l4.8188 0.00135zm-33.242-7.9858c0.7561 0.39588 1.4515 0.86124 2.0828 1.3964 2.5491 2.1466 3.8206 5.3311 3.8206 9.2536 0 2.5409-0.7096 4.8349-2.1191 6.7602l-2e-4 0.00435c-1.175 1.6235-2.8326 2.8187-4.7603 3.7333l8.4214 15.218a1.0001 1.0001 0 0 1 0.1251 0.48265l5e-4 0.31154a1.0001 1.0001 0 0 1-0.9999 1.0014l-5.3648-8.7e-4a1.0001 1.0001 0 0 1-0.8818-0.5272l-7.9463-14.811-7.3075 6.5e-4 -3e-4 14.337a1.0001 1.0001 0 0 1-0.9999 1.0014l-5.0244-5.7e-4a1.0001 1.0001 0 0 1-1.0014-0.9999l0.0016-37.917a1.0001 1.0001 0 0 1 0.999-0.99971l12.551-7.7e-5c3.3155 0 6.136 0.56811 8.4043 1.7558zm-3.8801 5.3105c-1.0937-0.60507-2.538-0.93788-4.3995-0.9501l-6.6502-0.00103 1e-4 12.375 6.6844 4.5e-4c2.3102 0 4.0023-0.57958 5.2494-1.6782a1.0001 1.0001 0 0 0-7e-4 -0.00267c1.267-1.1031 1.8716-2.4777 1.8716-4.402 0-2.1437-0.6016-3.599-1.7759-4.6428a1.0001 1.0001 0 0 1 3e-4 -0.00436c-0.2891-0.26022-0.6149-0.49238-0.9795-0.69407z" stroke-width=".54812" style="paint-order:markers stroke fill"/>
  <g stroke="#1f3c90" stroke-width="2">
   <path transform="rotate(-30)" d="m2797.9 2054.3h-15.912v16.745h-5v-37.917h23.49v4.1145h-18.49v12.969h15.912zm13.047 16.745h-4.8177v-28.177h4.8177zm-5.2084-35.651q0-1.1719 0.7032-1.9792 0.7291-0.8073 2.1354-0.8073 1.4062 0 2.1354 0.8073t0.7292 1.9792-0.7292 1.9531q-0.7292 0.7813-2.1354 0.7813-1.4063 0-2.1354-0.7813-0.7032-0.7812-0.7032-1.9531zm18.151 35.651h-4.8177v-40h4.8177zm12.943 0h-4.8177v-40h4.8177zm19.401 0.5208q-5.7292 0-9.3229-3.75-3.5938-3.776-3.5938-10.078v-0.8854q0-4.1927 1.5886-7.474 1.6146-3.3072 4.4791-5.1562 2.8907-1.875 6.25-1.875 5.4948 0 8.5417 3.6198t3.0469 10.365v2.0052h-19.089q0.1042 4.1666 2.4219 6.7448 2.3438 2.552 5.9375 2.552 2.5521 0 4.3229-1.0416 1.7709-1.0417 3.099-2.7604l2.9427 2.2916q-3.5417 5.4427-10.625 5.4427zm-0.599-25.26q-2.9166 0-4.8958 2.1354-1.9792 2.1094-2.4479 5.9375h14.115v-0.3645q-0.2084-3.6719-1.9792-5.6771-1.7708-2.0313-4.7917-2.0313zm33.568 17.266q0-1.9531-1.4844-3.0208-1.4583-1.0937-5.1302-1.875-3.6458-0.7812-5.8073-1.875-2.1354-1.0937-3.177-2.6041-1.0157-1.5105-1.0157-3.5938 0-3.4635 2.9167-5.8594 2.9427-2.3958 7.5-2.3958 4.7917 0 7.7604 2.474 2.9948 2.4739 2.9948 6.3281h-4.8437q0-1.9792-1.6927-3.4115-1.6667-1.4323-4.2188-1.4323-2.6302 0-4.1146 1.1459-1.4844 1.1458-1.4844 2.9948 0 1.7447 1.3803 2.6302 1.3802 0.8854 4.9739 1.6927 3.6198 0.8073 5.8594 1.9271 2.2396 1.1197 3.3073 2.7083 1.0937 1.5625 1.0937 3.8281 0 3.776-3.0208 6.0677-3.0208 2.2656-7.8385 2.2656-3.3855 0-5.9896-1.1979-2.6042-1.1979-4.0886-3.3333-1.4583-2.1615-1.4583-4.6615h4.8177q0.1302 2.4219 1.9271 3.8542 1.8229 1.4062 4.7917 1.4062 2.7343 0 4.375-1.0937 1.6666-1.1198 1.6666-2.9688zm23.125-6.8489q0-6.4844 3.0729-10.417 3.0729-3.9583 8.0469-3.9583 4.9479 0 7.8385 3.3854v-14.688h4.8177v40h-4.427l-0.2344-3.0208q-2.8906 3.5416-8.0469 3.5416-4.8958 0-7.9948-4.0104-3.0729-4.0104-3.0729-10.469zm4.8177 0.5469q0 4.7916 1.9792 7.5 1.9791 2.7083 5.4687 2.7083 4.5834 0 6.6927-4.1146v-12.943q-2.1614-3.9844-6.6406-3.9844-3.5417 0-5.5208 2.7344-1.9792 2.7344-1.9792 8.099zm43.828 10.99q-2.8125 3.3073-8.2552 3.3073-4.5052 0-6.875-2.6041-2.3437-2.6302-2.3698-7.7604v-18.333h4.8177v18.203q0 6.4062 5.2084 6.4062 5.5208 0 7.3437-4.1146v-20.495h4.8177v28.177h-4.5833zm53.854-9.2447q-0.7031 6.0156-4.4531 9.2968-3.7239 3.2552-9.9219 3.2552-6.7187 0-10.781-4.8177-4.0365-4.8177-4.0365-12.891v-3.6458q0-5.2865 1.875-9.2969 1.9011-4.0104 5.3646-6.1458 3.4636-2.1615 8.0209-2.1615 6.0416 0 9.6874 3.3854 3.6459 3.3594 4.2448 9.323h-5.026q-0.651-4.5313-2.8385-6.5625-2.1615-2.0313-6.0677-2.0313-4.7917 0-7.5261 3.5417-2.7083 3.5416-2.7083 10.078v3.6719q0 6.1718 2.5781 9.8177 2.5781 3.6458 7.2135 3.6458 4.1667 0 6.3803-1.875 2.2395-1.901 2.9687-6.5885zm23.464 12.031q-0.4167-0.8333-0.6771-2.9687-3.3594 3.4895-8.0208 3.4895-4.1667 0-6.849-2.3437-2.6562-2.3698-2.6562-5.9896 0-4.401 3.3333-6.8229 3.3594-2.4479 9.4271-2.4479h4.6875v-2.2136q0-2.526-1.5104-4.0104-1.5105-1.5104-4.4532-1.5104-2.5781 0-4.3229 1.3021t-1.7448 3.151h-4.8437q0-2.1093 1.4844-4.0625 1.5104-1.9791 4.0625-3.125 2.5781-1.1458 5.651-1.1458 4.8698 0 7.6302 2.4479 2.7604 2.4219 2.8646 6.6927v12.969q0 3.8802 0.9896 6.1718v0.4167zm-7.9948-3.6719q2.2656 0 4.2969-1.1718 2.0312-1.1719 2.9427-3.0469v-5.7813h-3.7761q-8.8541 0-8.8541 5.1823 0 2.2656 1.5104 3.5417 1.5104 1.276 3.8802 1.276zm24.141-24.505 0.1302 3.125q3.099-3.6458 8.3594-3.6458 5.9114 0 8.0469 4.5313 1.4062-2.0313 3.6458-3.2813 2.2656-1.25 5.3385-1.25 9.2709 0 9.4271 9.8177v18.88h-4.8177v-18.594q0-3.0209-1.3802-4.5052-1.3802-1.5105-4.6354-1.5105-2.6823 0-4.4531 1.6146-1.7709 1.5886-2.0573 4.2969v18.698h-4.8438v-18.464q0-6.1459-6.0156-6.1459-4.7396 0-6.4844 4.0365v20.573h-4.8177v-28.177zm53.906 28.698q-5.7292 0-9.3229-3.75-3.5937-3.776-3.5937-10.078v-0.8854q0-4.1927 1.5885-7.474 1.6146-3.3072 4.4792-5.1562 2.8906-1.875 6.25-1.875 5.4947 0 8.5416 3.6198t3.0469 10.365v2.0052h-19.088q0.1041 4.1666 2.4218 6.7448 2.3438 2.552 5.9375 2.552 2.5521 0 4.3229-1.0416 1.7709-1.0417 3.099-2.7604l2.9427 2.2916q-3.5417 5.4427-10.625 5.4427zm-0.5989-25.26q-2.9167 0-4.8959 2.1354-1.9791 2.1094-2.4479 5.9375h14.115v-0.3645q-0.2083-3.6719-1.9792-5.6771-1.7708-2.0313-4.7916-2.0313zm22.396 24.74h-4.8177v-40h4.8177z" style="paint-order:markers stroke fill" aria-label="Filles du Camel"/>
   <path transform="rotate(-30)" d="m1800.5 1499.3h17.969v4.0886h-22.995v-37.917h5.026zm40.312 4.0886q-0.4166-0.8334-0.6771-2.9688-3.3593 3.4896-8.0208 3.4896-4.1667 0-6.8489-2.3438-2.6563-2.3697-2.6563-5.9895 0-4.4011 3.3333-6.8229 3.3594-2.448 9.4271-2.448h4.6875v-2.2135q0-2.526-1.5104-4.0104-1.5104-1.5104-4.4531-1.5104-2.5782 0-4.3229 1.3021-1.7448 1.302-1.7448 3.151h-4.8438q0-2.1094 1.4844-4.0625 1.5104-1.9792 4.0625-3.125 2.5781-1.1458 5.651-1.1458 4.8698 0 7.6302 2.4479 2.7604 2.4219 2.8646 6.6927v12.969q0 3.8802 0.9896 6.1719v0.4167zm-7.9948-3.6719q2.2657 0 4.2969-1.1719 2.0313-1.1719 2.9427-3.0469v-5.7812h-3.776q-8.8542 0-8.8542 5.1823 0 2.2656 1.5104 3.5416 1.5104 1.2761 3.8802 1.2761zm40.026-34.245 12.396 30.938 12.396-30.938h6.4844v37.917h-5v-14.766l0.4687-15.937-12.448 30.703h-3.8281l-12.422-30.625 0.4948 15.859v14.766h-5v-37.917zm38.073 23.568q0-4.1406 1.6146-7.4479 1.6407-3.3073 4.5313-5.1042 2.9166-1.7968 6.6406-1.7968 5.7552 0 9.2969 3.9843 3.5677 3.9844 3.5677 10.599v0.3385q0 4.1146-1.5886 7.3959-1.5625 3.2552-4.5052 5.0781-2.9166 1.8229-6.7187 1.8229-5.7292 0-9.2969-3.9844-3.5417-3.9843-3.5417-10.547zm4.8438 0.5729q0 4.6875 2.1615 7.5261 2.1874 2.8385 5.8333 2.8385 3.6719 0 5.8333-2.8646 2.1615-2.8906 2.1615-8.0729 0-4.6354-2.2136-7.5-2.1875-2.8906-5.8333-2.8906-3.5677 0-5.7552 2.8385-2.1875 2.8386-2.1875 8.125zm33.385-21.224v6.8229h5.2604v3.724h-5.2604v17.474q0 1.6927 0.7031 2.5521 0.7031 0.8333 2.3958 0.8333 0.8334 0 2.2917-0.3125v3.9063q-1.901 0.5208-3.6979 0.5208-3.2292 0-4.8698-1.9531-1.6406-1.9532-1.6406-5.5469v-17.474h-5.1302v-3.724h5.1302v-6.8229zm17.422 0v6.8229h5.2604v3.724h-5.2604v17.474q0 1.6927 0.7031 2.5521 0.7031 0.8333 2.3958 0.8333 0.8333 0 2.2917-0.3125v3.9063q-1.9011 0.5208-3.6979 0.5208-3.2292 0-4.8698-1.9531-1.6406-1.9532-1.6406-5.5469v-17.474h-5.1303v-3.724h5.1303v-6.8229zm22.578 35.521q-5.7292 0-9.3229-3.75-3.5938-3.776-3.5938-10.078v-0.8854q0-4.1927 1.5885-7.474 1.6146-3.3073 4.4792-5.1562 2.8906-1.875 6.25-1.875 5.4948 0 8.5417 3.6198 3.0468 3.6197 3.0468 10.364v2.0052h-19.088q0.1042 4.1667 2.4219 6.7448 2.3437 2.5521 5.9375 2.5521 2.5521 0 4.3229-1.0417 1.7708-1.0416 3.099-2.7604l2.9427 2.2917q-3.5417 5.4427-10.625 5.4427zm-0.599-25.26q-2.9167 0-4.8958 2.1354-1.9792 2.1094-2.4479 5.9375h14.114v-0.3646q-0.2083-3.6718-1.9791-5.6771-1.7709-2.0312-4.7917-2.0312zm27.188 10.599h-12.708v-3.9322h12.708zm10.443-0.7031v14.844h-5v-37.917h13.984q6.2239 0 9.7395 3.1771 3.5417 3.1771 3.5417 8.4115 0 5.5208-3.4635 8.5156-3.4375 2.9687-9.8698 2.9687zm0-4.0885h8.9844q4.0104 0 6.1458-1.875 2.1354-1.9011 2.1354-5.4688 0-3.3854-2.1354-5.4166-2.1354-2.0313-5.8594-2.1094h-9.2708zm33.125 18.932h-4.8177v-28.177h4.8177zm-5.2083-35.651q0-1.1718 0.7031-1.9791 0.7291-0.8073 2.1354-0.8073 1.4062 0 2.1354 0.8073t0.7292 1.9791q0 1.1719-0.7292 1.9532-0.7292 0.7812-2.1354 0.7812-1.4063 0-2.1354-0.7812-0.7031-0.7813-0.7031-1.9532zm24.219 32.24q2.5781 0 4.5052-1.5625t2.1354-3.9062h4.5573q-0.1302 2.4218-1.6667 4.6093-1.5364 2.1875-4.1146 3.4896-2.552 1.3021-5.4166 1.3021-5.7552 0-9.1667-3.8281-3.3854-3.8542-3.3854-10.521v-0.8072q0-4.1146 1.5104-7.3177 1.5104-3.2032 4.3229-4.974 2.8386-1.7708 6.6927-1.7708 4.7396 0 7.8646 2.8385 3.1511 2.8385 3.3594 7.3698h-4.5573q-0.2083-2.7344-2.0833-4.4792-1.849-1.7708-4.5834-1.7708-3.6718 0-5.7031 2.6562-2.0052 2.6302-2.0052 7.6302v0.9115q0 4.8698 2.0052 7.5t5.7292 2.6302zm15.443-10.911q0-6.6407 3.0469-10.495 3.0468-3.8802 8.177-3.8802 5 0 7.8907 3.3593l0.2083-2.8385h4.4271v39.01h-4.8177v-13.438q-2.9167 3.125-7.7604 3.125-5.1042 0-8.1511-3.9583-3.0208-3.9844-3.0208-10.547zm4.8177 0.5468q0 4.8438 2.0312 7.6042 2.0573 2.7604 5.5209 2.7604 4.2968 0 6.5625-3.8021v-13.802q-2.2917-3.724-6.5105-3.724-3.4895 0-5.5468 2.7865-2.0573 2.7604-2.0573 8.177zm44.062 10.99q-2.8124 3.3073-8.2552 3.3073-4.5052 0-6.875-2.6042-2.3437-2.6302-2.3697-7.7604v-18.333h4.8177v18.203q0 6.4063 5.2083 6.4063 5.5208 0 7.3437-4.1146v-20.495h4.8177v28.177h-4.5833zm23.698 3.3073q-5.7292 0-9.323-3.75-3.5937-3.776-3.5937-10.078v-0.8854q0-4.1927 1.5885-7.474 1.6146-3.3073 4.4792-5.1562 2.8906-1.875 6.25-1.875 5.4948 0 8.5417 3.6198 3.0468 3.6197 3.0468 10.364v2.0052h-19.088q0.1042 4.1667 2.4219 6.7448 2.3437 2.5521 5.9375 2.5521 2.5521 0 4.3229-1.0417 1.7708-1.0416 3.0989-2.7604l2.9428 2.2917q-3.5417 5.4427-10.625 5.4427zm-0.599-25.26q-2.9167 0-4.8958 2.1354-1.9792 2.1094-2.4479 5.9375h14.114v-0.3646q-0.2083-3.6718-1.9791-5.6771-1.7709-2.0312-4.7917-2.0312zm23.698-10.26v6.8229h5.2604v3.724h-5.2604v17.474q0 1.6927 0.7031 2.5521 0.7031 0.8333 2.3959 0.8333 0.8333 0 2.2916-0.3125v3.9063q-1.901 0.5208-3.6979 0.5208-3.2292 0-4.8698-1.9531-1.6406-1.9532-1.6406-5.5469v-17.474h-5.1302v-3.724h5.1302v-6.8229zm20.912 20.859h-12.708v-3.9322h12.708zm33.333 2.1094q-0.7032 6.0156-4.4532 9.2969-3.7239 3.2552-9.9218 3.2552-6.7188 0-10.781-4.8177-4.0364-4.8177-4.0364-12.891v-3.6459q0-5.2864 1.875-9.2968 1.901-4.0104 5.3646-6.1459 3.4635-2.1614 8.0208-2.1614 6.0416 0 9.6875 3.3854 3.6458 3.3594 4.2448 9.3229h-5.0261q-0.651-4.5312-2.8385-6.5625-2.1615-2.0312-6.0677-2.0312-4.7917 0-7.5261 3.5416-2.7083 3.5417-2.7083 10.078v3.6718q0 6.1719 2.5781 9.8177 2.5782 3.6459 7.2136 3.6459 4.1666 0 6.3802-1.875 2.2396-1.9011 2.9687-6.5886zm23.464 12.031q-0.4167-0.8334-0.6771-2.9688-3.3593 3.4896-8.0208 3.4896-4.1667 0-6.849-2.3438-2.6562-2.3697-2.6562-5.9895 0-4.4011 3.3333-6.8229 3.3594-2.448 9.4271-2.448h4.6875v-2.2135q0-2.526-1.5104-4.0104-1.5104-1.5104-4.4531-1.5104-2.5782 0-4.323 1.3021-1.7447 1.302-1.7447 3.151h-4.8438q0-2.1094 1.4844-4.0625 1.5104-1.9792 4.0625-3.125 2.5781-1.1458 5.651-1.1458 4.8698 0 7.6302 2.4479 2.7604 2.4219 2.8646 6.6927v12.969q0 3.8802 0.9896 6.1719v0.4167zm-7.9948-3.6719q2.2656 0 4.2969-1.1719 2.0312-1.1719 2.9427-3.0469v-5.7812h-3.776q-8.8542 0-8.8542 5.1823 0 2.2656 1.5104 3.5416 1.5104 1.2761 3.8802 1.2761zm24.141-24.505 0.1302 3.125q3.099-3.6458 8.3594-3.6458 5.9114 0 8.0469 4.5312 1.4062-2.0312 3.6458-3.2812 2.2656-1.25 5.3385-1.25 9.2709 0 9.4271 9.8177v18.88h-4.8177v-18.594q0-3.0208-1.3802-4.5052-1.3802-1.5104-4.6354-1.5104-2.6823 0-4.4531 1.6146-1.7709 1.5885-2.0573 4.2969v18.698h-4.8438v-18.464q0-6.1458-6.0156-6.1458-4.7396 0-6.4844 4.0365v20.573h-4.8177v-28.177zm53.906 28.698q-5.7291 0-9.3229-3.75-3.5937-3.776-3.5937-10.078v-0.8854q0-4.1927 1.5885-7.474 1.6146-3.3073 4.4792-5.1562 2.8906-1.875 6.25-1.875 5.4948 0 8.5416 3.6198 3.0469 3.6197 3.0469 10.364v2.0052h-19.088q0.1042 4.1667 2.4219 6.7448 2.3437 2.5521 5.9375 2.5521 2.552 0 4.3229-1.0417 1.7708-1.0416 3.0989-2.7604l2.9427 2.2917q-3.5416 5.4427-10.625 5.4427zm-0.5989-25.26q-2.9167 0-4.8958 2.1354-1.9792 2.1094-2.448 5.9375h14.115v-0.3646q-0.2083-3.6718-1.9792-5.6771-1.7708-2.0312-4.7916-2.0312zm22.396 24.74h-4.8177v-40h4.8177z" style="paint-order:markers stroke fill" aria-label="La Motte-Picquet-Camel"/>
   <path transform="rotate(-30)" d="m2152.4 1680.1q-0.7031 6.0156-4.4531 9.2968-3.7239 3.2552-9.9219 3.2552-6.7187 0-10.781-4.8177-4.0365-4.8177-4.0365-12.891v-3.6458q0-5.2865 1.875-9.2969 1.9011-4.0104 5.3646-6.1458 3.4636-2.1615 8.0209-2.1615 6.0416 0 9.6874 3.3854 3.6459 3.3594 4.2448 9.323h-5.026q-0.651-4.5313-2.8385-6.5625-2.1615-2.0313-6.0677-2.0313-4.7917 0-7.5261 3.5417-2.7083 3.5416-2.7083 10.078v3.6719q0 6.1718 2.5781 9.8177 2.5781 3.6458 7.2135 3.6458 4.1667 0 6.3802-1.875 2.2396-1.901 2.9688-6.5885zm23.464 12.031q-0.4167-0.8333-0.6771-2.9687-3.3594 3.4895-8.0208 3.4895-4.1667 0-6.849-2.3437-2.6563-2.3698-2.6563-5.9896 0-4.401 3.3334-6.8229 3.3594-2.4479 9.4271-2.4479h4.6875v-2.2136q0-2.526-1.5105-4.0104-1.5104-1.5104-4.4531-1.5104-2.5781 0-4.3229 1.3021t-1.7448 3.151h-4.8437q0-2.1093 1.4843-4.0625 1.5105-1.9791 4.0625-3.125 2.5782-1.1458 5.6511-1.1458 4.8698 0 7.6302 2.4479 2.7604 2.4219 2.8646 6.6927v12.969q0 3.8802 0.9895 6.1718v0.4167zm-7.9948-3.6719q2.2656 0 4.2968-1.1718 2.0313-1.1719 2.9428-3.0469v-5.7813h-3.7761q-8.8541 0-8.8541 5.1823 0 2.2657 1.5104 3.5417t3.8802 1.276zm24.141-24.505 0.1302 3.125q3.099-3.6458 8.3594-3.6458 5.9114 0 8.0468 4.5313 1.4063-2.0313 3.6459-3.2813 2.2656-1.25 5.3385-1.25 9.2708 0 9.4271 9.8177v18.88h-4.8177v-18.594q0-3.0209-1.3802-4.5052-1.3802-1.5105-4.6354-1.5105-2.6823 0-4.4532 1.6146-1.7708 1.5886-2.0573 4.2969v18.698h-4.8437v-18.464q0-6.1459-6.0156-6.1459-4.7396 0-6.4844 4.0365v20.573h-4.8177v-28.177zm53.906 28.698q-5.7292 0-9.3229-3.75-3.5938-3.776-3.5938-10.078v-0.8854q0-4.1927 1.5886-7.4739 1.6146-3.3073 4.4791-5.1563 2.8907-1.875 6.25-1.875 5.4948 0 8.5417 3.6198t3.0469 10.365v2.0052h-19.089q0.1042 4.1666 2.4219 6.7448 2.3438 2.552 5.9375 2.552 2.5521 0 4.3229-1.0416 1.7709-1.0417 3.099-2.7604l2.9427 2.2916q-3.5417 5.4427-10.625 5.4427zm-0.599-25.26q-2.9166 0-4.8958 2.1355-1.9792 2.1093-2.4479 5.9374h14.115v-0.3645q-0.2084-3.6719-1.9792-5.6771-1.7708-2.0313-4.7917-2.0313zm22.396 24.74h-4.8177v-40h4.8177zm19.401 0.5208q-5.7292 0-9.3229-3.75-3.5938-3.776-3.5938-10.078v-0.8854q0-4.1927 1.5886-7.4739 1.6146-3.3073 4.4791-5.1563 2.8907-1.875 6.25-1.875 5.4948 0 8.5417 3.6198t3.0469 10.365v2.0052h-19.089q0.1042 4.1666 2.4219 6.7448 2.3438 2.552 5.9375 2.552 2.5521 0 4.3229-1.0416 1.7709-1.0417 3.099-2.7604l2.9427 2.2916q-3.5417 5.4427-10.625 5.4427zm-0.599-25.26q-2.9166 0-4.8958 2.1355-1.9792 2.1093-2.4479 5.9374h14.115v-0.3645q-0.2084-3.6719-1.9792-5.6771-1.7708-2.0313-4.7917-2.0313zm23.698-10.26v6.8229h5.2605v3.724h-5.2605v17.474q0 1.6927 0.7032 2.5521 0.7031 0.8334 2.3958 0.8334 0.8333 0 2.2917-0.3125v3.9062q-1.9011 0.5208-3.698 0.5208-3.2291 0-4.8697-1.9531-1.6407-1.9531-1.6407-5.5469v-17.474h-5.1302v-3.724h5.1302v-6.8229zm34.115 20.859h-12.708v-3.9323h12.708zm23.672 10.052h17.969v4.0885h-22.995v-37.917h5.0261zm34.609 4.6093q-5.7292 0-9.3229-3.75-3.5938-3.776-3.5938-10.078v-0.8854q0-4.1927 1.5886-7.4739 1.6146-3.3073 4.4792-5.1563 2.8906-1.875 6.2499-1.875 5.4948 0 8.5417 3.6198t3.0469 10.365v2.0052h-19.088q0.1041 4.1666 2.4218 6.7448 2.3438 2.552 5.9375 2.552 2.5521 0 4.3229-1.0416 1.7709-1.0417 3.099-2.7604l2.9427 2.2916q-3.5417 5.4427-10.625 5.4427zm-0.599-25.26q-2.9166 0-4.8958 2.1355-1.9791 2.1093-2.4479 5.9374h14.115v-0.3645q-0.2084-3.6719-1.9792-5.6771-1.7708-2.0313-4.7917-2.0313zm33.568 17.266q0-1.9532-1.4844-3.0209-1.4583-1.0937-5.1302-1.875-3.6458-0.7812-5.8073-1.875-2.1354-1.0937-3.1771-2.6041-1.0156-1.5105-1.0156-3.5938 0-3.4635 2.9167-5.8594 2.9427-2.3958 7.5-2.3958 4.7916 0 7.7604 2.474 2.9948 2.4739 2.9948 6.3281h-4.8438q0-1.9792-1.6927-3.4115-1.6667-1.4323-4.2187-1.4323-2.6303 0-4.1146 1.1459-1.4844 1.1458-1.4844 2.9948 0 1.7447 1.3802 2.6302 1.3802 0.8854 4.974 1.6927 3.6197 0.8073 5.8593 1.9271 2.2396 1.1197 3.3073 2.7083 1.0938 1.5625 1.0938 3.8281 0 3.776-3.0209 6.0677-3.0208 2.2656-7.8385 2.2656-3.3854 0-5.9896-1.1979-2.6041-1.1979-4.0885-3.3333-1.4584-2.1615-1.4584-4.6615h4.8178q0.1302 2.4219 1.927 3.8542 1.823 1.4062 4.7917 1.4062 2.7344 0 4.375-1.0937 1.6667-1.1198 1.6667-2.9687zm54.193 7.4739h-5.026v-17.526h-19.115v17.526h-5v-37.917h5v16.302h19.115v-16.302h5.026zm25.521 0q-0.4167-0.8333-0.6771-2.9687-3.3594 3.4895-8.0209 3.4895-4.1666 0-6.8489-2.3437-2.6563-2.3698-2.6563-5.9896 0-4.401 3.3334-6.8229 3.3593-2.4479 9.427-2.4479h4.6875v-2.2136q0-2.526-1.5104-4.0104-1.5104-1.5104-4.4531-1.5104-2.5781 0-4.3229 1.3021t-1.7448 3.151h-4.8437q0-2.1093 1.4843-4.0625 1.5104-1.9791 4.0625-3.125 2.5782-1.1458 5.6511-1.1458 4.8698 0 7.6302 2.4479 2.7604 2.4219 2.8646 6.6927v12.969q0 3.8802 0.9895 6.1718v0.4167zm-7.9948-3.6719q2.2656 0 4.2968-1.1718 2.0313-1.1719 2.9427-3.0469v-5.7813h-3.776q-8.8542 0-8.8542 5.1823 0 2.2657 1.5105 3.5417 1.5104 1.276 3.8802 1.276zm24.844 3.6719h-4.8177v-40h4.8177zm12.943 0h-4.8177v-40h4.8177zm19.401 0.5208q-5.7291 0-9.3229-3.75-3.5937-3.776-3.5937-10.078v-0.8854q0-4.1927 1.5885-7.4739 1.6146-3.3073 4.4792-5.1563 2.8906-1.875 6.25-1.875 5.4947 0 8.5416 3.6198t3.0469 10.365v2.0052h-19.088q0.1041 4.1666 2.4218 6.7448 2.3438 2.552 5.9375 2.552 2.5521 0 4.3229-1.0416 1.7709-1.0417 3.099-2.7604l2.9427 2.2916q-3.5417 5.4427-10.625 5.4427zm-0.5989-25.26q-2.9167 0-4.8959 2.1355-1.9791 2.1093-2.4479 5.9374h14.115v-0.3645q-0.2083-3.6719-1.9792-5.6771-1.7708-2.0313-4.7916-2.0313zm33.568 17.266q0-1.9532-1.4843-3.0209-1.4584-1.0937-5.1302-1.875-3.6459-0.7812-5.8073-1.875-2.1354-1.0937-3.1771-2.6041-1.0156-1.5105-1.0156-3.5938 0-3.4635 2.9166-5.8594 2.9427-2.3958 7.5-2.3958 4.7917 0 7.7604 2.474 2.9948 2.4739 2.9948 6.3281h-4.8437q0-1.9792-1.6927-3.4115-1.6667-1.4323-4.2188-1.4323-2.6302 0-4.1146 1.1459-1.4843 1.1458-1.4843 2.9948 0 1.7447 1.3802 2.6302 1.3802 0.8854 4.9739 1.6927 3.6198 0.8073 5.8594 1.9271 2.2396 1.1197 3.3073 2.7083 1.0937 1.5625 1.0937 3.8281 0 3.776-3.0208 6.0677-3.0208 2.2656-7.8385 2.2656-3.3854 0-5.9896-1.1979t-4.0885-3.3333q-1.4584-2.1615-1.4584-4.6615h4.8177q0.1302 2.4219 1.9271 3.8542 1.8229 1.4062 4.7917 1.4062 2.7344 0 4.375-1.0937 1.6666-1.1198 1.6666-2.9687z" style="paint-order:markers stroke fill" aria-label="Camelet - Les Halles "/>
   <path transform="rotate(-30)" d="m1497.8 1302.1q-0.7031 6.0156-4.4531 9.2969-3.724 3.2552-9.9219 3.2552-6.7187 0-10.781-4.8177-4.0365-4.8177-4.0365-12.891v-3.6459q0-5.2864 1.875-9.2968 1.9011-4.0105 5.3646-6.1459 3.4635-2.1614 8.0208-2.1614 6.0417 0 9.6875 3.3854 3.6459 3.3594 4.2448 9.3229h-5.026q-0.6511-4.5313-2.8386-6.5625-2.1614-2.0312-6.0677-2.0312-4.7916 0-7.526 3.5416-2.7083 3.5417-2.7083 10.078v3.6719q0 6.1719 2.5781 9.8177t7.2135 3.6458q4.1667 0 6.3802-1.875 2.2396-1.901 2.9688-6.5885zm19.688-11.823q-1.0937-0.1823-2.3698-0.1823-4.7396 0-6.4323 4.0365v20h-4.8177v-28.177h4.6875l0.078 3.2552q2.3698-3.7761 6.7188-3.7761 1.4062 0 2.1354 0.3646zm2.6302 9.5052q0-4.1406 1.6146-7.4479 1.6406-3.3073 4.5312-5.1042 2.9167-1.7969 6.6407-1.7969 5.7552 0 9.2968 3.9844 3.5677 3.9844 3.5677 10.599v0.3385q0 4.1146-1.5885 7.3958-1.5625 3.2552-4.5052 5.0782-2.9167 1.8229-6.7188 1.8229-5.7291 0-9.2968-3.9844-3.5417-3.9844-3.5417-10.547zm4.8438 0.5729q0 4.6875 2.1614 7.5261 2.1875 2.8385 5.8333 2.8385 3.6719 0 5.8334-2.8646 2.1614-2.8906 2.1614-8.0729 0-4.6354-2.2135-7.5-2.1875-2.8906-5.8333-2.8906-3.5677 0-5.7552 2.8385-2.1875 2.8386-2.1875 8.125zm32.083 13.776h-4.8177v-28.177h4.8177zm-5.2084-35.651q0-1.1718 0.7032-1.9791 0.7291-0.8073 2.1354-0.8073 1.4062 0 2.1354 0.8073t0.7292 1.9791q0 1.1719-0.7292 1.9531-0.7292 0.7813-2.1354 0.7813-1.4063 0-2.1354-0.7813-0.7032-0.7812-0.7032-1.9531zm22.37 17.76 6.25-10.286h5.625l-9.2187 13.932 9.5052 14.245h-5.5729l-6.5105-10.547-6.5104 10.547h-5.5989l9.5052-14.245-9.2188-13.932h5.5729zm27.005 3.75h-12.708v-3.9323h12.708zm3.5156-0.1823q0-6.4843 3.0729-10.417 3.073-3.9584 8.0469-3.9584 4.9479 0 7.8385 3.3855v-14.688h4.8178v40h-4.4271l-0.2344-3.0208q-2.8906 3.5417-8.0469 3.5417-4.8958 0-7.9948-4.0104-3.0729-4.0104-3.0729-10.469zm4.8177 0.5469q0 4.7917 1.9792 7.5t5.4687 2.7083q4.5834 0 6.6927-4.1145v-12.943q-2.1614-3.9844-6.6406-3.9844-3.5416 0-5.5208 2.7344-1.9792 2.7343-1.9792 8.0989zm38.125 14.297q-5.7291 0-9.3229-3.75-3.5937-3.7761-3.5937-10.078v-0.8855q0-4.1927 1.5885-7.4739 1.6146-3.3073 4.4792-5.1563 2.8906-1.875 6.25-1.875 5.4947 0 8.5416 3.6198t3.0469 10.365v2.0052h-19.088q0.1041 4.1667 2.4218 6.7448 2.3438 2.5521 5.9375 2.5521 2.5521 0 4.3229-1.0417 1.7709-1.0416 3.099-2.7604l2.9427 2.2917q-3.5417 5.4427-10.625 5.4427zm-0.5989-25.26q-2.9167 0-4.8959 2.1354-1.9791 2.1094-2.4479 5.9375h14.115v-0.3646q-0.2083-3.6719-1.9792-5.6771-1.7708-2.0312-4.7916-2.0312zm27.187 10.599h-12.708v-3.9323h12.708zm33.333 2.1094q-0.7031 6.0156-4.4531 9.2969-3.7239 3.2552-9.9218 3.2552-6.7188 0-10.781-4.8177-4.0364-4.8177-4.0364-12.891v-3.6459q0-5.2864 1.875-9.2968 1.901-4.0105 5.3645-6.1459 3.4636-2.1614 8.0209-2.1614 6.0416 0 9.6875 3.3854 3.6458 3.3594 4.2447 9.3229h-5.026q-0.651-4.5313-2.8385-6.5625-2.1615-2.0312-6.0677-2.0312-4.7917 0-7.5261 3.5416-2.7083 3.5417-2.7083 10.078v3.6719q0 6.1719 2.5781 9.8177t7.2136 3.6458q4.1666 0 6.3802-1.875 2.2395-1.901 2.9687-6.5885zm10.886-12.734q3.2031-3.9323 8.3333-3.9323 8.9323 0 9.0104 10.078v18.62h-4.8177v-18.646q-0.026-3.0468-1.4062-4.5052-1.3542-1.4583-4.2448-1.4583-2.3438 0-4.1146 1.25t-2.7604 3.2812v20.078h-4.8177v-40h4.8177zm41.953 24.766q-0.4167-0.8333-0.6771-2.9687-3.3594 3.4896-8.0209 3.4896-4.1666 0-6.8489-2.3438-2.6563-2.3698-2.6563-5.9895 0-4.4011 3.3334-6.823 3.3593-2.4479 9.4271-2.4479h4.6874v-2.2135q0-2.5261-1.5104-4.0104-1.5104-1.5104-4.4531-1.5104-2.5781 0-4.3229 1.302-1.7448 1.3021-1.7448 3.1511h-4.8437q0-2.1094 1.4843-4.0625 1.5104-1.9792 4.0625-3.125 2.5782-1.1459 5.6511-1.1459 4.8698 0 7.6302 2.448 2.7604 2.4218 2.8646 6.6927v12.969q0 3.8802 0.9895 6.1719v0.4166zm-7.9948-3.6718q2.2656 0 4.2968-1.1719 2.0313-1.1719 2.9427-3.0469v-5.7812h-3.776q-8.8542 0-8.8542 5.1823 0 2.2656 1.5105 3.5416 1.5104 1.2761 3.8802 1.2761zm24.141-24.505 0.1302 3.125q3.099-3.6459 8.3594-3.6459 5.9114 0 8.0468 4.5313 1.4063-2.0313 3.6459-3.2813 2.2656-1.25 5.3385-1.25 9.2708 0 9.4271 9.8177v18.88h-4.8177v-18.594q0-3.0208-1.3802-4.5052-1.3802-1.5104-4.6354-1.5104-2.6823 0-4.4532 1.6146-1.7708 1.5885-2.0573 4.2968v18.698h-4.8437v-18.464q0-6.1458-6.0156-6.1458-4.7396 0-6.4844 4.0364v20.573h-4.8177v-28.177zm53.906 28.698q-5.7292 0-9.3229-3.75-3.5938-3.7761-3.5938-10.078v-0.8855q0-4.1927 1.5886-7.4739 1.6146-3.3073 4.4791-5.1563 2.8907-1.875 6.25-1.875 5.4948 0 8.5417 3.6198t3.0469 10.365v2.0052h-19.089q0.1042 4.1667 2.4219 6.7448 2.3438 2.5521 5.9375 2.5521 2.5521 0 4.3229-1.0417 1.7709-1.0416 3.099-2.7604l2.9427 2.2917q-3.5417 5.4427-10.625 5.4427zm-0.599-25.26q-2.9166 0-4.8958 2.1354-1.9792 2.1094-2.4479 5.9375h14.115v-0.3646q-0.2084-3.6719-1.9792-5.6771-1.7708-2.0312-4.7917-2.0312zm34.557 24.74q-0.4166-0.8333-0.6771-2.9687-3.3593 3.4896-8.0208 3.4896-4.1666 0-6.8489-2.3438-2.6563-2.3698-2.6563-5.9895 0-4.4011 3.3333-6.823 3.3594-2.4479 9.4271-2.4479h4.6875v-2.2135q0-2.5261-1.5104-4.0104-1.5104-1.5104-4.4531-1.5104-2.5781 0-4.3229 1.302-1.7448 1.3021-1.7448 3.1511h-4.8438q0-2.1094 1.4844-4.0625 1.5104-1.9792 4.0625-3.125 2.5781-1.1459 5.651-1.1459 4.8698 0 7.6302 2.448 2.7605 2.4218 2.8646 6.6927v12.969q0 3.8802 0.9896 6.1719v0.4166zm-7.9948-3.6718q2.2657 0 4.2969-1.1719 2.0313-1.1719 2.9427-3.0469v-5.7812h-3.776q-8.8542 0-8.8542 5.1823 0 2.2656 1.5104 3.5416 1.5105 1.2761 3.8802 1.2761zm37.005 0.8854q-2.8125 3.3073-8.2552 3.3073-4.5052 0-6.875-2.6042-2.3437-2.6302-2.3698-7.7604v-18.333h4.8177v18.203q0 6.4062 5.2084 6.4062 5.5208 0 7.3437-4.1145v-20.495h4.8177v28.177h-4.5833z" style="paint-order:markers stroke fill" aria-label="Croix-de-Chameau"/>
   <path transform="rotate(-30)" d="m2479.3 1869.7q-0.7031 6.0156-4.4531 9.2968-3.724 3.2552-9.9219 3.2552-6.7188 0-10.781-4.8177-4.0364-4.8177-4.0364-12.891v-3.6458q0-5.2865 1.875-9.2969 1.901-4.0104 5.3646-6.1458 3.4635-2.1615 8.0208-2.1615 6.0417 0 9.6875 3.3854 3.6458 3.3594 4.2448 9.323h-5.0261q-0.651-4.5313-2.8385-6.5625-2.1615-2.0313-6.0677-2.0313-4.7917 0-7.526 3.5417-2.7084 3.5416-2.7084 10.078v3.6719q0 6.1718 2.5781 9.8177 2.5782 3.6458 7.2136 3.6458 4.1667 0 6.3802-1.875 2.2396-1.901 2.9687-6.5885zm10.885-12.734q3.2031-3.9323 8.3333-3.9323 8.9323 0 9.0104 10.078v18.62h-4.8177v-18.646q-0.026-3.0469-1.4062-4.5052-1.3542-1.4584-4.2448-1.4584-2.3438 0-4.1146 1.25t-2.7604 3.2813v20.078h-4.8177v-40h4.8177zm41.953 24.766q-0.4167-0.8333-0.6771-2.9687-3.3594 3.4895-8.0208 3.4895-4.1667 0-6.849-2.3437-2.6562-2.3698-2.6562-5.9896 0-4.401 3.3333-6.8229 3.3594-2.4479 9.4271-2.4479h4.6875v-2.2136q0-2.526-1.5104-4.0104-1.5105-1.5104-4.4532-1.5104-2.5781 0-4.3229 1.3021t-1.7448 3.151h-4.8437q0-2.1093 1.4844-4.0625 1.5104-1.9791 4.0625-3.125 2.5781-1.1458 5.651-1.1458 4.8698 0 7.6302 2.4479 2.7604 2.4219 2.8646 6.6927v12.969q0 3.8802 0.9896 6.1718v0.4167zm-7.9948-3.6719q2.2656 0 4.2969-1.1718 2.0312-1.1719 2.9427-3.0469v-5.7813h-3.7761q-8.8541 0-8.8541 5.1823 0 2.2657 1.5104 3.5417t3.8802 1.276zm24.141-24.505 0.1302 3.125q3.099-3.6458 8.3594-3.6458 5.9114 0 8.0469 4.5313 1.4062-2.0313 3.6458-3.2813 2.2656-1.25 5.3385-1.25 9.2709 0 9.4271 9.8177v18.88h-4.8177v-18.594q0-3.0209-1.3802-4.5052-1.3802-1.5105-4.6354-1.5105-2.6823 0-4.4531 1.6146-1.7709 1.5886-2.0573 4.2969v18.698h-4.8438v-18.464q0-6.1459-6.0156-6.1459-4.7396 0-6.4844 4.0365v20.573h-4.8177v-28.177zm53.906 28.698q-5.7291 0-9.3229-3.75-3.5937-3.776-3.5937-10.078v-0.8854q0-4.1927 1.5885-7.4739 1.6146-3.3073 4.4792-5.1563 2.8906-1.875 6.25-1.875 5.4948 0 8.5416 3.6198 3.0469 3.6198 3.0469 10.365v2.0052h-19.088q0.1041 4.1666 2.4218 6.7448 2.3438 2.5521 5.9375 2.5521 2.5521 0 4.323-1.0417 1.7708-1.0417 3.0989-2.7604l2.9427 2.2916q-3.5416 5.4427-10.625 5.4427zm-0.5989-25.26q-2.9167 0-4.8959 2.1355-1.9791 2.1093-2.4479 5.9375h14.115v-0.3646q-0.2083-3.6719-1.9792-5.6771-1.7708-2.0313-4.7916-2.0313zm34.557 24.74q-0.4166-0.8333-0.677-2.9687-3.3594 3.4895-8.0209 3.4895-4.1666 0-6.8489-2.3437-2.6563-2.3698-2.6563-5.9896 0-4.401 3.3334-6.8229 3.3593-2.4479 9.427-2.4479h4.6875v-2.2136q0-2.526-1.5104-4.0104-1.5104-1.5104-4.4531-1.5104-2.5781 0-4.3229 1.3021t-1.7448 3.151h-4.8438q0-2.1093 1.4844-4.0625 1.5104-1.9791 4.0625-3.125 2.5781-1.1458 5.6511-1.1458 4.8697 0 7.6302 2.4479 2.7604 2.4219 2.8645 6.6927v12.969q0 3.8802 0.9896 6.1718v0.4167zm-7.9947-3.6719q2.2656 0 4.2968-1.1718 2.0313-1.1719 2.9427-3.0469v-5.7813h-3.776q-8.8542 0-8.8542 5.1823 0 2.2657 1.5105 3.5417 1.5104 1.276 3.8802 1.276zm37.005 0.8855q-2.8125 3.3072-8.2552 3.3072-4.5052 0-6.875-2.6041-2.3437-2.6302-2.3698-7.7604v-18.333h4.8178v18.203q0 6.4062 5.2083 6.4062 5.5208 0 7.3437-4.1146v-20.495h4.8177v28.177h-4.5833zm24.036-11.536q0-6.4844 3.0729-10.417 3.0729-3.9583 8.0469-3.9583 4.9479 0 7.8385 3.3854v-14.688h4.8177v40h-4.4271l-0.2343-3.0208q-2.8907 3.5416-8.0469 3.5416-4.8958 0-7.9948-4.0104-3.0729-4.0104-3.0729-10.469zm4.8177 0.5469q0 4.7916 1.9792 7.5 1.9791 2.7083 5.4687 2.7083 4.5833 0 6.6927-4.1146v-12.943q-2.1615-3.9844-6.6406-3.9844-3.5417 0-5.5208 2.7344-1.9792 2.7344-1.9792 8.099zm29.375-23.333-0.5469 9.5833h-3.3594l0.026-12.474h3.8802zm28.542 19.583h-16.432v13.438h19.089v4.0885h-24.089v-37.917h23.828v4.1145h-18.828v12.188h16.432zm25.521 17.526q-0.4166-0.8333-0.677-2.9687-3.3594 3.4895-8.0209 3.4895-4.1666 0-6.8489-2.3437-2.6563-2.3698-2.6563-5.9896 0-4.401 3.3334-6.8229 3.3593-2.4479 9.427-2.4479h4.6875v-2.2136q0-2.526-1.5104-4.0104-1.5104-1.5104-4.4531-1.5104-2.5781 0-4.3229 1.3021t-1.7448 3.151h-4.8438q0-2.1093 1.4844-4.0625 1.5104-1.9791 4.0625-3.125 2.5781-1.1458 5.651-1.1458 4.8698 0 7.6302 2.4479 2.7605 2.4219 2.8646 6.6927v12.969q0 3.8802 0.9896 6.1718v0.4167zm-7.9948-3.6719q2.2657 0 4.2969-1.1718 2.0313-1.1719 2.9427-3.0469v-5.7813h-3.776q-8.8542 0-8.8542 5.1823 0 2.2657 1.5104 3.5417 1.5105 1.276 3.8802 1.276zm37.005 0.8855q-2.8125 3.3072-8.2552 3.3072-4.5052 0-6.875-2.6041-2.3437-2.6302-2.3698-7.7604v-18.333h4.8178v18.203q0 6.4062 5.2083 6.4062 5.5208 0 7.3437-4.1146v-20.495h4.8177v28.177h-4.5833z" style="paint-order:markers stroke fill" aria-label="Chameau d'Eau"/>
   <path transform="rotate(-30)" d="m816.75 924.59v14.844h-5v-37.917h13.984q6.224 0 9.7396 3.1771 3.5417 3.1771 3.5417 8.4114 0 5.5208-3.4635 8.5156-3.4375 2.9688-9.8698 2.9688zm0-4.0885h8.9844q4.0104 0 6.1458-1.875 2.1354-1.901 2.1354-5.4687 0-3.3854-2.1354-5.4167-2.1354-2.0312-5.8594-2.1094h-9.2708zm26.276 4.5833q0-4.1406 1.6146-7.4479 1.6406-3.3073 4.5312-5.1042 2.9167-1.7969 6.6406-1.7969 5.7552 0 9.2969 3.9844 3.5677 3.9844 3.5677 10.599v0.33854q0 4.1146-1.5885 7.3958-1.5625 3.2552-4.5052 5.0781-2.9167 1.8229-6.7187 1.8229-5.7292 0-9.2969-3.9844-3.5417-3.9844-3.5417-10.547zm4.8438 0.57292q0 4.6875 2.1615 7.526 2.1875 2.8385 5.8333 2.8385 3.6719 0 5.8333-2.8646 2.1615-2.8906 2.1615-8.0729 0-4.6354-2.2135-7.5-2.1875-2.8906-5.8333-2.8906-3.5677 0-5.7552 2.8385t-2.1875 8.125zm40.469-10.078q-1.0937-0.18229-2.3698-0.18229-4.7396 0-6.4323 4.0364v20h-4.8177v-28.177h4.6875l0.0781 3.2552q2.3698-3.776 6.7188-3.776 1.4062 0 2.1354 0.36459zm12.266-11.146v6.8229h5.2604v3.724h-5.2604v17.474q0 1.6927 0.70313 2.5521 0.70312 0.83333 2.3958 0.83333 0.83333 0 2.2917-0.31249v3.9062q-1.901 0.52084-3.6979 0.52084-3.2292 0-4.8698-1.9531-1.6406-1.9531-1.6406-5.5469v-17.474h-5.1302v-3.724h5.1302v-6.8229zm22.578 35.521q-5.7292 0-9.3229-3.75-3.5938-3.776-3.5938-10.078v-0.88542q0-4.1927 1.5885-7.474 1.6146-3.3073 4.4792-5.1562 2.8906-1.875 6.25-1.875 5.4948 0 8.5417 3.6198 3.0469 3.6198 3.0469 10.365v2.0052h-19.089q0.10416 4.1667 2.4219 6.7448 2.3438 2.5521 5.9375 2.5521 2.5521 0 4.3229-1.0417t3.099-2.7604l2.9427 2.2917q-3.5417 5.4427-10.625 5.4427zm-0.59896-25.26q-2.9167 0-4.8958 2.1354-1.9792 2.1094-2.4479 5.9375h14.115v-0.36459q-0.20833-3.6719-1.9792-5.6771-1.7708-2.0312-4.7917-2.0312zm29.193 10.417q0-6.4844 3.0729-10.417 3.0729-3.9583 8.0469-3.9583 4.9479 0 7.8385 3.3854v-14.687h4.8177v40h-4.4271l-0.23438-3.0208q-2.8906 3.5417-8.0469 3.5417-4.8958 0-7.9948-4.0104-3.0729-4.0104-3.0729-10.469zm4.8177 0.54688q0 4.7917 1.9792 7.5 1.9792 2.7083 5.4688 2.7083 4.5833 0 6.6927-4.1146v-12.943q-2.1614-3.9844-6.6406-3.9844-3.5417 0-5.5208 2.7344-1.9792 2.7344-1.9792 8.099zm38.125 14.297q-5.7292 0-9.3229-3.75-3.5938-3.776-3.5938-10.078v-0.88542q0-4.1927 1.5885-7.474 1.6146-3.3073 4.4792-5.1562 2.8906-1.875 6.25-1.875 5.4948 0 8.5417 3.6198 3.0468 3.6198 3.0468 10.365v2.0052h-19.088q0.10417 4.1667 2.4219 6.7448 2.3438 2.5521 5.9375 2.5521 2.5521 0 4.3229-1.0417 1.7708-1.0417 3.0989-2.7604l2.9428 2.2917q-3.5417 5.4427-10.625 5.4427zm-0.59896-25.26q-2.9167 0-4.8958 2.1354-1.9792 2.1094-2.4479 5.9375h14.115v-0.36459q-0.2083-3.6719-1.9791-5.6771-1.7708-2.0312-4.7917-2.0312zm35.599 24.74h-4.8177v-40h4.8177zm25.104 0q-0.4167-0.83333-0.6771-2.9688-3.3594 3.4896-8.0208 3.4896-4.1667 0-6.849-2.3438-2.6562-2.3698-2.6562-5.9896 0-4.401 3.3333-6.8229 3.3594-2.4479 9.4271-2.4479h4.6875v-2.2135q0-2.526-1.5104-4.0104-1.5104-1.5104-4.4532-1.5104-2.5781 0-4.3229 1.3021t-1.7448 3.151h-4.8437q0-2.1094 1.4844-4.0625 1.5104-1.9792 4.0625-3.125 2.5781-1.1458 5.651-1.1458 4.8698 0 7.6302 2.4479 2.7604 2.4219 2.8646 6.6927v12.969q0 3.8802 0.9896 6.1719v0.41666zm-7.9948-3.6719q2.2656 0 4.2969-1.1719 2.0312-1.1719 2.9427-3.0469v-5.7812h-3.7761q-8.8541 0-8.8541 5.1823 0 2.2656 1.5104 3.5417t3.8802 1.276zm61.458-8.3594q-0.7031 6.0156-4.4531 9.2969-3.724 3.2552-9.9219 3.2552-6.7187 0-10.781-4.8177-4.0365-4.8177-4.0365-12.891v-3.6458q0-5.2864 1.875-9.2969 1.901-4.0104 5.3646-6.1458 3.4635-2.1614 8.0208-2.1614 6.0417 0 9.6875 3.3854 3.6458 3.3594 4.2448 9.3229h-5.0261q-0.651-4.5312-2.8385-6.5625-2.1614-2.0312-6.0677-2.0312-4.7917 0-7.526 3.5417-2.7084 3.5417-2.7084 10.078v3.6719q0 6.1719 2.5782 9.8177 2.5781 3.6458 7.2135 3.6458 4.1667 0 6.3802-1.875 2.2396-1.901 2.9687-6.5885zm10.885-12.734q3.2031-3.9323 8.3333-3.9323 8.9323 0 9.0104 10.078v18.62h-4.8177v-18.646q-0.026-3.0469-1.4062-4.5052-1.3542-1.4583-4.2448-1.4583-2.3437 0-4.1146 1.25-1.7708 1.25-2.7604 3.2812v20.078h-4.8177v-40h4.8177zm41.953 24.766q-0.4166-0.83333-0.6771-2.9688-3.3593 3.4896-8.0208 3.4896-4.1666 0-6.8489-2.3438-2.6563-2.3698-2.6563-5.9896 0-4.401 3.3333-6.8229 3.3594-2.4479 9.4271-2.4479h4.6875v-2.2135q0-2.526-1.5104-4.0104-1.5104-1.5104-4.4531-1.5104-2.5781 0-4.3229 1.3021t-1.7448 3.151h-4.8438q0-2.1094 1.4844-4.0625 1.5104-1.9792 4.0625-3.125 2.5781-1.1458 5.651-1.1458 4.8698 0 7.6302 2.4479 2.7605 2.4219 2.8646 6.6927v12.969q0 3.8802 0.9896 6.1719v0.41666zm-7.9948-3.6719q2.2657 0 4.2969-1.1719 2.0313-1.1719 2.9427-3.0469v-5.7812h-3.776q-8.8542 0-8.8542 5.1823 0 2.2656 1.5104 3.5417t3.8802 1.276zm24.141-24.505 0.1302 3.125q3.099-3.6458 8.3594-3.6458 5.9115 0 8.0469 4.5312 1.4062-2.0312 3.6458-3.2812 2.2656-1.25 5.3385-1.25 9.2709 0 9.4271 9.8177v18.88h-4.8177v-18.594q0-3.0208-1.3802-4.5052-1.3802-1.5104-4.6354-1.5104-2.6823 0-4.4531 1.6146-1.7709 1.5886-2.0573 4.2969v18.698h-4.8438v-18.464q0-6.1458-6.0156-6.1458-4.7396 0-6.4844 4.0365v20.573h-4.8177v-28.177zm53.906 28.698q-5.7292 0-9.3229-3.75-3.5938-3.776-3.5938-10.078v-0.88542q0-4.1927 1.5885-7.474 1.6146-3.3073 4.4792-5.1562 2.8906-1.875 6.25-1.875 5.4948 0 8.5417 3.6198 3.0468 3.6198 3.0468 10.365v2.0052h-19.088q0.1042 4.1667 2.4219 6.7448 2.3437 2.5521 5.9375 2.5521 2.5521 0 4.3229-1.0417t3.0989-2.7604l2.9428 2.2917q-3.5417 5.4427-10.625 5.4427zm-0.599-25.26q-2.9167 0-4.8958 2.1354-1.9792 2.1094-2.4479 5.9375h14.114v-0.36459q-0.2083-3.6719-1.9791-5.6771-1.7709-2.0312-4.7917-2.0312zm22.396 24.74h-4.8177v-40h4.8177zm12.943 0h-4.8177v-40h4.8177zm19.401 0.52084q-5.7292 0-9.323-3.75-3.5937-3.776-3.5937-10.078v-0.88542q0-4.1927 1.5885-7.474 1.6146-3.3073 4.4792-5.1562 2.8906-1.875 6.25-1.875 5.4948 0 8.5417 3.6198 3.0468 3.6198 3.0468 10.365v2.0052h-19.088q0.1042 4.1667 2.4219 6.7448 2.3437 2.5521 5.9375 2.5521 2.5521 0 4.3229-1.0417t3.0989-2.7604l2.9428 2.2917q-3.5417 5.4427-10.625 5.4427zm-0.599-25.26q-2.9167 0-4.8958 2.1354-1.9792 2.1094-2.4479 5.9375h14.114v-0.36459q-0.2083-3.6719-1.9791-5.6771-1.7709-2.0312-4.7917-2.0312z" style="paint-order:markers stroke fill" aria-label="Porte de la Chamelle"/>
   <path transform="rotate(-30)" d="m1170.1 1091.7h-12.188v33.802h-4.974v-33.802h-12.161v-4.1145h29.323zm16.536 9.948q-1.0937-0.1823-2.3698-0.1823-4.7395 0-6.4322 4.0364v20h-4.8177v-28.177h4.6874l0.078 3.2552q2.3698-3.776 6.7187-3.776 1.4063 0 2.1354 0.3646zm2.6302 9.5052q0-4.1407 1.6146-7.448 1.6406-3.3072 4.5313-5.1041 2.9166-1.7969 6.6406-1.7969 5.7552 0 9.2969 3.9844 3.5677 3.9844 3.5677 10.599v0.3386q0 4.1146-1.5886 7.3958-1.5625 3.2552-4.5052 5.0781-2.9166 1.8229-6.7187 1.8229-5.7292 0-9.2969-3.9843-3.5417-3.9844-3.5417-10.547zm4.8438 0.5729q0 4.6875 2.1614 7.526 2.1875 2.8386 5.8334 2.8386 3.6718 0 5.8333-2.8646 2.1615-2.8907 2.1615-8.0729 0-4.6355-2.2136-7.5-2.1875-2.8907-5.8333-2.8907-3.5677 0-5.7552 2.8386-2.1875 2.8385-2.1875 8.125zm38.151 10.365q2.5781 0 4.5052-1.5625t2.1354-3.9063h4.5573q-0.1302 2.4219-1.6666 4.6094-1.5365 2.1875-4.1146 3.4896-2.5521 1.302-5.4167 1.302-5.7552 0-9.1667-3.8281-3.3854-3.8541-3.3854-10.521v-0.8073q0-4.1146 1.5104-7.3177 1.5105-3.2031 4.323-4.974 2.8385-1.7708 6.6927-1.7708 4.7395 0 7.8645 2.8385 3.1511 2.8386 3.3594 7.3698h-4.5573q-0.2083-2.7343-2.0833-4.4791-1.849-1.7709-4.5833-1.7709-3.6719 0-5.7032 2.6563-2.0052 2.6302-2.0052 7.6302v0.9115q0 4.8697 2.0052 7.4999 2.0053 2.6303 5.7292 2.6303zm34.01 3.4114q-0.4167-0.8333-0.6771-2.9687-3.3594 3.4895-8.0208 3.4895-4.1667 0-6.849-2.3437-2.6562-2.3698-2.6562-5.9896 0-4.401 3.3333-6.8229 3.3594-2.4479 9.4271-2.4479h4.6875v-2.2136q0-2.526-1.5104-4.0104-1.5104-1.5104-4.4531-1.5104-2.5782 0-4.323 1.3021-1.7447 1.3021-1.7447 3.151h-4.8438q0-2.1093 1.4844-4.0625 1.5104-1.9791 4.0625-3.125 2.5781-1.1458 5.651-1.1458 4.8698 0 7.6302 2.4479 2.7604 2.4219 2.8646 6.6927v12.969q0 3.8802 0.9896 6.1718v0.4167zm-7.9948-3.6719q2.2656 0 4.2969-1.1718 2.0312-1.1719 2.9427-3.0469v-5.7813h-3.776q-8.8542 0-8.8542 5.1823 0 2.2657 1.5104 3.5417t3.8802 1.276zm24.141-24.505 0.1302 3.125q3.099-3.6458 8.3594-3.6458 5.9115 0 8.0469 4.5313 1.4062-2.0313 3.6458-3.2813 2.2656-1.25 5.3385-1.25 9.2709 0 9.4271 9.8177v18.88h-4.8177v-18.594q0-3.0209-1.3802-4.5052-1.3802-1.5105-4.6354-1.5105-2.6823 0-4.4531 1.6146-1.7709 1.5886-2.0573 4.2969v18.698h-4.8438v-18.464q0-6.1459-6.0156-6.1459-4.7396 0-6.4844 4.0365v20.573h-4.8177v-28.177zm53.906 28.698q-5.7291 0-9.3229-3.75-3.5937-3.776-3.5937-10.078v-0.8854q0-4.1927 1.5885-7.4739 1.6146-3.3073 4.4792-5.1563 2.8906-1.875 6.25-1.875 5.4948 0 8.5417 3.6198 3.0468 3.6198 3.0468 10.365v2.0052h-19.088q0.1042 4.1666 2.4219 6.7448 2.3437 2.5521 5.9375 2.5521 2.552 0 4.3229-1.0417 1.7708-1.0417 3.0989-2.7604l2.9427 2.2916q-3.5416 5.4427-10.625 5.4427zm-0.5989-25.26q-2.9167 0-4.8958 2.1355-1.9792 2.1093-2.448 5.9375h14.115v-0.3646q-0.2083-3.6719-1.9791-5.6771-1.7709-2.0313-4.7917-2.0313zm2.3437-15.26h5.8334l-6.9792 7.6563h-3.8802zm20.052 40h-4.8177v-40h4.8177zm6.4323-14.349q0-4.1407 1.6146-7.448 1.6406-3.3072 4.5312-5.1041 2.9167-1.7969 6.6406-1.7969 5.7553 0 9.2969 3.9844 3.5677 3.9844 3.5677 10.599v0.3386q0 4.1146-1.5885 7.3958-1.5625 3.2552-4.5052 5.0781-2.9167 1.8229-6.7188 1.8229-5.7291 0-9.2968-3.9843-3.5417-3.9844-3.5417-10.547zm4.8437 0.5729q0 4.6875 2.1615 7.526 2.1875 2.8386 5.8333 2.8386 3.6719 0 5.8334-2.8646 2.1614-2.8907 2.1614-8.0729 0-4.6355-2.2135-7.5-2.1875-2.8907-5.8334-2.8907-3.5677 0-5.7552 2.8386-2.1875 2.8385-2.1875 8.125z" style="paint-order:markers stroke fill" aria-label="Trocamlo"/>
  </g>
 </g>
 <g>
  <g>
   <path transform="matrix(1.3333 0 0 -1.3333 -11.339 616.06)" d="m0 428.03h263.62v42.519h-263.62z" fill="#2745a1"/>
   <path transform="matrix(1.3333 0 0 -1.3333 154.84 150.32)" d="m0 0c0-25.73-20.858-46.59-46.589-46.59-25.73 0-46.589 20.86-46.589 46.59s20.859 46.589 46.589 46.589c25.731 0 46.589-20.859 46.589-46.589" clip-path="url(#clipPath6)" fill="#fff"/>
   <path transform="matrix(1.3333 0 0 -1.3333 126.57 181.62)" d="m0 0v44.519c0 2.55-1.403 5.229-5.612 5.229-3.189 0-4.465-1.403-5.868-4.21l-13.776-28.701h-0.127l-13.905 28.701c-1.403 2.807-2.678 4.21-5.868 4.21-4.209 0-5.613-2.679-5.613-5.229v-44.519c0-2.425 1.914-3.827 4.21-3.827 2.041 0 4.337 1.402 4.337 3.827v33.165h0.128l12.629-25.768c0.892-1.786 2.04-2.805 4.082-2.805 2.041 0 3.188 1.019 4.081 2.805l12.628 25.768h0.128v-33.165c0-2.425 2.296-3.827 4.337-3.827 2.296 0 4.209 1.402 4.209 3.827m18.624 22.577c0-23.98-19.771-44.008-43.88-44.008-24.236 0-44.136 19.773-44.136 44.008 0 24.364 19.9 44.519 44.136 44.519 24.109 0 43.88-20.283 43.88-44.519m7.016 0c0 28.319-23.726 51.279-50.896 51.279-28.191 0-51.151-22.96-51.151-51.279 0-28.062 22.96-50.768 51.151-50.768 28.19 0 50.896 22.579 50.896 50.768" clip-path="url(#clipPath8)" fill="#2745a1"/>
  </g>
  <path transform="matrix(1.3333 0 0 -1.3333 179.4 151.18)" d="m0 0c0 28.18 22.844 51.024 51.024 51.024s51.023-22.844 51.023-51.024-22.843-51.024-51.023-51.024-51.024 22.844-51.024 51.024" clip-path="url(#clipPath475)" fill="#ff82b4" fill-rule="evenodd"/>
  <path transform="matrix(1.3333 0 0 -1.3333 275.28 126.74)" d="m0 0v9.179h-39.427v-9.418h27.377l-13.729-25.54c-4.948-9.178-6.944-13.967-6.944-21.389h12.85c0 8.859 7.503 25.699 19.873 47.168" clip-path="url(#clipPath477)" fill="#231f20" fill-rule="evenodd"/>
 </g>
</svg>
