<?xml version="1.0" encoding="UTF-8" standalone="no"?>
<!-- Created with Inkscape (http://www.inkscape.org/) -->

<svg
   width="210mm"
   height="297mm"
   viewBox="0 0 210 297"
   version="1.1"
   id="svg1"
   inkscape:version="1.4 (86a8ad7, 2024-10-11)"
   sodipodi:docname="0_cover.svg"
   xml:space="preserve"
   xmlns:inkscape="http://www.inkscape.org/namespaces/inkscape"
   xmlns:sodipodi="http://sodipodi.sourceforge.net/DTD/sodipodi-0.dtd"
   xmlns="http://www.w3.org/2000/svg"
   xmlns:svg="http://www.w3.org/2000/svg"><sodipodi:namedview
     id="namedview1"
     pagecolor="#ffffff"
     bordercolor="#eeeeee"
     borderopacity="1"
     inkscape:showpageshadow="0"
     inkscape:pageopacity="0"
     inkscape:pagecheckerboard="0"
     inkscape:deskcolor="#505050"
     inkscape:document-units="mm"
     inkscape:zoom="0.50835205"
     inkscape:cx="136.71628"
     inkscape:cy="547.84868"
     inkscape:window-width="1904"
     inkscape:window-height="993"
     inkscape:window-x="0"
     inkscape:window-y="0"
     inkscape:window-maximized="1"
     inkscape:current-layer="layer1" /><defs
     id="defs1" /><g
     inkscape:label="Calque 1"
     inkscape:groupmode="layer"
     id="layer1"
     style="display:inline;fill:none;fill-opacity:1;stroke:none"><rect
       style="fill:#990000;fill-opacity:1;stroke:none;stroke-width:1.99999;paint-order:stroke fill markers"
       id="rect1"
       width="210"
       height="297"
       x="0"
       y="0"
       rx="0"
       ry="0" /><path
       d="m 169.16501,85.332922 0.002,5.16e-4 -9.5632,0.08682 c -2.5199,0.0238 -4.564,2.1077 -4.5413,4.6276 l 0.10025,10.898002 c -2.7777,0.52558 -5.5289,1.2867 -8.2331,2.2805 l -5.533,-9.380802 c -0.83118,-1.4109 -2.3545,-2.2719 -3.992,-2.2562 -0.8052,0.008 -1.5944,0.2256 -2.2877,0.6351 l -8.2362,4.8597 c -2.1713,1.2816 -2.8998,4.105402 -1.618,6.276602 l 5.5232,9.3658 c -2.1803,1.8885 -4.1748,3.9362 -5.979,6.1149 l -9.4842,-5.3578 c -0.70036,-0.39535 -1.4907,-0.60189 -2.295,-0.59428 -1.6356,0.0155 -3.1414,0.90574 -3.9465,2.3296 h -0.004 l -4.7036,8.3261 c -1.2394,2.1945 -0.45866,5.001 1.7353,6.2415 l 9.5353,5.3888 c -0.92973,2.6883 -1.6514,5.4447 -2.1394,8.2496 l -10.938,0.0997 c -2.52,0.0238 -4.564596,2.1045 -4.541796,4.6245 l 0.08992,9.5632 c 0.009,0.98689 0.34228,1.8942 0.88522,2.6396 -16.532,8.8618 -25.599,22.565 -29.129,35.074 -3.5037,12.263 -1.5923,23.694 5.132,30.614 5.3087,5.5565 13.431,7.8031 23.004,6.4937 1.7674,3.8931 4.594296,7.2112 8.157596,9.5736 4.4947,3.1144 13.343,4.7077 18.651,4.7077 1.8606,-0.006 3.7162,-0.1948 5.5392,-0.56638 0.52767,1.1236 1.1189,2.2169 1.7699,3.2732 7.1667,11.502 18.262,10.228 27.658,7.5742 l 27.87,39.904 15.926,-0.56637 -6.1929,-21.66 c 3.6744,1.022 8.0536,1.4398 12.614,1.3162 v -15.515 l -1.248,0.53846 c -0.87459,0.43314 -1.1827,-0.54783 -1.4289,-1.1426 -0.22411,-0.63026 -0.88663,-1.4461 -0.0336,-1.9498 0.8829,-0.38083 1.7661,-0.76172 2.6489,-1.1426 -0.13757,-0.81107 -0.0836,-1.6335 0.0615,-2.4427 v -1.8666 l -1.8609,-1.3844 c -0.78214,-0.62682 0.0194,-1.3245 0.39274,-1.8686 0.36732,-0.46499 0.78244,-1.2492 1.4681,-0.94464 v -39.233 l -2.1404,-0.84491 c -5.875,11.078 -6.2995,21.147 -1.911,29.482 -18.386,-1.5042 -28.136,1.468 -41.567,5.5733 -8.8655,2.7783 -17.537,6.9544 -22.156,0 -3.2029,-4.8663 -5.1848,-9.6973 0,-15.253 14.422,-15.448 30.331,-3.7338 45.867,-10.918 l -1.9461,-7.0781 c -10.6,1.5926 -21.979,-0.47767 -32.154,0.56637 l 0.65526,-13.36 -6.0523,0.2651 -6.0518,16.298 c -3.4425,1.8687 -6.4001,4.5163 -8.6356,7.7334 -3.0486,3.8648 -4.9771,8.4912 -5.5743,13.377 -11.52,2.2296 -17.837,-0.93777 -19.766,-7.0781 l 3.6804,-12.068 -4.0695,-3.4329 -12.386996,9.6444 c -4.6186,0.30087 -9.5201,-0.47838 -12.723,-3.7698 -4.0347,-4.1408 -4.9903,-11.856 -2.5306,-20.402 3.203,-11.113 11.945,-23.27 29.640996,-30.578 -0.48005,2.3293 -0.72947,4.7 -0.74362,7.0781 0.007,3.0037 0.47838,5.9884 1.3978,8.848 l -5.627,14.723 5.7511,2.7957 5.7516,-7.3262 c 2.9745,3.2006 6.8379,5.4376 11.094,6.4234 l 3.8762,-7.5205 c -6.6713,-1.5572 -11.626,-11.538 -11.626,-17.855 -0.14723,-3.9122 0.77286,-7.7901 2.6618,-11.219 1.8892,-3.4291 4.676,-6.2794 8.0615,-8.2455 7.8304,-5.0212 18.861,-7.1602 29.615,-7.0817 l 0.002,-0.002 c 6.452,0.0475 12.805,0.89234 18.306,2.3921 -3.4924,2.3917 -6.576,5.3314 -9.1312,8.7059 -1.6094,2.1162 -2.9635,4.4149 -4.0344,6.8482 -4.4947,5.5033 -13.962,5.8934 -19.926,1.434 l -5.3092,3.6447 c 5.6272,9.6088 15.679,10.087 23.164,7.8398 1.1635,6.6229 4.5756,12.642 9.6614,17.04 l 5.8394,-5.3092 c -3.5569,-5.9988 -8.228,-15.236 -0.93741,-25.004 2.8216,-3.7952 14.512,-14.299 31.974,-9.5328 v -41.071 l -5.4116,3.1915 c -1.8887,-2.1803 -3.9326,-4.177 -6.1113,-5.9821 l 5.3537,-9.4775 v -0.003 c 1.2386,-2.1944 0.45934,-5.001902 -1.7343,-6.242002 l -8.3261,-4.7041 c -0.70037,-0.39535 -1.4944,-0.60189 -2.2986,-0.59428 -1.6356,0.0155 -3.1418,0.90574 -3.947,2.3296 l -5.3852,9.528102 c -2.6892,-0.93068 -5.4447,-1.6505 -8.2496,-2.1389 l -0.10179,-10.936002 c -0.0242,-2.5199 -2.1034,-4.5604 -4.6235,-4.5377 z m -7.3432,19.229998 v 5.2e-4 c 0.12068,0.0166 0.23459,0.0524 0.339,0.11421 0.20884,0.12357 0.34268,0.35327 0.37672,0.59117 l 0.91313,6.3764 c 0.10575,0.74044 -0.1438,1.4148 -0.70539,1.8805 -0.56153,0.46557 -1.3972,0.75032 -2.5027,0.90848 l -2.5192,0.35966 c -1.0994,0.15721 -1.9808,0.12002 -2.6515,-0.16898 -0.67066,-0.28899 -1.1027,-0.86572 -1.2087,-1.6071 l -0.30128,-2.112 c -0.10683,-0.74685 0.14573,-1.423 0.70849,-1.8903 0.56272,-0.46735 1.3956,-0.75176 2.4949,-0.90898 l 4.0928,-0.58756 -0.27957,-1.9704 c -0.0345,-0.2417 0.0314,-0.50168 0.19999,-0.67696 0.16846,-0.17527 0.40053,-0.26371 0.66352,-0.30127 0.13148,-0.019 0.25909,-0.0228 0.37982,-0.007 z m 6.7365,0.24908 h 5.2e-4 c 0.12126,-0.01 0.24822,0.001 0.37982,0.0253 0.26358,0.0475 0.49583,0.13814 0.65991,0.32091 0.16421,0.18276 0.21632,0.44753 0.17312,0.68781 l -0.74673,4.1336 7.0611,1.2686 0.74362,-4.13 c 0.0432,-0.24016 0.18754,-0.4712 0.40721,-0.58446 0.21966,-0.11288 0.46718,-0.11747 0.73588,-0.0687 0.26357,0.0475 0.49238,0.13625 0.6537,0.32091 0.1612,0.18467 0.20846,0.44824 0.16588,0.68472 l -1.3823,7.6688 c -0.0432,0.24015 -0.18402,0.47049 -0.40153,0.58446 -0.2175,0.11408 -0.46556,0.1168 -0.72915,0.0692 -0.26357,-0.0475 -0.49225,-0.13516 -0.65629,-0.31781 -0.16422,-0.18276 -0.21589,-0.44755 -0.1726,-0.68782 l 0.34158,-1.8981 -8.1044,-1.4619 c -0.23731,-0.0428 -0.44466,-0.11903 -0.60152,-0.27957 -0.15679,-0.16054 -0.22239,-0.40977 -0.18293,-0.6289 l 0.90537,-5.0255 c 0.0431,-0.24015 0.18714,-0.46998 0.40463,-0.58395 0.1087,-0.0569 0.22405,-0.087 0.34519,-0.0977 z m -7.4652,4.3548 -4.1305,0.59118 c -0.58504,0.0832 -0.99243,0.22815 -1.2092,0.38085 -0.21684,0.15281 -0.26657,0.26071 -0.23564,0.47697 l 0.30799,2.1322 c 0.0297,0.20796 0.10401,0.30282 0.35605,0.39016 0.25204,0.0879 0.68417,0.11179 1.2681,0.0274 l 2.5957,-0.37052 c 0.58398,-0.0832 0.99225,-0.22844 1.2098,-0.38292 0.21749,-0.15449 0.26487,-0.26581 0.23513,-0.47388 z m -13.12,1.912 c 0.66496,0.0475 1.2174,0.42633 1.5622,1.0397 l 1.2097,2.1534 c 0.32977,0.58679 0.35957,1.2299 0.0615,1.7973 -0.29802,0.56742 -0.87554,1.0601 -1.7074,1.5276 l -3.4179,1.9218 c -0.81405,0.4575 -1.5162,0.69436 -2.1389,0.66714 -0.62278,-0.0273 -1.146,-0.36438 -1.4619,-0.92656 l -0.35295,-0.6289 c -0.31336,-0.55755 -0.32862,-1.1801 -0.0274,-1.7244 0.30123,-0.54425 0.86853,-1.0184 1.6826,-1.4759 l 4.331,-2.4329 c -0.0701,-0.0689 -0.12317,-0.15558 -0.26252,-0.15606 -0.20648,-7.9e-4 -0.53982,0.0998 -0.96479,0.339 l -1.5477,0.87075 c -0.21743,0.12214 -0.44174,0.19374 -0.67386,0.15916 -0.23214,-0.0345 -0.43226,-0.19817 -0.54622,-0.40101 -0.11396,-0.20272 -0.14992,-0.45509 -0.0625,-0.67386 0.0875,-0.21876 0.26348,-0.37692 0.48369,-0.50074 l 1.5487,-0.87127 c 0.86547,-0.48637 1.6197,-0.73126 2.2846,-0.6842 z m 35.564,0.8537 c 0.73149,-0.0285 1.5682,0.25144 2.5471,0.8015 l 3.8054,2.1394 c 0.22457,0.12619 0.40576,0.28325 0.49764,0.50487 0.0919,0.22173 0.0593,0.48505 -0.0584,0.69454 -0.11762,0.20949 -0.32613,0.3745 -0.56328,0.41134 -0.23717,0.0368 -0.46739,-0.037 -0.69194,-0.16278 l -3.8463,-2.1596 c -0.51524,-0.28959 -0.92765,-0.42558 -1.1927,-0.43615 -0.26505,-0.0106 -0.36993,0.0443 -0.47698,0.23513 l -1.0537,1.8805 c -0.10305,0.18324 -0.10185,0.30235 0.045,0.52504 0.14687,0.22268 0.47738,0.50579 0.99167,0.79478 l 3.8473,2.1637 c 0.22188,0.12466 0.40168,0.27492 0.49713,0.49403 0.0952,0.21912 0.0659,0.48606 -0.0517,0.69556 -0.11762,0.20949 -0.3256,0.37451 -0.56275,0.41135 -0.23718,0.0368 -0.4674,-0.037 -0.69195,-0.16278 l -3.8049,-2.1358 c -0.97881,-0.55007 -1.655,-1.1217 -2.0118,-1.7596 -0.35669,-0.63789 -0.34628,-1.356 0.0202,-2.0082 l 1.0444,-1.8557 c 0.36912,-0.65689 0.97903,-1.0426 1.7105,-1.0712 z m -35.022,2.3358 -4.3103,2.42 c -0.404,0.22709 -0.65254,0.44685 -0.75706,0.60823 -0.10458,0.16137 -0.10439,0.22506 -0.031,0.35554 l 0.32143,0.5705 c 0.0777,0.13819 0.13322,0.17338 0.32504,0.16899 0.19183,-0.005 0.51171,-0.10083 0.91571,-0.32815 l 3.2628,-1.8345 c 0.41446,-0.23292 0.66905,-0.46084 0.77411,-0.62994 0.10516,-0.1691 0.10622,-0.24919 0.0176,-0.40772 z m 47.917,2.3849 c 0.23934,0.0404 0.44117,0.18575 0.61805,0.38396 0.17696,0.19821 0.29855,0.41452 0.31109,0.6568 0.0127,0.24229 -0.1075,0.4793 -0.2868,0.63924 l -1.4862,1.3234 2.7549,3.0861 c 0.7435,0.83312 1.1958,1.59 1.324,2.3094 0.12809,0.7194 -0.11932,1.3959 -0.68162,1.8976 l -2.7264,2.4365 c -0.18211,0.16244 -0.4341,0.25624 -0.67438,0.21394 -0.24027,-0.0428 -0.43645,-0.19111 -0.61133,-0.38705 -0.17831,-0.19976 -0.30533,-0.41178 -0.32195,-0.65681 -0.0159,-0.24503 0.10887,-0.48713 0.29094,-0.64957 l 2.744,-2.45 c 0.15998,-0.14272 0.19441,-0.25468 0.13436,-0.49816 -0.0602,-0.24349 -0.26354,-0.59596 -0.63511,-1.0123 l -2.8376,-3.1796 -3.2179,2.8716 c -0.18211,0.16243 -0.43359,0.25677 -0.67386,0.21446 -0.24028,-0.0428 -0.43749,-0.19161 -0.61237,-0.38757 -0.17484,-0.19594 -0.29931,-0.40558 -0.31419,-0.64906 -0.0142,-0.24348 0.10836,-0.48454 0.29042,-0.64699 l 5.9449,-5.3051 c 0.17926,-0.15995 0.42784,-0.25089 0.66714,-0.21084 z m -59.526,1.9012 c 0.4375,-0.0178 0.85986,0.13753 1.2082,0.44958 l 1.0552,0.94 c 0.16474,0.14771 0.27449,0.37434 0.25839,0.59738 -0.0159,0.22304 -0.12899,0.41239 -0.28319,0.58446 l -4.5796,5.1082 0.339,0.30438 c 0.14405,0.12905 0.23958,0.14851 0.46612,0.062 0.22655,-0.0868 0.55394,-0.3297 0.92708,-0.74621 l 1.2433,-1.3901 c 0.16651,-0.18573 0.35358,-0.32691 0.58446,-0.36897 0.2309,-0.0416 0.47272,0.0487 0.64596,0.20361 0.17324,0.15519 0.29,0.38808 0.27337,0.62218 -0.0159,0.2341 -0.13377,0.43284 -0.30024,0.61857 l -1.248,1.3891 c -0.70275,0.78428 -1.3626,1.2934 -2.0257,1.496 -0.663,0.20261 -1.3328,0.05 -1.8624,-0.42427 l -1.8386,-1.649 c -0.50213,-0.44989 -0.73728,-1.054 -0.63976,-1.6898 0.0976,-0.63586 0.48351,-1.2906 1.1167,-1.9973 l 2.4298,-2.7135 c 0.61863,-0.6904 1.2022,-1.1396 1.7901,-1.3203 0.14705,-0.0452 0.29393,-0.07 0.43977,-0.076 z m -0.10749,1.9518 c -0.0639,-0.0154 -0.13118,-0.007 -0.22169,0.0212 -0.18103,0.0558 -0.44909,0.24139 -0.75655,0.58446 l -2.3125,2.5818 c -0.31639,0.35305 -0.47921,0.64759 -0.51883,0.83974 -0.0397,0.19215 -0.007,0.27719 0.14211,0.41135 l 0.31781,0.28732 3.8711,-4.3202 -0.32194,-0.28319 c -0.0757,-0.0677 -0.13555,-0.10714 -0.19947,-0.12247 z m 27.113,0.52038 h 0.001 c 11.066,-0.41885 21.932,5.1125 28.006,15.409 1.4524,2.4627 2.4979,5.0437 3.2236,7.6714 -0.82855,0.10694 -1.6572,0.21906 -2.4815,0.37259 -10.803,-5.3352 -23.323,-7.7591 -35.334,-7.445 -7.5158,0.19655 -14.832,1.4663 -21.404,3.7652 2.4676,-6.2191 6.9369,-11.704 13.208,-15.403 4.6804,-2.7604 9.751,-4.1801 14.781,-4.3708 z m -38.232,6.6807 c 0.12263,0.002 0.24592,0.0323 0.35553,0.0858 l 7.0094,3.4354 c 0.22255,0.10932 0.40157,0.31458 0.44855,0.55604 0.0471,0.24147 -0.0174,0.48191 -0.13436,0.72243 -0.11551,0.23587 -0.26784,0.43089 -0.48783,0.53641 -0.21995,0.10575 -0.4857,0.0829 -0.70486,-0.0253 l -2.7063,-1.327 -3.0964,6.318 2.7099,1.327 c 0.21917,0.10695 0.40027,0.30807 0.44907,0.55036 0.0488,0.24229 -0.0143,0.48039 -0.13488,0.72554 -0.1155,0.23588 -0.26785,0.42933 -0.48782,0.53485 -0.21998,0.10576 -0.48571,0.0832 -0.70487,-0.0238 l -6.9985,-3.4282 c -0.22253,-0.10932 -0.40333,-0.3168 -0.44906,-0.56017 -0.0456,-0.24336 0.0209,-0.48349 0.14107,-0.72864 0.1155,-0.23588 0.26671,-0.43047 0.48783,-0.53278 0.22111,-0.10219 0.48185,-0.0711 0.69763,0.0346 l 2.7967,1.3689 3.0959,-6.318 -2.8096,-1.3756 c -0.21574,-0.10575 -0.39355,-0.3029 -0.44236,-0.5395 -0.0488,-0.23671 0.0123,-0.47261 0.12816,-0.70848 0.11789,-0.24051 0.26712,-0.43723 0.48369,-0.54881 0.10825,-0.0559 0.2308,-0.081 0.35347,-0.0786 z m 76.473,2.2231 c 0.30646,0.0154 0.60461,0.10945 0.87591,0.28163 0.54247,0.34557 0.98737,0.96088 1.3787,1.8252 l 1.5028,3.3212 c 0.38239,0.84442 0.5595,1.5565 0.48783,2.1673 -0.0713,0.6109 -0.43751,1.1044 -1.0056,1.3617 l -1.2898,0.58033 c -0.20164,0.0915 -0.44832,0.10091 -0.64595,-0.003 -0.19761,-0.10458 -0.32639,-0.28346 -0.42168,-0.49403 l -2.8267,-6.2492 -0.41547,0.19069 c -0.17624,0.0796 -0.23257,0.15818 -0.24443,0.40049 -0.0128,0.24229 0.0762,0.63841 0.30695,1.1477 l 0.7705,1.6965 c 0.10216,0.22721 0.15916,0.45643 0.1049,0.68471 -0.0547,0.22827 -0.23809,0.41518 -0.4501,0.51108 -0.21187,0.0962 -0.46938,0.10932 -0.67696,0 -0.20757,-0.10932 -0.34309,-0.30144 -0.44597,-0.52865 l -0.77101,-1.7007 c -0.4344,-0.9592 -0.63534,-1.7683 -0.55345,-2.4567 0.0819,-0.68837 0.49319,-1.2378 1.141,-1.5312 l 2.25,-1.0201 v 5.2e-4 c 0.30706,-0.13904 0.62216,-0.20081 0.92863,-0.18501 z m 0.0377,1.943 c -0.0654,-0.007 -0.13485,0.0116 -0.22634,0.0532 l -0.39067,0.1757 2.3916,5.285 0.39016,-0.1757 c 0.18514,-0.0844 0.24112,-0.16139 0.26251,-0.34985 0.0214,-0.18835 -0.0416,-0.50633 -0.23151,-0.92604 l -1.4309,-3.1585 c -0.1956,-0.43195 -0.39619,-0.69553 -0.55603,-0.80925 -0.0798,-0.057 -0.14271,-0.0881 -0.20878,-0.0941 z m 1.0144,33.86 -6.5293,0.60151 c -0.64165,3.2863 -0.39667,6.6845 0.71055,9.8444 1.1072,3.16 3.0358,5.9674 5.5883,8.1344 -2.9648,3.2737 -5.1754,7.1584 -6.4766,11.379 l 6.6182,3.1672 c 1.574,-2.8357 3.9889,-5.4147 6.8828,-7.6114 v -15.441 c -1.3647,-0.7474 -2.6106,-1.7047 -3.6422,-2.8923 -1.7538,-2.0193 -2.8529,-4.5235 -3.1518,-7.1815 z m 1.2935,76.117 h 5.2e-4 c 0.04,0.001 0.0796,0.008 0.11782,0.0202 l 1.1514,0.35812 c 0.2412,0.0745 0.37494,0.33246 0.29869,0.57619 l -0.5457,1.7374 c 0.31407,0.19524 0.60658,0.43521 0.86765,0.72089 0.26118,0.28577 0.47439,0.59996 0.64182,0.93173 l 1.7627,-0.40722 c 0.039,-0.009 0.079,-0.0128 0.11886,-0.0114 0.20709,0.008 0.38197,0.1545 0.42633,0.35811 l 0.25941,1.186 c 0.0546,0.24862 -0.10195,0.49657 -0.34933,0.55345 l -1.7673,0.40773 c -0.0285,0.75435 -0.25358,1.503 -0.67128,2.1575 l 1.2154,1.3296 c 0.1702,0.18651 0.15701,0.4781 -0.0295,0.65163 l -0.89245,0.82993 c -0.18686,0.17353 -0.47654,0.16289 -0.64699,-0.0238 l -1.2165,-1.3307 c -0.68078,0.366 -1.4382,0.5314 -2.1859,0.49919 l -0.54726,1.7436 c -0.0766,0.2433 -0.33377,0.37996 -0.57464,0.3054 l -1.1524,-0.35708 c -0.24078,-0.0749 -0.37399,-0.33277 -0.29766,-0.57619 l 0.54622,-1.7389 c -0.31432,-0.19525 -0.6075,-0.43408 -0.86868,-0.71986 -0.2612,-0.28579 -0.4744,-0.59954 -0.64182,-0.93121 l -1.7622,0.4067 c -0.24684,0.0568 -0.4908,-0.0981 -0.54518,-0.34623 l -0.25942,-1.187 c -0.0539,-0.24812 0.10214,-0.49529 0.34882,-0.55242 l 1.7673,-0.40773 c 0.029,-0.75433 0.25476,-1.502 0.67231,-2.1565 l -1.217,-1.3317 c -0.17089,-0.18664 -0.15769,-0.47903 0.0295,-0.65267 l 0.89245,-0.82889 c 0.0899,-0.0834 0.20871,-0.12765 0.33021,-0.12299 0.12129,0.004 0.23542,0.0572 0.31729,0.14676 l 1.2149,1.3296 c 0.68116,-0.3666 1.4389,-0.53099 2.1869,-0.49867 l 0.54726,-1.743 c 0.0627,-0.19959 0.25031,-0.3331 0.45733,-0.32556 z m -21.745,2.3285 v 5.1e-4 c 0.42511,0.0321 0.79427,0.30484 0.94981,0.70177 l 1.1984,3.0598 c 1.0472,-0.14735 2.1237,-0.13273 3.1915,0.0558 l 1.3131,-3.005 c 0.17091,-0.39041 0.55027,-0.64847 0.97617,-0.66404 0.16656,-0.006 0.33241,0.0249 0.48524,0.0915 l 2.3518,1.0278 c 0.56176,0.24564 0.81791,0.90025 0.57206,1.4619 l -1.3136,3.0055 c 0.86331,0.6557 1.6052,1.4356 2.2081,2.3043 l 3.0598,-1.1984 c 0.15524,-0.0606 0.32215,-0.0855 0.48834,-0.0729 0.42511,0.0321 0.79426,0.30483 0.94981,0.70176 l 0.93586,2.3895 c 0.2235,0.5708 -0.0581,1.2147 -0.6289,1.4382 l -3.0592,1.1984 c 0.14758,1.0472 0.13261,2.1237 -0.0558,3.1915 l 3.0045,1.3136 c 0.56158,0.24525 0.81813,0.89923 0.57309,1.4609 l -1.0278,2.3518 c -0.24545,0.56196 -0.90012,0.81837 -1.4619,0.57258 l -3.005,-1.3141 c -0.65572,0.86329 -1.4354,1.6053 -2.3042,2.2081 l 1.1984,3.0598 c 0.2235,0.5708 -0.0581,1.2147 -0.6289,1.4382 l -2.3895,0.93586 c -0.5708,0.2235 -1.2147,-0.0581 -1.4382,-0.6289 l -1.1989,-3.0603 c -1.047,0.14735 -2.1237,0.13249 -3.191,-0.0558 l -1.3131,3.0055 c -0.24525,0.56187 -0.8996,0.81847 -1.4614,0.57309 l -2.3513,-1.0289 c -0.56158,-0.24525 -0.81812,-0.89922 -0.57309,-1.4609 l 1.3141,-3.005 c -0.86331,-0.6557 -1.6052,-1.4355 -2.2081,-2.3042 l -3.0603,1.1984 c -0.57081,0.2235 -1.2147,-0.0581 -1.4382,-0.62891 l -0.93534,-2.39 c -0.22287,-0.57036 0.0583,-1.2135 0.62838,-1.4371 l 3.0603,-1.1989 c -0.14756,-1.0476 -0.1338,-2.1239 0.0548,-3.192 l -3.005,-1.3131 c -0.56147,-0.24565 -0.81756,-0.89988 -0.57205,-1.4614 l 1.0284,-2.3518 c 0.17091,-0.39041 0.55027,-0.64847 0.97616,-0.66404 0.16657,-0.006 0.33242,0.0249 0.48525,0.0915 l 3.005,1.3146 c 0.65583,-0.86355 1.4353,-1.6063 2.3042,-2.2092 l -1.1984,-3.0587 c -0.2239,-0.5708 0.0575,-1.215 0.62838,-1.4387 l 2.3895,-0.93638 c 0.15536,-0.0609 0.32246,-0.086 0.48886,-0.0734 z m 20.616,1.8634 c -0.53283,-0.019 -1.0749,0.16958 -1.5064,0.57051 -0.86295,0.80197 -0.92207,2.1187 -0.13435,2.9807 0.78784,0.86201 2.0935,0.90923 2.9564,0.10801 0.86295,-0.80199 0.9226,-2.1182 0.13488,-2.9802 -0.39392,-0.43099 -0.91769,-0.65862 -1.4506,-0.678 z m -17.003,5.8875 c -2.3916,-0.0357 -4.6639,1.3398 -5.6891,3.685 -1.3669,3.1271 0.037,6.7131 3.1642,8.0801 3.1271,1.3669 6.7122,-0.0371 8.0791,-3.1647 1.3669,-3.1271 -0.0377,-6.7117 -3.1647,-8.0786 -0.78179,-0.34176 -1.5923,-0.51017 -2.3895,-0.52193 z"
       fill="#990000"
       fill-opacity="0.15"
       stroke-linecap="round"
       stroke-linejoin="round"
       stroke-width="2.3791"
       id="path1-6"
       style="display:inline;fill:#ffffff;fill-opacity:0.15000001;stroke:none" /><g
       id="g20"
       style="display:inline;fill:none;fill-opacity:1;stroke:none"><text
         xml:space="preserve"
         style="font-size:5.08px;line-height:1.1;font-family:Roboto;-inkscape-font-specification:'Roboto, Normal';text-align:center;letter-spacing:0px;word-spacing:0px;writing-mode:lr-tb;direction:ltr;text-anchor:middle;fill:#ffffff;fill-opacity:1;stroke:none;stroke-width:0.499999;stroke-dasharray:none;paint-order:stroke fill markers"
         x="105.70806"
         y="253.81"
         id="text4"><tspan
           sodipodi:role="line"
           id="tspan4"
           style="letter-spacing:0px;stroke:none;stroke-width:0.5"
           x="105.70806"
           y="253.81">Jeanne Thalie <tspan
   style="font-style:normal;font-variant:normal;font-weight:normal;font-stretch:normal;font-size:5.08px;font-family:Sans;-inkscape-font-specification:'Sans, Normal';font-variant-ligatures:normal;font-variant-caps:small-caps;font-variant-numeric:normal;font-variant-east-asian:normal;letter-spacing:0px"
   id="tspan19">Durand</tspan></tspan></text><text
         xml:space="preserve"
         style="font-size:5.08px;line-height:1.1;font-family:Roboto;-inkscape-font-specification:'Roboto, Normal';text-align:center;letter-spacing:0px;word-spacing:0px;writing-mode:lr-tb;direction:ltr;text-anchor:middle;fill:#ffffff;fill-opacity:1;stroke:none;stroke-width:0.499999;stroke-dasharray:none;paint-order:stroke fill markers"
         x="62.333447"
         y="264.67001"
         id="text8"><tspan
           sodipodi:role="line"
           id="tspan8"
           style="letter-spacing:0px;stroke-width:0.5"
           x="62.333447"
           y="264.67001">Tidiane <tspan
   style="font-style:normal;font-variant:normal;font-weight:normal;font-stretch:normal;font-size:5.08px;font-family:Sans;-inkscape-font-specification:'Sans, Normal';font-variant-ligatures:normal;font-variant-caps:small-caps;font-variant-numeric:normal;font-variant-east-asian:normal;letter-spacing:0px"
   id="tspan18">Bathily</tspan></tspan></text><text
         xml:space="preserve"
         style="font-size:5.08px;line-height:1.1;font-family:Roboto;-inkscape-font-specification:'Roboto, Normal';text-align:center;letter-spacing:0px;word-spacing:0px;writing-mode:lr-tb;direction:ltr;text-anchor:middle;fill:#ffffff;fill-opacity:1;stroke:none;stroke-width:0.499999;stroke-dasharray:none;paint-order:stroke fill markers"
         x="62.450932"
         y="270.53"
         id="text9"><tspan
           sodipodi:role="line"
           id="tspan9"
           style="letter-spacing:0px;stroke-width:0.5"
           x="62.450932"
           y="270.53">Adam <tspan
   style="font-style:normal;font-variant:normal;font-weight:normal;font-stretch:normal;font-size:5.08px;font-family:Sans;-inkscape-font-specification:'Sans, Normal';font-variant-ligatures:normal;font-variant-caps:small-caps;font-variant-numeric:normal;font-variant-east-asian:normal;letter-spacing:0px"
   id="tspan20">Graziani</tspan></tspan></text><text
         xml:space="preserve"
         style="font-size:5.08px;line-height:1.1;font-family:Roboto;-inkscape-font-specification:'Roboto, Normal';text-align:center;letter-spacing:0px;word-spacing:0px;writing-mode:lr-tb;direction:ltr;text-anchor:middle;fill:#ffffff;fill-opacity:1;stroke:none;stroke-width:0.499999;stroke-dasharray:none;paint-order:stroke fill markers"
         x="149.67725"
         y="264.67001"
         id="text10"><tspan
           sodipodi:role="line"
           id="tspan10"
           style="letter-spacing:0px;stroke-width:0.5"
           x="149.67725"
           y="264.67001">Arthur <tspan
   style="font-style:normal;font-variant:normal;font-weight:normal;font-stretch:normal;font-size:5.08px;font-family:Sans;-inkscape-font-specification:'Sans, Normal';font-variant-ligatures:normal;font-variant-caps:small-caps;font-variant-numeric:normal;font-variant-east-asian:normal;letter-spacing:0px"
   id="tspan17">Fiolet</tspan></tspan></text><text
         xml:space="preserve"
         style="font-size:5.08px;line-height:1.1;font-family:Roboto;-inkscape-font-specification:'Roboto, Normal';text-align:center;letter-spacing:0px;word-spacing:0px;writing-mode:lr-tb;direction:ltr;text-anchor:middle;fill:#ffffff;fill-opacity:1;stroke:none;stroke-width:0.499999;stroke-dasharray:none;paint-order:stroke fill markers"
         x="149.7509"
         y="270.53119"
         id="text11"><tspan
           sodipodi:role="line"
           id="tspan11"
           style="letter-spacing:0px;stroke-width:0.5"
           x="149.7509"
           y="270.53119">Valentin <tspan
   style="font-style:normal;font-variant:normal;font-weight:normal;font-stretch:normal;font-size:5.08px;font-family:Sans;-inkscape-font-specification:'Sans, Normal';font-variant-ligatures:normal;font-variant-caps:small-caps;font-variant-numeric:normal;font-variant-east-asian:normal;letter-spacing:0px"
   id="tspan16">Kiep</tspan></tspan></text></g><g
       id="g4"
       transform="translate(0,-33.526704)"><text
         xml:space="preserve"
         style="font-style:normal;font-variant:normal;font-weight:normal;font-stretch:normal;font-size:16.9333px;line-height:1.1;font-family:Sans;-inkscape-font-specification:'Sans, Normal';font-variant-ligatures:normal;font-variant-caps:all-small-caps;font-variant-numeric:normal;font-variant-east-asian:normal;text-align:center;letter-spacing:0px;word-spacing:0px;writing-mode:lr-tb;direction:ltr;text-anchor:middle;display:inline;fill:#ffffff;fill-opacity:1;stroke:none;stroke-width:1.99999;paint-order:stroke fill markers"
         x="104.95659"
         y="248.19708"
         id="text2"><tspan
           sodipodi:role="line"
           id="tspan2"
           style="font-style:normal;font-variant:normal;font-weight:normal;font-stretch:normal;font-size:16.9333px;font-family:Roboto;-inkscape-font-specification:'Roboto, Normal';font-variant-ligatures:normal;font-variant-caps:small-caps;font-variant-numeric:normal;font-variant-east-asian:normal;stroke-width:1.99999"
           x="104.95659"
           y="248.19708" /><tspan
           sodipodi:role="line"
           style="font-style:normal;font-variant:normal;font-weight:normal;font-stretch:normal;font-size:5.08px;font-family:Roboto;-inkscape-font-specification:'Roboto, Normal';font-variant-ligatures:normal;font-variant-caps:small-caps;font-variant-numeric:normal;font-variant-east-asian:normal;stroke-width:1.99999"
           x="104.95659"
           y="267.41428"
           id="tspan3"><tspan
   style="font-style:normal;font-variant:normal;font-weight:normal;font-stretch:normal;font-size:5.08px;font-family:Roboto;-inkscape-font-specification:'Roboto, Normal';font-variant-ligatures:normal;font-variant-caps:normal;font-variant-numeric:normal;font-variant-east-asian:normal"
   id="tspan21">Promo</tspan> Epita 2029</tspan></text><text
         xml:space="preserve"
         style="font-style:normal;font-variant:normal;font-weight:normal;font-stretch:normal;font-size:7.3166px;line-height:1.1;font-family:Roboto;-inkscape-font-specification:'Roboto, Normal';font-variant-ligatures:normal;font-variant-caps:small-caps;font-variant-numeric:normal;font-variant-east-asian:normal;text-align:center;letter-spacing:0px;word-spacing:0px;writing-mode:lr-tb;direction:ltr;text-anchor:middle;display:inline;fill:#ffffff;fill-opacity:1;stroke:#ffffff;stroke-width:0;stroke-dasharray:none;stroke-opacity:1;paint-order:stroke fill markers"
         x="105.70201"
         y="258.75336"
         id="text7"><tspan
           sodipodi:role="line"
           id="tspan7"
           style="stroke-width:0"
           x="105.70201"
           y="258.75336">A1</tspan></text></g><text
       xml:space="preserve"
       style="font-style:normal;font-variant:normal;font-weight:normal;font-stretch:normal;font-size:6.096px;line-height:1.1;font-family:Roboto;-inkscape-font-specification:'Roboto, Normal';font-variant-ligatures:normal;font-variant-caps:small-caps;font-variant-numeric:normal;font-variant-east-asian:normal;text-align:center;letter-spacing:0px;word-spacing:0px;writing-mode:lr-tb;direction:ltr;text-anchor:middle;fill:#ffffff;fill-opacity:1;stroke:#ffffff;stroke-width:0;stroke-dasharray:none;stroke-opacity:1;paint-order:stroke fill markers"
       x="96.568481"
       y="36.066914"
       id="text5"><tspan
         sodipodi:role="line"
         id="tspan5"
         style="font-size:6.096px;stroke-width:0"
         x="96.568481"
         y="36.066914" /></text><path
       d="M 66.249863,190 H 61.25003 l -1.249982,1.24998 v 4.99983 l 1.249982,1.24999 h 3.749993 v 2.50001 h -2.50001 v -1.24999 h -2.500011 v 2.50001 l 1.249982,1.24999 h 4.999832 l 1.249981,-1.24999 V 196.25 l -1.249981,-1.24998 h -3.749992 v -2.50001 h 2.50001 v 1.24998 h 2.500011 v -2.50001 z m 8.75006,0 v 10.00014 h -2.50001 V 190 h -2.500011 v 11.24974 l 1.249982,1.24998 h 4.999832 l 1.249982,-1.24998 V 190 Z m 11.249741,0 h -6.249909 v 12.49982 h 6.249909 l 1.249981,-1.24999 v -4.15624 l -0.84373,-0.84373 0.84373,-0.82814 v -4.17188 z m -1.249982,10.00014 h -2.500011 v -2.50001 h 2.500011 z m 0,-4.99984 h -2.500011 v -2.50001 h 2.500011 z m 14.999968,-4.99983 -1.249982,6.24991 -1.249982,-6.24991 h -2.50001 l -1.249982,6.24991 -1.249982,-6.24991 h -2.50001 l 2.50001,12.49982 h 2.500011 l 1.249982,-6.24991 1.249981,6.24991 h 2.500011 l 2.500013,-12.49982 z m 7.49998,12.49982 h 2.50001 l -2.50001,-12.49982 h -2.50001 l -2.50001,12.49982 h 2.50001 l 0.49998,-2.50001 h 1.5 z m -1.49999,-4.99983 0.25,-1.24998 0.24999,1.24998 z m 8.99998,-7.49999 -1.24999,2.50001 -1.24998,-2.50001 h -2.50001 l 2.50001,4.99983 v 7.49999 h 2.50001 v -7.49999 l 2.50001,-4.99983 z m 13.75036,0 h -4.99983 l -1.24998,1.24998 v 10.00014 l 1.24998,1.24998 h 4.99983 l 1.24998,-1.24998 V 191.25045 Z M 127.5,200.00061 h -2.50001 v -7.49999 H 127.5 Z m 10.00014,-10.00014 v 10.00014 h -2.50001 v -10.00014 h -2.50001 v 11.24974 l 1.24998,1.24998 h 4.99983 l 1.24998,-1.24998 v -11.24974 z m 12.49981,0 h -7.49998 v 2.50001 h 2.50001 v 10.00014 h 2.50001 V 192.50048 H 150 Z"
       fill="#ffffff"
       stroke-linecap="round"
       stroke-linejoin="round"
       stroke-width="0.209263"
       aria-label="SUBWAY OUT"
       id="path3-1"
       style="display:inline;fill:#ffffff;fill-opacity:1;stroke:none" /><path
       style="fill:#ffffff;paint-order:stroke fill markers"
       d="m 80.520473,180 v 0.58789 H 130.52047 V 180 Z"
       id="path2" /><path
       d="m 78.736,1.4436e-4 -8.5847,0.07787 c -2.262,0.02133 -4.0965,1.89220004 -4.0761,4.15420004 l 0.08992,9.7820996 c -2.4934,0.47178 -4.9629,1.155 -7.3903,2.0471 l -4.9669,-8.4203996 c -0.74609,-1.2665 -2.1133,-2.0396 -3.5832,-2.0255 -0.72277,0.0069 -1.4312,0.20277 -2.0535,0.57035 l -7.3933,4.3619996 c -1.949,1.1504 -2.6029,3.6855 -1.4523,5.6345 l 4.9581,8.4071 c -1.9571,1.6952 -3.7475,3.5329 -5.367,5.4886 l -8.5132,-4.8092 c -0.62867,-0.35488 -1.3383,-0.54027 -2.0602,-0.53344 -1.4682,0.01387 -2.8199,0.81301 -3.5426,2.0911 a 0.7943,0.7943 0 0 0 -0.0032,0 l -4.222,7.4736 c -1.1125,1.9699 -0.41167,4.4893 1.5577,5.6028 l 8.5589,4.8372 c -0.83456,2.4131 -1.4822,4.8873 -1.9202,7.4051 l -9.8189,0.0896 c -2.262,0.02133 -4.0972,1.8892 -4.0768,4.1513 l 0.08096,8.584 c 0.008,0.88587 0.30694,1.7005 0.7943,2.3696 -14.84,7.9547 -22.978,20.255 -26.147,31.484 -3.1451,11.007996 -1.4294,21.268996 4.6066,27.479996 4.7653,4.9877 12.056,7.0044 20.649,5.829 1.5865,3.4946 4.1239,6.473 7.3225,8.5936 4.0346,2.7956 11.977,4.2257 16.742,4.2257 1.6701,-0.005 3.3357,-0.17483 4.9721,-0.50837 0.47366,1.0086 1.0042,1.9902 1.5886,2.9384 6.4331,10.325 16.393,9.1813 24.827,6.7987 l 25.017,35.819 14.296,-0.50838 -5.5593,-19.443 c 14.963,4.1617 42.729,-2.1923 41.41,-19.665 1.0372,-0.35584 2.0431,-0.8015 3.0026,-1.3337 3.4644,-1.8727 6.4442,-4.5255 8.7078,-7.7484 2.2635,-3.2229 3.7472,-6.9277 4.3332,-10.821 1.0293,-5.8375 0.1537,-11.851 -2.4941,-17.155 2.8115,-6.3537 2.2243,-14.216996 -1.9533,-22.062996 -1.9967,-3.7538 -5.0883,-6.8117 -8.864,-8.7682 -1.259,-7.3337 -6.1228,-14.58 -13.289,-20.168 a 0.7943,0.7943 0 0 0 0.18636,-0.48629 l -0.0619,-6.568 c -0.0213,-2.2624 -1.8889,-4.0965 -4.1513,-4.0761 l -9.8064,0.0896 c -0.46762,-2.4916 -1.1411,-4.9622 -2.0262,-7.3903 l 8.4204,-4.9632 a 0.7943,0.7943 0 0 0 0.003,-0.0036 c 1.9492,-1.1508 2.6,-3.6848 1.4486,-5.6337 l -4.359,-7.3933 a 0.7943,0.7943 0 0 0 0,-7.36e-4 0.7943,0.7943 0 0 0 0,-7.36e-4 0.7943,0.7943 0 0 0 0,-7.37e-4 0.7943,0.7943 0 0 0 0,-7.36e-4 c -0.74636,-1.2646 -2.1148,-2.0362 -3.5832,-2.0226 -0.72201,0.0066 -1.4286,0.20373 -2.0506,0.57035 l -8.4071,4.9581 c -1.6954,-1.9571 -3.53,-3.7492 -5.4856,-5.3695 l 4.8056,-8.5074 a 0.7943,0.7943 0 0 0 0,-7.36e-4 0.7943,0.7943 0 0 0 0,-7.37e-4 0.7943,0.7943 0 0 0 0,-7.36e-4 0.7943,0.7943 0 0 0 0,-7.36e-4 c 1.1118,-1.9698 0.41216,-4.4896 -1.5569,-5.6027996 l -7.4736,-4.2228 c -0.62868,-0.35488 -1.3412,-0.54027 -2.0631,-0.53344 -1.4682,0.01387 -2.8206,0.81301 -3.5434,2.0911 l -4.8336,8.5529996 c -2.4139,-0.83542 -4.8875,-1.4818 -7.4053,-1.9202 L 82.88517,4.0731044 c -0.02169,-2.262 -1.8884,-4.09360004 -4.1505,-4.07320004 z M 72.1429,17.262144 c 0.10833,0.01493 0.21059,0.04693 0.30431,0.1024 0.18746,0.11093 0.30766,0.31701 0.33821,0.53056 l 0.81935,5.7236 c 0.09493,0.66464 -0.12882,1.2701 -0.63293,1.6881 -0.50405,0.41792 -1.2543,0.67371 -2.2466,0.81568 l -2.2613,0.32277 c -0.98685,0.14112 -1.7779,0.10763 -2.38,-0.15179 -0.60201,-0.25941 -0.99016,-0.77718 -1.0853,-1.4427 l -0.27041,-1.8958 c -0.09589,-0.6704 0.13073,-1.2774 0.63588,-1.6969 0.50512,-0.41952 1.2531,-0.67456 2.2399,-0.81568 l 3.6738,-0.52757 -0.25124,-1.7684 c -0.03093,-0.21696 0.02848,-0.45056 0.17978,-0.6079 0.15122,-0.15733 0.35928,-0.23669 0.59535,-0.2704 0.11802,-0.01707 0.23277,-0.02027 0.34114,-0.0059 z m 6.0471,0.22325 c 0.10898,-0.0089 0.22286,8e-4 0.34115,0.0224 0.2366,0.04267 0.44513,0.12405 0.59241,0.28811 0.1474,0.16405 0.19429,0.40182 0.15551,0.6175 l -0.67051,3.7106 6.3382,1.1384 0.66755,-3.707 c 0.03876,-0.21557 0.16828,-0.42293 0.36546,-0.52459 0.19718,-0.10133 0.41973,-0.1056 0.66092,-0.06187 0.23659,0.04267 0.44171,0.12235 0.58652,0.28811 0.1447,0.16576 0.18705,0.40224 0.14883,0.61451 l -1.2408,6.8841 c -0.03876,0.21557 -0.16508,0.42229 -0.36033,0.52459 -0.19523,0.1024 -0.41769,0.10453 -0.65429,0.06187 -0.23659,-0.04267 -0.44219,-0.12117 -0.58944,-0.28512 -0.14741,-0.16405 -0.19359,-0.40181 -0.15473,-0.61749 l 0.30654,-1.7035 -7.2747,-1.3123 c -0.21302,-0.0384 -0.39928,-0.1072 -0.54008,-0.25131 -0.14074,-0.14411 -0.19973,-0.36768 -0.16431,-0.56438 l 0.81271,-4.5108 c 0.03872,-0.21557 0.16802,-0.42229 0.36325,-0.52459 0.09771,-0.0512 0.2013,-0.07787 0.31021,-0.08747 z m -6.7014,3.9088 -3.7077,0.53056 c -0.52515,0.07467 -0.89069,0.2048 -1.0853,0.34187 -0.19464,0.13717 -0.23923,0.23392 -0.21147,0.42805 l 0.27631,1.9143 c 0.02667,0.18667 0.09355,0.27157 0.31979,0.34997 0.22624,0.07893 0.6142,0.10027 1.1384,0.02453 l 2.3298,-0.33227 c 0.5242,-0.07467 0.89087,-0.20544 1.0861,-0.34411 0.19523,-0.13867 0.23742,-0.2384 0.21072,-0.42517 z m -11.777,1.7161 c 0.59689,0.04267 1.0927,0.38293 1.4022,0.93355 l 1.0861,1.9327 c 0.29602,0.52672 0.32277,1.1043 0.05524,1.6136 -0.26751,0.50934 -0.7859,0.95158 -1.5326,1.3712 l -3.0681,1.7249 c -0.73071,0.41067 -1.3611,0.62347 -1.9201,0.59904 -0.55902,-0.02453 -1.0287,-0.32726 -1.3123,-0.8319 l -0.31683,-0.56437 c -0.28128,-0.50048 -0.29472,-1.0595 -0.02432,-1.5481 0.27039,-0.48854 0.77977,-0.91414 1.5105,-1.3248 l 3.8875,-2.1839 c -0.06293,-0.06187 -0.1107,-0.13952 -0.23579,-0.13995 -0.18535,-7.05e-4 -0.48431,0.0896 -0.86578,0.30432 l -1.3896,0.78176 c -0.19517,0.10964 -0.39657,0.17397 -0.60493,0.14293 -0.20838,-0.03093 -0.3877,-0.17824 -0.49,-0.36032 -0.10229,-0.18197 -0.13454,-0.40853 -0.05611,-0.60491 0.07851,-0.19637 0.23633,-0.33835 0.434,-0.4495 l 1.3904,-0.78176 c 0.77688,-0.43659 1.4537,-0.65675 2.0506,-0.61451 z m 31.924,0.76629 c 0.65661,-0.0256 1.4077,0.22613 2.2864,0.71989 l 3.4159,1.9202 c 0.20158,0.11328 0.36405,0.25419 0.44653,0.45312 0.0825,0.19904 0.0533,0.43531 -0.0523,0.62336 -0.10558,0.18805 -0.29258,0.3361 -0.50546,0.36917 -0.21289,0.03307 -0.41957,-0.03307 -0.62114,-0.14592 l -3.4527,-1.9386 c -0.4625,-0.25995 -0.83269,-0.38176 -1.0706,-0.39125 -0.23792,-0.0095 -0.33201,0.03947 -0.4281,0.21077 l -0.94607,1.6881 c -0.0925,0.16448 -0.0913,0.27168 0.0405,0.47157 0.13184,0.19989 0.42844,0.45387 0.89008,0.71328 l 3.4535,1.9423 c 0.19917,0.1119 0.36084,0.24683 0.44652,0.44352 0.0855,0.19669 0.0592,0.43606 -0.0464,0.62411 -0.10558,0.18805 -0.29258,0.33611 -0.50546,0.36918 -0.2129,0.03307 -0.41957,-0.03307 -0.62113,-0.14592 l -3.4152,-1.9172 c -0.87862,-0.49376 -1.4858,-1.0071 -1.806,-1.5797 -0.32018,-0.57259 -0.31052,-1.2169 0.01837,-1.8023 l 0.93724,-1.666 c 0.33134,-0.58965 0.87891,-0.9359 1.5355,-0.9616 z m -31.437,2.097 -3.8691,2.1722 c -0.36264,0.20384 -0.58552,0.40117 -0.67934,0.54603 -0.09387,0.14485 -0.09387,0.20192 -0.02796,0.31904 l 0.28882,0.51211 c 0.06976,0.12405 0.1196,0.15573 0.29178,0.15179 0.1722,-0.0041 0.45891,-0.09067 0.82156,-0.29472 l 2.9289,-1.6468 c 0.37203,-0.20907 0.60052,-0.41333 0.69482,-0.56512 0.0944,-0.15179 0.09547,-0.22389 0.01589,-0.36619 z m 43.012,2.1405 c 0.21484,0.03627 0.39607,0.16693 0.55484,0.34485 0.15885,0.17792 0.26799,0.37195 0.27925,0.58944 0.0114,0.21749 -0.0962,0.4304 -0.25715,0.57397 l -1.3344,1.1878 2.4728,2.7705 c 0.66741,0.74784 1.0735,1.4269 1.1885,2.0727 0.11498,0.64576 -0.10682,1.2532 -0.61156,1.7035 l -2.4477,2.1869 c -0.16347,0.14581 -0.38926,0.23029 -0.60495,0.19232 -0.21567,-0.0384 -0.39194,-0.17184 -0.54892,-0.34773 -0.16006,-0.17931 -0.2739,-0.36949 -0.28882,-0.58944 -0.0143,-0.21995 0.0974,-0.43701 0.26083,-0.58283 l 2.4632,-2.1994 c 0.1436,-0.12811 0.17479,-0.22869 0.12088,-0.44725 -0.054,-0.21856 -0.23677,-0.53472 -0.5703,-0.90848 l -2.5472,-2.8545 -2.8883,2.5781 c -0.16347,0.14581 -0.38926,0.2303 -0.60494,0.19232 -0.21568,-0.0384 -0.39267,-0.17184 -0.54965,-0.34774 -0.15694,-0.17589 -0.26885,-0.36427 -0.28221,-0.58283 -0.0127,-0.21856 0.0974,-0.43477 0.26083,-0.58059 l 5.3361,-4.7621 c 0.16091,-0.14357 0.3842,-0.22528 0.59901,-0.18933 z m -53.432,1.7065 c 0.3927,-0.016 0.77193,0.12363 1.0846,0.40373 l 0.94682,0.84363 c 0.14788,0.13259 0.24655,0.33622 0.2321,0.53643 -0.01429,0.20021 -0.1158,0.37013 -0.25421,0.52459 l -4.1107,4.5853 0.30431,0.27339 c 0.1293,0.11584 0.21516,0.13312 0.41851,0.05547 0.20335,-0.07787 0.49693,-0.29589 0.83188,-0.66976 l 1.1163,-1.2476 c 0.14947,-0.16672 0.31736,-0.29376 0.52461,-0.33152 0.20726,-0.03733 0.42436,0.04373 0.57987,0.18272 0.15551,0.13931 0.2603,0.34837 0.24537,0.55851 -0.01429,0.21013 -0.12025,0.3888 -0.26968,0.55552 l -1.12,1.2467 c -0.6308,0.704 -1.2233,1.1613 -1.8185,1.3432 -0.59513,0.18187 -1.1964,0.0448 -1.6718,-0.38091 l -1.6505,-1.4803 c -0.45072,-0.40384 -0.66154,-0.94635 -0.574,-1.5171 0.08757,-0.57077 0.4337,-1.1583 1.0021,-1.7927 l 2.181,-2.4359 c 0.5553,-0.61974 1.0793,-1.0226 1.607,-1.1848 0.132,-0.04053 0.26404,-0.06293 0.39495,-0.06827 z m -0.09653,1.7522 c -0.05739,-0.01387 -0.11771,-0.0062 -0.19896,0.0192 -0.1625,0.05013 -0.40335,0.21664 -0.67934,0.52459 l -2.0756,2.3173 c -0.284,0.31691 -0.4301,0.58123 -0.46567,0.75371 -0.03563,0.17248 -0.0064,0.24875 0.12739,0.36918 l 0.28515,0.25792 3.4748,-3.8779 -0.28882,-0.25419 c -0.06796,-0.0608 -0.12168,-0.096 -0.17905,-0.10976 z m 24.337,0.46709 c 9.9333,-0.37632 19.688,4.5888 25.14,13.832 1.3037,2.2106 2.2421,4.5276 2.8935,6.8863 -0.74374,0.096 -1.4875,0.19669 -2.2274,0.33451 -9.6974,-4.7891 -20.936,-6.9649 -31.717,-6.683 -6.7465,0.17643 -13.314,1.3163 -19.213,3.3798 2.215,-5.5825 6.2269,-10.506 11.856,-13.826 4.2016,-2.478 8.7536,-3.7526 13.269,-3.9236 z m -34.318,5.9971 c 0.11008,0.002 0.22065,0.0288 0.31904,0.0768 l 6.2917,3.0836 c 0.19977,0.09813 0.36088,0.28277 0.40305,0.49952 0.04224,0.21675 -0.01589,0.43253 -0.12088,0.64843 -0.10368,0.21173 -0.24021,0.38645 -0.43768,0.48117 -0.19744,0.09493 -0.4362,0.07467 -0.63293,-0.0224 l -2.4293,-1.1914 -2.7793,5.6713 2.4323,1.1914 c 0.19673,0.096 0.35922,0.27616 0.40303,0.49365 0.04384,0.21749 -0.01269,0.43126 -0.12087,0.65131 -0.10368,0.21174 -0.24021,0.38571 -0.43766,0.48043 -0.19746,0.09493 -0.43622,0.07467 -0.63294,-0.02133 l -6.2822,-3.0776 c -0.19974,-0.09813 -0.36198,-0.28405 -0.40303,-0.50251 -0.04096,-0.21845 0.01888,-0.43424 0.12675,-0.6543 0.10368,-0.21173 0.2392,-0.38635 0.43767,-0.47819 0.19848,-0.09173 0.43261,-0.064 0.6263,0.03093 l 2.5104,1.229 2.7793,-5.6713 -2.5221,-1.2349 c -0.19366,-0.09493 -0.35334,-0.27168 -0.39715,-0.48406 -0.04384,-0.21248 0.01104,-0.42411 0.115,-0.63584 0.10581,-0.21589 0.2396,-0.39275 0.434,-0.49291 0.09717,-0.05013 0.20747,-0.07253 0.31758,-0.0704 z m 68.645,1.9953 c 0.27509,0.01387 0.54271,0.09813 0.78624,0.25269 0.48694,0.31019 0.8865,0.86283 1.2378,1.6387 l 1.3491,2.9812 c 0.34325,0.75798 0.50198,1.3969 0.43765,1.9452 -0.064,0.54837 -0.39263,0.99147 -0.9026,1.2224 l -1.1576,0.52096 c -0.181,0.08213 -0.40244,0.09067 -0.57984,-0.0029 -0.17738,-0.09387 -0.29312,-0.25451 -0.37866,-0.44352 l -2.5376,-5.6094 -0.3728,0.17099 c -0.1582,0.07147 -0.20893,0.14208 -0.21958,0.35958 -0.0115,0.21749 0.0685,0.57291 0.27559,1.0301 l 0.69184,1.523 c 0.0917,0.20395 0.14261,0.4096 0.0939,0.61451 -0.0491,0.20491 -0.21353,0.37291 -0.40384,0.45899 -0.19018,0.0864 -0.42154,0.09813 -0.60787,0 -0.18632,-0.09813 -0.30775,-0.27061 -0.4001,-0.47456 l -0.69218,-1.5267 c -0.38993,-0.86102 -0.57013,-1.5874 -0.49663,-2.2053 0.0735,-0.61792 0.44269,-1.1109 1.0242,-1.3742 l 2.0196,-0.91584 v 7.36e-4 c 0.27563,-0.1248 0.5583,-0.18069 0.8334,-0.16651 z m 0.0341,1.7441 c -0.0587,-0.0059 -0.12117,0.0107 -0.2033,0.048 l -0.35072,0.15765 2.1471,4.7437 0.34997,-0.15765 c 0.16619,-0.07573 0.21654,-0.14475 0.23574,-0.31392 0.0192,-0.16907 -0.0373,-0.4544 -0.20779,-0.83115 l -1.2843,-2.8353 c -0.17558,-0.38773 -0.35605,-0.62443 -0.49952,-0.72651 -0.0716,-0.0512 -0.12789,-0.07893 -0.1872,-0.08427 z m -37.52,14.396 c 5.7916,0.04267 11.494,0.80086 16.432,2.1471 -3.1349,2.1469 -5.9027,4.7856 -8.1964,7.8147 -1.4447,1.8996 -2.6602,3.9631 -3.6215,6.1473 -4.0346,4.94 -12.533,5.2901 -17.886,1.2872 l -4.7658,3.2715 c 5.0512,8.6252 14.074,9.0547 20.793,7.0374 1.0444,5.945 4.1072,11.348 8.6724,15.296 l 5.2418,-4.7658 c -3.1928,-5.3848 -7.3858,-13.676 -0.84146,-22.444 2.7162,-3.6534 14.582,-14.248 32.181,-7.4176 7.2115,2.7869 13.23,7.9916 17.028,14.725 -0.74656,-0.048 -1.4775,-0.12747 -2.2399,-0.12747 -5.353,-0.0896 -10.661,0.99478 -15.551,3.1772 -2.3239,-0.59968 -4.4124,-1.8914 -5.9867,-3.704 -1.5743,-1.8126 -2.5604,-4.0606 -2.8287,-6.4465 l -5.8614,0.54005 c -0.57597,2.9499 -0.3558,6.0003 0.63809,8.8367 0.99387,2.8365 2.7251,5.3567 5.0163,7.3019 -2.6613,2.9386 -4.6456,6.4253 -5.8136,10.214 l 5.9408,2.843396 c 4.0822,-7.354396 14.184,-12.993996 24.096,-12.993996 h 0.25418 c 3.9552,0.048 11.088,1.033 14.392,7.2437 2.9545,5.543596 3.3194,10.705996 0.98444,14.184996 -2.0808,3.1292 -6.0678,4.6543 -10.96,4.1778 l -1.1598,7.7035 c 2.2206,1.1723 4.6926,1.7853 7.2039,1.7853 2.5059,0 4.9715,-0.6113 7.1884,-1.7787 0.40863,2.1471 0.43583,4.3497 0.0789,6.5062 -0.35744,2.3429 -1.2468,4.573 -2.6017,6.5172 -1.355,1.9442 -3.1393,3.552 -5.2138,4.6972 -5.4166,2.9862 -13.613,1.4928 -19.061,-3.4631 -3.5263,-3.2086 -8.6255,-10.483 -3.1772,-23.048 l -7.7676,-3.0659 c -5.2736,9.9436 -5.6546,18.982 -1.7153,26.464 -16.504,-1.3502 -25.256,1.3179 -37.312,5.003 -7.958,2.4939 -15.742,6.2425 -19.888,0 -2.875,-4.3682 -4.6541,-8.7047 0,-13.692 12.946,-13.867 27.226,-3.3515 41.172,-9.8005 l -1.7472,-6.3536 c -9.5147,1.4296 -19.729,-0.4288 -28.862,0.50837 l 0.58799,-11.993 -5.4326,0.23797 -5.4326,14.63 c -3.0901,1.6774 -5.7447,4.0539 -7.7514,6.9417 -2.7365,3.4692 -4.4677,7.6223 -5.0038,12.008 -10.341,2.0014 -16.011,-0.84178 -17.743,-6.3536 l 3.3039,-10.833 -3.6532,-3.0814 -11.119,8.657 c -4.1458,0.27007 -8.5457,-0.42901 -11.421,-3.3835 -3.6217,-3.7169 -4.4796,-10.642 -2.2717,-18.314 2.8751,-9.975296 10.722,-20.887996 26.607,-27.447996 -0.43092,2.0909 -0.65485,4.2189 -0.66755,6.3536 0.0064,2.6962 0.42946,5.3753 1.2548,7.9422 l -5.0509,13.215996 5.1622,2.5096 5.1629,-6.576096 c 2.67,2.873 6.1381,4.880696 9.9589,5.765596 l 3.4793,-6.750796 c -5.9884,-1.3978 -10.436,-10.357 -10.436,-16.027 -0.13216,-3.5117 0.69388,-6.9927 2.3895,-10.071 1.6958,-3.0781 4.1973,-5.6366 7.2363,-7.4014 7.0288,-4.5072 16.93,-6.427 26.583,-6.3566 z m 39.592,84.323996 a 0.41013,0.41512 25.742 0 1 0.10558,0.0181 l 1.0338,0.32117 a 0.41013,0.41512 25.742 0 1 0.26816,0.51723 l -0.49002,1.5598 c 0.28192,0.17525 0.54453,0.39051 0.77888,0.64694 0.23445,0.25653 0.42592,0.53845 0.57621,0.83627 l 1.582,-0.36544 a 0.41013,0.41512 25.742 0 1 0.10693,-0.0101 0.41013,0.41512 25.742 0 1 0.3824,0.32128 l 0.23287,1.0647 a 0.41013,0.41512 25.742 0 1 -0.31319,0.49665 l -1.5864,0.36618 c -0.0256,0.67713 -0.22783,1.3489 -0.60277,1.9364 l 1.0912,1.1936 a 0.41013,0.41512 25.742 0 1 -0.0267,0.58507 l -0.80097,0.74496 a 0.41013,0.41512 25.742 0 1 -0.58059,-0.0213 l -1.092,-1.1944 c -0.61109,0.32854 -1.291,0.47692 -1.9622,0.448 l -0.49141,1.565 a 0.41013,0.41512 25.742 0 1 -0.51584,0.27413 l -1.0345,-0.32053 a 0.41013,0.41512 25.742 0 1 -0.26677,-0.51723 l 0.49002,-1.5606 c -0.28214,-0.17527 -0.54507,-0.38967 -0.77951,-0.6462 -0.23447,-0.25653 -0.42591,-0.53855 -0.57619,-0.83627 l -1.582,0.36545 a 0.41013,0.41512 25.742 0 1 -0.48925,-0.31093 l -0.23284,-1.0655 a 0.41013,0.41512 25.742 0 1 0.31314,-0.4959 l 1.5864,-0.36619 c 0.026,-0.67711 0.22864,-1.3481 0.60345,-1.9356 l -1.0924,-1.1952 a 0.41013,0.41512 25.742 0 1 0.0266,-0.5858 l 0.80092,-0.74421 a 0.41013,0.41512 25.742 0 1 0.29621,-0.11054 0.41013,0.41512 25.742 0 1 0.28512,0.13184 l 1.0905,1.1937 c 0.61143,-0.32907 1.2914,-0.47701 1.9629,-0.448 l 0.49141,-1.5643 a 0.41013,0.41512 25.742 0 1 0.41046,-0.29259 z m -19.52,2.0904 a 0.99625,0.99625 0 0 1 0.85249,0.62997 l 1.0758,2.7469 c 0.94001,-0.13226 1.9063,-0.11915 2.8648,0.0501 l 1.1789,-2.6975 a 0.99625,0.99625 0 0 1 0.87608,-0.59607 0.99625,0.99625 0 0 1 0.43548,0.0821 l 2.111,0.92246 a 0.99625,0.99625 0 0 1 0.51356,1.3123 l -1.1792,2.698 c 0.77494,0.58858 1.4409,1.2885 1.9821,2.0682 l 2.7469,-1.0758 a 0.99625,0.99625 0 0 1 0.43842,-0.0651 0.99625,0.99625 0 0 1 0.85248,0.62996 l 0.83998,2.1449 a 0.99625,0.99625 0 0 1 -0.56438,1.2909 l -2.7462,1.0758 c 0.13247,0.94005 0.11913,1.9063 -0.05,2.8648 l 2.6968,1.1789 a 0.99625,0.99625 0 0 1 0.51432,1.3116 l -0.92254,2.111 a 0.99625,0.99625 0 0 1 -1.3123,0.5136 l -2.6976,-1.1795 c -0.5886,0.77493 -1.2884,1.4409 -2.0683,1.982 l 1.0758,2.7469 a 0.99625,0.99625 0 0 1 -0.56441,1.2909 l -2.1449,0.84 a 0.99625,0.99625 0 0 1 -1.2909,-0.56443 l -1.0765,-2.7469 c -0.93979,0.13227 -1.9059,0.11894 -2.864,-0.0501 l -1.1789,2.6975 a 0.99625,0.99625 0 0 1 -1.3116,0.51435 l -2.111,-0.92322 a 0.99625,0.99625 0 0 1 -0.51429,-1.3115 l 1.1797,-2.6975 c -0.77494,-0.58858 -1.4409,-1.2885 -1.9821,-2.0683 l -2.7469,1.0758 a 0.99625,0.99625 0 0 1 -1.2909,-0.56438 l -0.83998,-2.1456 a 0.99625,0.99625 0 0 1 0.5644,-1.2902 l 2.7469,-1.0758 c -0.13246,-0.94037 -0.11991,-1.9067 0.04935,-2.8655 l -2.6975,-1.1789 a 0.99625,0.99625 0 0 1 -0.51357,-1.3115 l 0.92323,-2.111 a 0.99625,0.99625 0 0 1 0.87609,-0.59605 0.99625,0.99625 0 0 1 0.43547,0.0821 l 2.6975,1.1797 c 0.5887,-0.77515 1.2883,-1.4416 2.0683,-1.9828 l -1.0758,-2.7459 a 0.99625,0.99625 0 0 1 0.56443,-1.291 l 2.1449,-0.84074 a 0.99625,0.99625 0 0 1 0.4384,-0.0661 z m 30.868,0.74784 c 0.3106,0.001 0.6178,0.0629 0.92693,0.0917 0.54634,0.11211 1.3824,-0.0459 1.5297,0.67501 -0.0544,0.92032 -0.20662,1.8358 -0.2992,2.7542 1.1456,0.42486 2.1684,1.1782 2.9053,2.1537 l 2.3298,-1.005 c 0.76287,-0.34176 1.0115,0.52737 1.2334,1.047 0.17568,0.52919 0.73035,1.1728 0.17984,1.6608 -0.82229,0.41079 -1.6872,0.7375 -2.5266,1.1148 0.20437,1.2056 0.0501,2.4669 -0.42667,3.592 0.73216,0.56202 1.5002,1.0815 2.2083,1.6719 0.40118,0.51467 -0.14379,0.99158 -0.42368,1.3962 -0.40225,0.46656 -0.74432,1.3781 -1.5326,0.94465 l -2.0778,-1.5474 c -0.93952,0.78497 -2.1088,1.2896 -3.3245,1.4346 -0.096,0.82263 -0.19147,1.645 -0.28735,2.4676 -0.0404,0.8273 -0.91959,0.69556 -1.4774,0.6049 -0.6049,-0.11498 -1.5645,0.0437 -1.5834,-0.85471 l 0.30133,-2.5804 c -1.1458,-0.42485 -2.1684,-1.1788 -2.9053,-2.1545 l -2.2812,0.98443 c -0.78507,0.3888 -1.0618,-0.49185 -1.2828,-1.0257 -0.20117,-0.56575 -0.79561,-1.2979 -0.0299,-1.75 0.79253,-0.34185 1.5852,-0.68373 2.3777,-1.0256 -0.20449,-1.2056 -0.0502,-2.4669 0.42668,-3.592 l -2.0418,-1.5193 c -0.70208,-0.56266 0.0171,-1.1886 0.35223,-1.677 0.3522,-0.44587 0.74207,-1.2633 1.4375,-0.81644 l 2.0778,1.5466 c 0.93962,-0.78474 2.109,-1.289 3.3246,-1.4339 0.0587,-0.50709 0.11851,-1.0145 0.1776,-1.5215 0.12597,-0.59073 -0.0597,-1.4482 0.71178,-1.6365 z m -12.362,0.9247 c -0.47829,-0.0171 -0.9648,0.15223 -1.3521,0.51211 -0.77463,0.71989 -0.82795,1.9016 -0.12086,2.6754 0.7072,0.77376 1.8794,0.81631 2.654,0.0971 0.77462,-0.7199 0.82795,-1.9017 0.12086,-2.6754 -0.3536,-0.38688 -0.82367,-0.59125 -1.302,-0.60864 z m 12.242,4.6309 c -2.0142,-0.0101 -3.832,1.6355 -3.9737,3.6524 -0.24833,2.1979 1.6091,4.3495 3.8307,4.376 2.2084,0.14262 4.2672,-1.8178 4.1844,-4.0392 0.0331,-2.1444 -1.8935,-4.0641 -4.0415,-3.9892 z m -27.504,0.65356 c -2.1468,-0.032 -4.1867,1.2031 -5.1069,3.3083 -1.227,2.807 0.03347,6.0255 2.8405,7.2526 2.807,1.227 6.0248,-0.0331 7.2518,-2.8405 1.227,-2.807 -0.0335,-6.0248 -2.8404,-7.2518 -0.70176,-0.30678 -1.4293,-0.45803 -2.1449,-0.46859 z m 57.692,1.8848 c -0.11329,0.001 -0.23573,0.0501 -0.31093,0.13993 -0.0757,0.0896 -0.10355,0.20033 -0.11121,0.31607 -0.0101,0.12544 0.008,0.24693 0.08,0.35072 0.0725,0.10355 0.19893,0.15969 0.31978,0.168 0.12075,0.008 0.2544,-0.0299 0.34112,-0.1215 0.0864,-0.0917 0.11883,-0.20789 0.12758,-0.33152 0.0101,-0.12586 -0.008,-0.25003 -0.0811,-0.3537 -0.0736,-0.10355 -0.19819,-0.15969 -0.31905,-0.168 -0.016,-0.001 -0.0331,-2e-4 -0.0459,0 z m -1.5392,1.9202 v 7.3e-4 c -0.24385,0.0101 -0.46529,0.13738 -0.61749,0.3441 -0.15221,0.20662 -0.25141,0.4847 -0.31904,0.83776 l -0.1614,0.8591 c -0.0769,0.40352 -0.0821,0.73227 0.0181,0.99915 0.1013,0.26688 0.33194,0.4544 0.6175,0.50912 l 0.75083,0.14218 c 0.28393,0.0544 0.56521,-0.0341 0.75668,-0.24458 0.19148,-0.21067 0.30742,-0.5183 0.38465,-0.92182 l 0.16427,-0.85909 c 0.0768,-0.40364 0.0821,-0.73259 -0.0181,-0.99915 -0.10028,-0.26656 -0.32705,-0.45472 -0.61089,-0.50912 l -0.7538,-0.14219 c -0.0725,-0.0139 -0.14293,-0.0181 -0.21141,-0.016 z m -0.007,0.85983 c 0.0128,-0.005 0.0277,-10e-4 0.0533,0.003 l 0.75969,0.14581 c 0.0491,0.0101 0.0533,0.008 0.0747,0.0811 0.0213,0.0725 0.0256,0.22123 -0.0128,0.42516 l -0.17025,0.89004 c -0.0384,0.20138 -0.096,0.33471 -0.14293,0.39423 -0.0469,0.0597 -0.0533,0.0556 -0.10242,0.0469 l -0.75968,-0.14293 c -0.0533,-0.0101 -0.0544,-0.0117 -0.0747,-0.0843 -0.0213,-0.0725 -0.0256,-0.21643 0.0128,-0.41846 l 0.17024,-0.89013 c 0.0395,-0.20447 0.0971,-0.34122 0.14294,-0.40085 0.0236,-0.0299 0.0352,-0.0437 0.0491,-0.0491 z m -2.1677,2.8729 c -0.16373,0.003 -0.2912,0.13728 -0.34709,0.27628 l -0.64544,1.61 c -0.1696,0.4224 -0.23958,0.78357 -0.17686,1.0949 0.0629,0.31136 0.28033,0.55521 0.58944,0.67936 l 1.3057,0.5246 c 0.3136,0.12596 0.64511,0.0971 0.90921,-0.0864 0.26423,-0.18433 0.46668,-0.496 0.63883,-0.92471 l 0.6366,-1.5879 c 0.0373,-0.0928 0.0565,-0.19455 0.0245,-0.29846 -0.032,-0.10355 -0.12086,-0.18773 -0.21664,-0.22624 -0.0949,-0.0384 -0.21899,-0.0404 -0.31392,0.0129 -0.0949,0.0533 -0.15221,0.14016 -0.18933,0.23286 l -0.62635,1.5665 c -0.1013,0.25151 -0.21323,0.40481 -0.30133,0.47158 -0.0884,0.0672 -0.14198,0.0747 -0.2512,0.0309 l -1.2843,-0.515 c -0.10445,-0.0416 -0.13547,-0.0822 -0.15189,-0.18571 -0.016,-0.10355 0.0117,-0.28127 0.10558,-0.51797 l 0.64257,-1.6011 c 0.0373,-0.0928 0.0564,-0.19382 0.0245,-0.29772 -0.032,-0.10355 -0.12085,-0.18848 -0.21666,-0.22698 -0.048,-0.0192 -0.10028,-0.032 -0.15551,-0.0309 z m -2.0692,6.5025 c -0.34475,0.0213 -0.66614,0.25514 -0.99915,0.64245 l -0.56811,0.66389 c -0.26645,0.30987 -0.43563,0.59328 -0.48043,0.87456 -0.0448,0.28128 0.0619,0.5552 0.28226,0.74497 l 0.99615,0.8562 c 0.0789,0.0671 0.19669,0.11121 0.30645,0.0896 0.10997,-0.0213 0.19275,-0.0885 0.2608,-0.16725 0.0683,-0.0789 0.12267,-0.17131 0.12757,-0.28288 0.005,-0.11167 -0.0556,-0.22038 -0.13344,-0.28812 l -0.99573,-0.8562 c -0.0437,-0.0373 -0.048,-0.0427 -0.0309,-0.115 0.0171,-0.0725 0.0896,-0.20063 0.22326,-0.35657 l 0.58943,-0.68598 c 0.13569,-0.15776 0.25313,-0.248 0.32277,-0.27626 0.0693,-0.0277 0.0716,-0.0245 0.115,0.0128 l 0.99616,0.85622 c 0.0789,0.0671 0.19669,0.11109 0.30656,0.0896 0.10997,-0.0213 0.18975,-0.0884 0.25791,-0.168 0.0683,-0.0789 0.12267,-0.17067 0.12737,-0.28224 0.005,-0.11155 -0.0556,-0.22389 -0.13408,-0.29173 l -0.99542,-0.85622 c -0.16554,-0.14229 -0.36714,-0.2176 -0.57397,-0.2048 z m -3.1772,3.2332 c -0.28373,0.0309 -0.57772,0.18261 -0.90262,0.43392 l -0.69184,0.53345 c -0.32491,0.25151 -0.54474,0.49653 -0.64544,0.7633 -0.10028,0.26688 -0.0501,0.5584 0.12757,0.78838 l 0.4686,0.6049 c 0.17695,0.2287 0.44575,0.3472 0.72873,0.31606 0.283,-0.0309 0.57483,-0.18251 0.89963,-0.43403 l 0.69184,-0.53418 c 0.32491,-0.25142 0.54433,-0.49653 0.64544,-0.76257 0.1013,-0.26613 0.0523,-0.5568 -0.12458,-0.7855 l -0.46785,-0.6049 c -0.17813,-0.23009 -0.44554,-0.34977 -0.72948,-0.31905 z m 0.008,0.80683 c 0.0139,0.005 0.0224,0.016 0.0384,0.0373 l 0.47157,0.61088 c 0.0309,0.0395 0.0363,0.0427 0.003,0.112 -0.032,0.0693 -0.12757,0.18016 -0.29184,0.30731 l -0.71692,0.55478 c -0.16224,0.12553 -0.29184,0.18816 -0.36617,0.20192 -0.0747,0.0139 -0.0779,0.0117 -0.1084,-0.0277 l -0.47445,-0.6145 c -0.0331,-0.0427 -0.0352,-0.0437 -0.003,-0.11121 0.032,-0.0672 0.12607,-0.17836 0.28884,-0.30433 l 0.71616,-0.55489 c 0.1647,-0.12735 0.29803,-0.19071 0.37207,-0.2048 h 7.2e-4 c 0.0373,-0.008 0.0564,-0.0101 0.0704,-0.007 z m -3.945,0.91147 c -0.1166,-0.0181 -0.22305,0.0203 -0.3198,0.0779 -0.0981,0.0587 -0.18347,0.13344 -0.22325,0.24533 -0.0395,0.112 -0.0128,0.23797 0.0437,0.33227 0.0555,0.0939 0.15233,0.17941 0.26966,0.19818 0.0832,0.0128 0.15616,-0.0245 0.22987,-0.0565 -0.0556,0.0459 -0.11617,0.0875 -0.14293,0.1584 -0.0395,0.10355 -0.0213,0.22731 0.0309,0.31616 l 0.95275,1.6041 c 0.0533,0.0896 0.14997,0.16864 0.2608,0.18347 0.11087,0.0138 0.21078,-0.0213 0.30059,-0.0747 0.0896,-0.0533 0.16736,-0.12266 0.20779,-0.22687 0.0404,-0.10445 0.0191,-0.22966 -0.0341,-0.31904 l -0.94977,-1.6041 c -0.0523,-0.0884 -0.14998,-0.1647 -0.26007,-0.18049 -0.0747,-0.0117 -0.14036,0.0236 -0.20777,0.0501 0.0619,-0.0491 0.12895,-0.0949 0.15775,-0.17385 0.0405,-0.11077 0.0171,-0.23905 -0.0395,-0.33526 -0.0576,-0.0971 -0.16011,-0.17739 -0.27627,-0.19531 z m -2.4676,1.4596 c -0.0523,0.0101 -0.10242,0.0288 -0.15104,0.0512 -0.0949,0.0469 -0.18027,0.11245 -0.22625,0.21365 -0.0459,0.10129 -0.032,0.22347 0.0129,0.31391 l 0.0991,0.20406 c -0.0875,0.0427 -0.16768,0.10242 -0.2144,0.19894 -0.0469,0.0971 -0.0373,0.22026 0.007,0.31017 0.0437,0.0896 0.13344,0.17216 0.23872,0.1952 0.10445,0.0224 0.20128,-0.005 0.28884,-0.0459 l 0.64545,1.3248 c 0.0459,0.0928 0.13824,0.17856 0.24832,0.20192 0.11009,0.0236 0.21131,-0.007 0.30656,-0.0533 0.0928,-0.0448 0.17643,-0.10716 0.224,-0.20779 0.048,-0.10028 0.0363,-0.22358 -0.0101,-0.3168 l -0.64256,-1.3241 0.52759,-0.25791 c 0.0896,-0.0437 0.17248,-0.10445 0.22026,-0.20193 0.048,-0.0971 0.0373,-0.22037 -0.007,-0.31018 -0.0437,-0.0896 -0.13257,-0.17291 -0.23871,-0.1952 -0.10558,-0.0224 -0.20533,0.007 -0.29472,0.0491 l -0.53057,0.25792 -0.0991,-0.2048 c -0.0448,-0.0917 -0.13482,-0.17782 -0.24469,-0.20192 h -7.3e-4 c -0.0544,-0.0128 -0.10738,-0.0117 -0.15914,-0.001 z m -1.5776,1.3727 v 7.2e-4 c -0.0512,0.005 -0.0981,0.0192 -0.14582,0.0363 l -1.4707,0.54604 c -0.38518,0.14293 -0.66773,0.3088 -0.84363,0.53343 -0.1759,0.22475 -0.2161,0.51861 -0.11499,0.79137 l 0.26677,0.7169 c 0.10029,0.27114 0.32246,0.46326 0.60192,0.51797 0.27947,0.0544 0.6015,-0.003 0.98656,-0.14603 l 1.4707,-0.54304 c 0.0971,-0.0363 0.18432,-0.0884 0.24171,-0.18271 0.0576,-0.0939 0.0609,-0.22006 0.0256,-0.3168 -0.0363,-0.0971 -0.12171,-0.19158 -0.227,-0.22326 -0.10557,-0.032 -0.20597,-0.0101 -0.30057,0.0256 l -1.4862,0.54891 a 0.18865,0.18865 0 0 0 0,0.003 c -0.19231,0.0716 -0.3346,0.0896 -0.4097,0.0811 -0.0736,-0.0101 -0.0768,-0.0139 -0.0928,-0.0587 l -0.26966,-0.72651 c -0.0191,-0.0501 -0.0236,-0.0533 0.0277,-0.10839 0.0501,-0.0555 0.17687,-0.13312 0.36993,-0.2048 l 1.4854,-0.5519 c 0.0971,-0.0363 0.18507,-0.0896 0.24246,-0.18346 0.0576,-0.0939 0.0597,-0.21942 0.0245,-0.31606 -0.0267,-0.0725 -0.0778,-0.14197 -0.1488,-0.18646 -0.0716,-0.0448 -0.15595,-0.0597 -0.23211,-0.0533 z m -4.1078,1.4176 v 7.3e-4 c -0.0523,-2e-4 -0.10355,0.009 -0.15553,0.0213 -0.10242,0.0277 -0.19807,0.0757 -0.26378,0.16501 -0.0661,0.0896 -0.0789,0.21366 -0.0523,0.31319 l 0.34112,1.2784 c 0.0128,0.0501 0.0181,0.0512 -0.0363,0.1013 -0.0556,0.0501 -0.18486,0.11733 -0.38539,0.17099 l -0.83115,0.22325 c -0.19819,0.0533 -0.34463,0.0597 -0.41845,0.0437 -0.0736,-0.016 -0.0736,-0.0224 -0.0864,-0.0716 l -0.34112,-1.2747 c -0.0267,-0.0992 -0.10028,-0.20065 -0.20192,-0.24533 -0.1013,-0.0448 -0.20768,-0.0363 -0.31019,-0.0101 -0.10355,0.0277 -0.20107,0.0736 -0.26677,0.16436 -0.0661,0.0907 -0.0757,0.21291 -0.0501,0.31019 l 0.34187,1.2754 c 0.0747,0.27936 0.27349,0.49302 0.54603,0.57397 0.27241,0.0811 0.60064,0.0523 0.99541,-0.0533 l 0.80096,-0.21365 c 0.39275,-0.10445 0.69099,-0.24715 0.88715,-0.45312 0.19616,-0.20599 0.26421,-0.49227 0.18933,-0.77216 l -0.33824,-1.2725 c -0.0203,-0.0747 -0.0629,-0.15008 -0.13045,-0.20191 -0.0672,-0.0523 -0.15413,-0.0736 -0.23285,-0.0747 z m -4.6471,0.14293 c -0.0533,-0.005 -0.10446,-9e-5 -0.15552,0.0101 -0.10355,0.0192 -0.203,0.0608 -0.27627,0.14294 -0.0736,0.0821 -0.10028,0.2065 -0.08,0.31019 l 0.11787,0.62997 -1.3838,0.25717 c -0.39958,0.0747 -0.70753,0.19329 -0.91884,0.38464 -0.2113,0.19136 -0.30122,0.47382 -0.24758,0.76043 l 0.13932,0.75082 c 0.0533,0.28471 0.23977,0.51307 0.5055,0.61452 0.26571,0.1013 0.59659,0.0992 0.99615,0.0245 l 0.89676,-0.16725 c 0.4016,-0.0747 0.71008,-0.19413 0.92106,-0.38464 0.21098,-0.19052 0.30155,-0.46956 0.24831,-0.75382 l -0.42516,-2.2746 c -0.0139,-0.0757 -0.0523,-0.15403 -0.11499,-0.21078 -0.0629,-0.0565 -0.14506,-0.0864 -0.22325,-0.0928 z m -13.062,1.7006 c -0.10885,-0.005 -0.22486,-0.003 -0.347,0.003 l -2.122,0.10895 c -0.0939,0.005 -0.18784,0.0267 -0.26667,0.0928 -0.0789,0.0661 -0.1169,0.18026 -0.112,0.27626 l 0.14294,2.8014 c 0.005,0.10355 0.0544,0.22037 0.14582,0.28512 0.0907,0.0651 0.19637,0.0768 0.30058,0.0716 0.10558,-0.005 0.20874,-0.0277 0.29473,-0.0992 0.0864,-0.0725 0.12916,-0.19446 0.12373,-0.30059 l -0.0341,-0.65131 1.6571,-0.0864 c 0.48737,-0.0245 0.86507,-0.11498 1.1384,-0.30432 0.27329,-0.18934 0.4176,-0.49558 0.4001,-0.83777 l -0.0181,-0.37504 c -0.016,-0.29941 -0.14753,-0.56086 -0.37877,-0.7265 -0.23127,-0.16556 -0.54251,-0.24299 -0.9247,-0.25718 z m 12.807,0.12672 0.17099,0.91221 c 0.0101,0.0501 0.0101,0.0565 -0.0491,0.10242 -0.0597,0.0459 -0.19253,0.10242 -0.39413,0.13995 l -0.92768,0.17387 c -0.20171,0.0373 -0.34677,0.0341 -0.4192,0.0129 -0.0725,-0.0213 -0.0716,-0.0277 -0.08,-0.0779 l -0.14293,-0.76043 c -0.0101,-0.0533 -0.0128,-0.0533 0.0469,-0.0992 0.0597,-0.0459 0.19413,-0.10445 0.39637,-0.14219 z m -4.9824,0.0779 c -0.0928,0.003 -0.19029,0.0129 -0.29185,0.0245 l -0.86506,0.10896 c -0.40767,0.0512 -0.72427,0.15009 -0.94678,0.32864 -0.22249,0.17856 -0.32736,0.45259 -0.29109,0.74122 l 0.096,0.76045 c 0.0363,0.28693 0.20609,0.52554 0.46572,0.64245 0.25951,0.11691 0.59081,0.13451 0.9984,0.0832 l 0.86581,-0.10839 c 0.40767,-0.0512 0.72063,-0.15158 0.94314,-0.32939 0.22262,-0.1777 0.33089,-0.45142 0.29473,-0.73825 l -0.096,-0.75969 c -0.032,-0.25257 -0.16331,-0.46943 -0.3728,-0.59604 -0.2096,-0.12672 -0.47777,-0.16992 -0.80022,-0.15776 z m -3.8403,0.41857 -0.34773,0.0309 c -0.40715,0.0352 -0.72384,0.11948 -0.95275,0.28885 -0.22892,0.1695 -0.3439,0.44183 -0.31906,0.73163 l 0.1111,1.3064 a 0.18865,0.18865 0 0 0 0,0.003 c 0.0101,0.10242 0.0629,0.21174 0.15553,0.27338 0.0917,0.0619 0.19787,0.0736 0.30357,0.0651 0.10355,-0.0101 0.20438,-0.0352 0.28587,-0.11121 0.0811,-0.0769 0.11701,-0.19808 0.10839,-0.30133 l -0.11109,-1.3182 c -0.005,-0.0501 -0.008,-0.0501 0.0564,-0.0896 0.064,-0.0395 0.20395,-0.0821 0.40897,-0.0991 l 0.36618,-0.0341 c 0.10242,-0.009 0.20256,-0.0352 0.28224,-0.112 0.08,-0.0769 0.11088,-0.19467 0.10243,-0.29472 a 0.18865,0.18865 0 0 0 0,-7.3e-4 0.18865,0.18865 0 0 0 0,-7.4e-4 0.18865,0.18865 0 0 0 0,-7.4e-4 0.18865,0.18865 0 0 0 0,-7.3e-4 c -0.0101,-0.0992 -0.0576,-0.20811 -0.1488,-0.2704 -0.0907,-0.0619 -0.19799,-0.0736 -0.3006,-0.0651 z m -4.2721,0.12736 c 0.28267,-0.0139 0.48011,0.0203 0.58581,0.0747 0.10558,0.0533 0.13697,0.0992 0.14293,0.21665 l 0.016,0.34774 c 0.007,0.11721 -0.0171,0.16564 -0.11787,0.22986 -0.10028,0.064 -0.29471,0.11882 -0.57983,0.13343 l -1.6689,0.0864 -0.0501,-1.0058 z m 8.1927,0.2033 7.2e-4,10e-4 c 0.10738,0.005 0.17333,0.0245 0.20117,0.0427 0.0277,0.0181 0.0299,0.0256 0.0341,0.0661 l 0.096,0.76628 c 0.007,0.0501 0.0102,0.0533 -0.0523,0.096 -0.0629,0.0427 -0.20373,0.0917 -0.40971,0.11787 l -0.89673,0.115 c -0.20353,0.0256 -0.35137,0.0117 -0.4222,-0.016 -0.0704,-0.0256 -0.0683,-0.0277 -0.0747,-0.0779 l -0.096,-0.76927 c -0.007,-0.0533 -0.0101,-0.0576 0.0523,-0.0992 0.0619,-0.0416 0.19893,-0.0896 0.403,-0.11499 l 0.90036,-0.11413 c 0.10355,-0.0128 0.19115,-0.0171 0.26304,-0.0128 z"
       fill="#ffffff"
       id="path1"
       style="display:inline;fill:#ffffff;fill-opacity:1;stroke:none"
       transform="matrix(0.47368418,0,0,0.47368418,69.473974,80.000126)" /><path
       id="path3"
       style="display:inline;fill:#ffffff;fill-opacity:1;stroke:none;-inkscape-font-specification:'Roboto, Normal';paint-order:stroke fill markers"
       d="m 51.661963,40.412004 v 12.537219 h 2.086177 v -4.216797 l 1.198894,-1.245919 4.166154,5.462716 h 2.529561 l -5.29115,-6.958749 4.972823,-5.57847 h -2.587956 l -4.988326,5.551082 v -5.551082 z m 84.750387,2.273763 c -0.86515,0 -1.64638,0.200589 -2.32648,0.605131 -0.68134,0.405276 -1.21448,0.995727 -1.58595,1.75028 -0.36616,0.749749 -0.54672,1.611386 -0.54673,2.574003 v 0.511597 c 0,1.499714 0.4067,2.721299 1.23248,3.61735 v 0.0021 h 0.002 c 0.82829,0.88662 1.92986,1.335836 3.24218,1.335836 0.35279,0 0.6598,-0.04024 0.95084,-0.09974 l 2.26188,1.711006 1.40611,-1.259871 -1.82624,-1.353406 c 0.47383,-0.388456 0.90206,-0.830154 1.17771,-1.425753 h 0.002 c 0.32662,-0.711551 0.48473,-1.540958 0.48473,-2.484086 v -0.521932 c 0,-1.493736 -0.39872,-2.710888 -1.21285,-3.607015 -0.80754,-0.901172 -1.91713,-1.355472 -3.26181,-1.355472 z m -54.148637,0.132291 -3.234428,5.17e-4 v 10.130648 h 3.086116 c 1.496905,0 2.723408,-0.430429 3.628719,-1.300696 0.9108,-0.86993 1.367359,-2.05578 1.367359,-3.496427 v -0.638204 -0.0021 C 87.094269,46.599946 86.882821,45.777205 86.474825,45.060299 86.06683,44.343391 85.487607,43.785021 84.754,43.400452 h -0.0021 c -0.728268,-0.389974 -1.561478,-0.582394 -2.48822,-0.582394 z m -20.134689,5.17e-4 v 10.130648 h 2.037085 V 42.818575 Z m 3.117123,0 v 1.7632 h 3.283003 v 8.367448 h 2.029334 v -8.367448 h 3.299023 v -1.7632 z m 23.308654,0 v 10.130648 h 7.146334 v -1.748214 h -5.117 v -2.599324 h 4.398181 v -1.758033 h -4.398181 v -2.261877 h 5.068424 v -1.7632 z m 12.443169,0 v 10.130648 h 2.02158 v -3.568258 l -0.10955,-3.037024 2.81843,6.605282 h 1.45521 l 2.82825,-6.636804 -0.10955,3.068546 v 3.568258 h 2.02158 V 42.818575 h -2.40812 l -3.05098,7.144267 -3.06855,-7.144267 z m 15.77526,0 -4.16563,10.130648 h 2.10529 l 0.91003,-2.306836 h 3.95893 l 0.91054,2.306836 h 2.09341 l -4.10363,-10.130648 z m 6.50813,0 v 10.130648 h 2.02934 v -3.710885 h 1.91203 l 2.158,3.710885 h 2.0314 V 52.54873 l -2.3027,-3.855578 c 1.16832,-0.54351 1.865,-1.442069 1.865,-2.68149 0,-0.993332 -0.35605,-1.809744 -1.05264,-2.368848 -0.69257,-0.560084 -1.6586,-0.824239 -2.86908,-0.824239 z m 18.90789,0 v 6.765479 0.0036 c 0.0174,1.058706 0.3983,1.936946 1.12913,2.566768 0.73143,0.62439 1.71689,0.927592 2.9161,0.927592 1.19551,0 2.18488,-0.316548 2.92592,-0.962732 h 0.002 c 0.74035,-0.651509 1.11725,-1.541463 1.11725,-2.601908 v -6.698816 h -2.02933 v 6.698816 c 0,0.628421 -0.175,1.057647 -0.5116,1.35754 -0.33427,0.296604 -0.82177,0.458887 -1.50379,0.458887 -0.69301,0 -1.1878,-0.164644 -1.52755,-0.466639 -0.3324,-0.305936 -0.50385,-0.733575 -0.50385,-1.349788 v -6.698816 z m 9.67383,0 v 10.130648 h 7.1484 v -1.748214 h -5.11906 v -2.599324 h 4.39869 v -1.758033 h -4.39869 v -2.261877 h 5.06842 v -1.7632 z m -15.45073,1.65623 c 0.8038,0 1.38106,0.255764 1.80815,0.777213 0.42523,0.519181 0.65474,1.290384 0.65474,2.345593 v 0.572059 c 0,1.060507 -0.22839,1.838974 -0.64854,2.36368 -0.42146,0.520641 -0.99297,0.775146 -1.79678,0.775146 -0.77863,0 -1.34842,-0.258997 -1.78336,-0.798918 -0.43367,-0.538362 -0.66197,-1.307923 -0.66197,-2.339908 v -0.7028 c 0.022,-0.979295 0.25795,-1.708795 0.68523,-2.220536 v -0.0021 c 0.42916,-0.518986 0.98529,-0.769462 1.74253,-0.769462 z m -55.353732,0.10697 h 1.205095 c 0.961818,0 1.641608,0.263445 2.105297,0.771529 h 0.0021 v 0.0021 c 0.470333,0.504989 0.71882,1.242712 0.71882,2.25981 v 0.529167 c 0,1.015363 -0.257096,1.758215 -0.749825,2.27583 -0.491793,0.516631 -1.197431,0.780831 -2.176095,0.780831 h -1.105359 z m 44.252082,0 h 1.73426 c 0.65816,0 1.12773,0.14454 1.43764,0.398942 0.31188,0.256021 0.46095,0.592409 0.46095,1.087789 0,0.450801 -0.14828,0.769036 -0.47491,1.029394 -0.32014,0.254231 -0.76865,0.390157 -1.37511,0.390157 h -1.78283 z m -7.69359,1.037146 1.28158,3.275769 h -2.58228 z"
       transform="translate(-0.3367215,9.587996)" /><text
       xml:space="preserve"
       style="display:inline;fill:#ffffff;fill-opacity:1;stroke:#ffffff;font-style:normal;font-variant:normal;font-weight:normal;font-stretch:normal;font-size:7.31661px;line-height:1.1;font-family:Roboto;-inkscape-font-specification:'Roboto, Normal';font-variant-ligatures:normal;font-variant-caps:small-caps;font-variant-numeric:normal;font-variant-east-asian:normal;text-align:center;letter-spacing:0px;word-spacing:0px;writing-mode:lr-tb;direction:ltr;text-anchor:middle;stroke-width:0;stroke-dasharray:none;stroke-opacity:1;paint-order:stroke fill markers"
       x="104.72491"
       y="35.273102"
       id="text6"><tspan
         sodipodi:role="line"
         id="tspan6"
         style="font-size:7.31661px;stroke-width:0"
         x="104.72491"
         y="35.273102">Head4che Production Company</tspan></text></g></svg>
