<svg width="210mm" height="297mm" version="1.1" viewBox="0 0 210 297" xmlns="http://www.w3.org/2000/svg">
 <path d="m169.17 85.333 2e-3 5.16e-4 -9.5632 0.08682c-2.5199 0.0238-4.564 2.1077-4.5413 4.6276l0.10025 10.898c-2.7777 0.52558-5.5289 1.2867-8.2331 2.2805l-5.533-9.3808c-0.83118-1.4109-2.3545-2.2719-3.992-2.2562-0.8052 8e-3 -1.5944 0.2256-2.2877 0.6351l-8.2362 4.8597c-2.1713 1.2816-2.8998 4.1054-1.618 6.2766l5.5232 9.3658c-2.1803 1.8885-4.1748 3.9362-5.979 6.1149l-9.4842-5.3578c-0.70036-0.39535-1.4907-0.60189-2.295-0.59428-1.6356 0.0155-3.1414 0.90574-3.9465 2.3296h-4e-3l-4.7036 8.3261c-1.2394 2.1945-0.45866 5.001 1.7353 6.2415l9.5353 5.3888c-0.92973 2.6883-1.6514 5.4447-2.1394 8.2496l-10.938 0.0997c-2.52 0.0238-4.5646 2.1045-4.5418 4.6245l0.08992 9.5632c9e-3 0.98689 0.34228 1.8942 0.88522 2.6396-16.532 8.8618-25.599 22.565-29.129 35.074-3.5037 12.263-1.5923 23.694 5.132 30.614 5.3087 5.5565 13.431 7.8031 23.004 6.4937 1.7674 3.8931 4.5943 7.2112 8.1576 9.5736 4.4947 3.1144 13.343 4.7077 18.651 4.7077 1.8606-6e-3 3.7162-0.1948 5.5392-0.56638 0.52767 1.1236 1.1189 2.2169 1.7699 3.2732 7.1667 11.502 18.262 10.228 27.658 7.5742l27.87 39.904 15.926-0.56637-6.1929-21.66c3.6744 1.022 8.0536 1.4398 12.614 1.3162v-15.515l-1.248 0.53846c-0.87459 0.43314-1.1827-0.54783-1.4289-1.1426-0.22411-0.63026-0.88663-1.4461-0.0336-1.9498 0.8829-0.38083 1.7661-0.76172 2.6489-1.1426-0.13757-0.81107-0.0836-1.6335 0.0615-2.4427v-1.8666l-1.8609-1.3844c-0.78214-0.62682 0.0194-1.3245 0.39274-1.8686 0.36732-0.46499 0.78244-1.2492 1.4681-0.94464v-39.233l-2.1404-0.84491c-5.875 11.078-6.2995 21.147-1.911 29.482-18.386-1.5042-28.136 1.468-41.567 5.5733-8.8655 2.7783-17.537 6.9544-22.156 0-3.2029-4.8663-5.1848-9.6973 0-15.253 14.422-15.448 30.331-3.7338 45.867-10.918l-1.9461-7.0781c-10.6 1.5926-21.979-0.47767-32.154 0.56637l0.65526-13.36-6.0523 0.2651-6.0518 16.298c-3.4425 1.8687-6.4001 4.5163-8.6356 7.7334-3.0486 3.8648-4.9771 8.4912-5.5743 13.377-11.52 2.2296-17.837-0.93777-19.766-7.0781l3.6804-12.068-4.0695-3.4329-12.387 9.6444c-4.6186 0.30087-9.5201-0.47838-12.723-3.7698-4.0347-4.1408-4.9903-11.856-2.5306-20.402 3.203-11.113 11.945-23.27 29.641-30.578-0.48005 2.3293-0.72947 4.7-0.74362 7.0781 7e-3 3.0037 0.47838 5.9884 1.3978 8.848l-5.627 14.723 5.7511 2.7957 5.7516-7.3262c2.9745 3.2006 6.8379 5.4376 11.094 6.4234l3.8762-7.5205c-6.6713-1.5572-11.626-11.538-11.626-17.855-0.14723-3.9122 0.77286-7.7901 2.6618-11.219 1.8892-3.4291 4.676-6.2794 8.0615-8.2455 7.8304-5.0212 18.861-7.1602 29.615-7.0817l2e-3 -2e-3c6.452 0.0475 12.805 0.89234 18.306 2.3921-3.4924 2.3917-6.576 5.3314-9.1312 8.7059-1.6094 2.1162-2.9635 4.4149-4.0344 6.8482-4.4947 5.5033-13.962 5.8934-19.926 1.434l-5.3092 3.6447c5.6272 9.6088 15.679 10.087 23.164 7.8398 1.1635 6.6229 4.5756 12.642 9.6614 17.04l5.8394-5.3092c-3.5569-5.9988-8.228-15.236-0.93741-25.004 2.8216-3.7952 14.512-14.299 31.974-9.5328v-41.071l-5.4116 3.1915c-1.8887-2.1803-3.9326-4.177-6.1113-5.9821l5.3537-9.4775v-0.0031c1.2386-2.1944 0.45934-5.0019-1.7343-6.242l-8.3261-4.7041c-0.70037-0.39535-1.4944-0.60189-2.2986-0.59428-1.6356 0.0155-3.1418 0.90574-3.947 2.3296l-5.3852 9.5281c-2.6892-0.93068-5.4447-1.6505-8.2496-2.1389l-0.10179-10.936c-0.0242-2.5199-2.1034-4.5604-4.6235-4.5377zm-7.3432 19.23v5.2e-4c0.12068 0.0166 0.23459 0.0524 0.339 0.11421 0.20884 0.12357 0.34268 0.35327 0.37672 0.59117l0.91313 6.3764c0.10575 0.74044-0.1438 1.4148-0.70539 1.8805-0.56153 0.46557-1.3972 0.75032-2.5027 0.90848l-2.5192 0.35966c-1.0994 0.15721-1.9808 0.12002-2.6515-0.16898-0.67066-0.28899-1.1027-0.86572-1.2087-1.6071l-0.30128-2.112c-0.10683-0.74685 0.14573-1.423 0.70849-1.8903 0.56272-0.46735 1.3956-0.75176 2.4949-0.90898l4.0928-0.58756-0.27957-1.9704c-0.0345-0.2417 0.0314-0.50168 0.19999-0.67696 0.16846-0.17527 0.40053-0.26371 0.66352-0.30127 0.13148-0.019 0.25909-0.0228 0.37982-7e-3zm6.7365 0.24908h5.2e-4c0.12126-0.01 0.24822 1e-3 0.37982 0.0253 0.26358 0.0475 0.49583 0.13814 0.65991 0.32091 0.16421 0.18276 0.21632 0.44753 0.17312 0.68781l-0.74673 4.1336 7.0611 1.2686 0.74362-4.13c0.0432-0.24016 0.18754-0.4712 0.40721-0.58446 0.21966-0.11288 0.46718-0.11747 0.73588-0.0687 0.26357 0.0475 0.49238 0.13625 0.6537 0.32091 0.1612 0.18467 0.20846 0.44824 0.16588 0.68472l-1.3823 7.6688c-0.0432 0.24015-0.18402 0.47049-0.40153 0.58446-0.2175 0.11408-0.46556 0.1168-0.72915 0.0692-0.26357-0.0475-0.49225-0.13516-0.65629-0.31781-0.16422-0.18276-0.21589-0.44755-0.1726-0.68782l0.34158-1.8981-8.1044-1.4619c-0.23731-0.0428-0.44466-0.11903-0.60152-0.27957-0.15679-0.16054-0.22239-0.40977-0.18293-0.6289l0.90537-5.0255c0.0431-0.24015 0.18714-0.46998 0.40463-0.58395 0.1087-0.0569 0.22405-0.087 0.34519-0.0977zm-7.4652 4.3548-4.1305 0.59118c-0.58504 0.0832-0.99243 0.22815-1.2092 0.38085-0.21684 0.15281-0.26657 0.26071-0.23564 0.47697l0.30799 2.1322c0.0297 0.20796 0.10401 0.30282 0.35605 0.39016 0.25204 0.0879 0.68417 0.11179 1.2681 0.0274l2.5957-0.37052c0.58398-0.0832 0.99225-0.22844 1.2098-0.38292 0.21749-0.15449 0.26487-0.26581 0.23513-0.47388zm-13.12 1.912c0.66496 0.0475 1.2174 0.42633 1.5622 1.0397l1.2097 2.1534c0.32977 0.58679 0.35957 1.2299 0.0615 1.7973-0.29802 0.56742-0.87554 1.0601-1.7074 1.5276l-3.4179 1.9218c-0.81405 0.4575-1.5162 0.69436-2.1389 0.66714-0.62278-0.0273-1.146-0.36438-1.4619-0.92656l-0.35295-0.6289c-0.31336-0.55755-0.32862-1.1801-0.0274-1.7244 0.30123-0.54425 0.86853-1.0184 1.6826-1.4759l4.331-2.4329c-0.0701-0.0689-0.12317-0.15558-0.26252-0.15606-0.20648-7.9e-4 -0.53982 0.0998-0.96479 0.339l-1.5477 0.87075c-0.21743 0.12214-0.44174 0.19374-0.67386 0.15916-0.23214-0.0345-0.43226-0.19817-0.54622-0.40101-0.11396-0.20272-0.14992-0.45509-0.0625-0.67386 0.0875-0.21876 0.26348-0.37692 0.48369-0.50074l1.5487-0.87127c0.86547-0.48637 1.6197-0.73126 2.2846-0.6842zm35.564 0.8537c0.73149-0.0285 1.5682 0.25144 2.5471 0.8015l3.8054 2.1394c0.22457 0.12619 0.40576 0.28325 0.49764 0.50487 0.0919 0.22173 0.0593 0.48505-0.0584 0.69454-0.11762 0.20949-0.32613 0.3745-0.56328 0.41134-0.23717 0.0368-0.46739-0.037-0.69194-0.16278l-3.8463-2.1596c-0.51524-0.28959-0.92765-0.42558-1.1927-0.43615-0.26505-0.0106-0.36993 0.0443-0.47698 0.23513l-1.0537 1.8805c-0.10305 0.18324-0.10185 0.30235 0.045 0.52504 0.14687 0.22268 0.47738 0.50579 0.99167 0.79478l3.8473 2.1637c0.22188 0.12466 0.40168 0.27492 0.49713 0.49403 0.0952 0.21912 0.0659 0.48606-0.0517 0.69556-0.11762 0.20949-0.3256 0.37451-0.56275 0.41135-0.23718 0.0368-0.4674-0.037-0.69195-0.16278l-3.8049-2.1358c-0.97881-0.55007-1.655-1.1217-2.0118-1.7596-0.35669-0.63789-0.34628-1.356 0.0202-2.0082l1.0444-1.8557c0.36912-0.65689 0.97903-1.0426 1.7105-1.0712zm-35.022 2.3358-4.3103 2.42c-0.404 0.22709-0.65254 0.44685-0.75706 0.60823-0.10458 0.16137-0.10439 0.22506-0.031 0.35554l0.32143 0.5705c0.0777 0.13819 0.13322 0.17338 0.32504 0.16899 0.19183-5e-3 0.51171-0.10083 0.91571-0.32815l3.2628-1.8345c0.41446-0.23292 0.66905-0.46084 0.77411-0.62994 0.10516-0.1691 0.10622-0.24919 0.0176-0.40772zm47.917 2.3849c0.23934 0.0404 0.44117 0.18575 0.61805 0.38396 0.17696 0.19821 0.29855 0.41452 0.31109 0.6568 0.0127 0.24229-0.1075 0.4793-0.2868 0.63924l-1.4862 1.3234 2.7549 3.0861c0.7435 0.83312 1.1958 1.59 1.324 2.3094 0.12809 0.7194-0.11932 1.3959-0.68162 1.8976l-2.7264 2.4365c-0.18211 0.16244-0.4341 0.25624-0.67438 0.21394-0.24027-0.0428-0.43645-0.19111-0.61133-0.38705-0.17831-0.19976-0.30533-0.41178-0.32195-0.65681-0.0159-0.24503 0.10887-0.48713 0.29094-0.64957l2.744-2.45c0.15998-0.14272 0.19441-0.25468 0.13436-0.49816-0.0602-0.24349-0.26354-0.59596-0.63511-1.0123l-2.8376-3.1796-3.2179 2.8716c-0.18211 0.16243-0.43359 0.25677-0.67386 0.21446-0.24028-0.0428-0.43749-0.19161-0.61237-0.38757-0.17484-0.19594-0.29931-0.40558-0.31419-0.64906-0.0142-0.24348 0.10836-0.48454 0.29042-0.64699l5.9449-5.3051c0.17926-0.15995 0.42784-0.25089 0.66714-0.21084zm-59.526 1.9012c0.4375-0.0178 0.85986 0.13753 1.2082 0.44958l1.0552 0.94c0.16474 0.14771 0.27449 0.37434 0.25839 0.59738-0.0159 0.22304-0.12899 0.41239-0.28319 0.58446l-4.5796 5.1082 0.339 0.30438c0.14405 0.12905 0.23958 0.14851 0.46612 0.062 0.22655-0.0868 0.55394-0.3297 0.92708-0.74621l1.2433-1.3901c0.16651-0.18573 0.35358-0.32691 0.58446-0.36897 0.2309-0.0416 0.47272 0.0487 0.64596 0.20361 0.17324 0.15519 0.29 0.38808 0.27337 0.62218-0.0159 0.2341-0.13377 0.43284-0.30024 0.61857l-1.248 1.3891c-0.70275 0.78428-1.3626 1.2934-2.0257 1.496-0.663 0.20261-1.3328 0.05-1.8624-0.42427l-1.8386-1.649c-0.50213-0.44989-0.73728-1.054-0.63976-1.6898 0.0976-0.63586 0.48351-1.2906 1.1167-1.9973l2.4298-2.7135c0.61863-0.6904 1.2022-1.1396 1.7901-1.3203 0.14705-0.0452 0.29393-0.07 0.43977-0.076zm-0.10749 1.9518c-0.0639-0.0154-0.13118-7e-3 -0.22169 0.0212-0.18103 0.0558-0.44909 0.24139-0.75655 0.58446l-2.3125 2.5818c-0.31639 0.35305-0.47921 0.64759-0.51883 0.83974-0.0397 0.19215-7e-3 0.27719 0.14211 0.41135l0.31781 0.28732 3.8711-4.3202-0.32194-0.28319c-0.0757-0.0677-0.13555-0.10714-0.19947-0.12247zm27.113 0.52038h1e-3c11.066-0.41885 21.932 5.1125 28.006 15.409 1.4524 2.4627 2.4979 5.0437 3.2236 7.6714-0.82855 0.10694-1.6572 0.21906-2.4815 0.37259-10.803-5.3352-23.323-7.7591-35.334-7.445-7.5158 0.19655-14.832 1.4663-21.404 3.7652 2.4676-6.2191 6.9369-11.704 13.208-15.403 4.6804-2.7604 9.751-4.1801 14.781-4.3708zm-38.232 6.6807c0.12263 2e-3 0.24592 0.0323 0.35553 0.0858l7.0094 3.4354c0.22255 0.10932 0.40157 0.31458 0.44855 0.55604 0.0471 0.24147-0.0174 0.48191-0.13436 0.72243-0.11551 0.23587-0.26784 0.43089-0.48783 0.53641-0.21995 0.10575-0.4857 0.0829-0.70486-0.0253l-2.7063-1.327-3.0964 6.318 2.7099 1.327c0.21917 0.10695 0.40027 0.30807 0.44907 0.55036s-0.0143 0.48039-0.13488 0.72554c-0.1155 0.23588-0.26785 0.42933-0.48782 0.53485-0.21998 0.10576-0.48571 0.0832-0.70487-0.0238l-6.9985-3.4282c-0.22253-0.10932-0.40333-0.3168-0.44906-0.56017-0.0456-0.24336 0.0209-0.48349 0.14107-0.72864 0.1155-0.23588 0.26671-0.43047 0.48783-0.53278 0.22111-0.10219 0.48185-0.0711 0.69763 0.0346l2.7967 1.3689 3.0959-6.318-2.8096-1.3756c-0.21574-0.10575-0.39355-0.3029-0.44236-0.5395-0.0488-0.23671 0.0123-0.47261 0.12816-0.70848 0.11789-0.24051 0.26712-0.43723 0.48369-0.54881 0.10825-0.0559 0.2308-0.081 0.35347-0.0786zm76.473 2.2231c0.30646 0.0154 0.60461 0.10945 0.87591 0.28163 0.54247 0.34557 0.98737 0.96088 1.3787 1.8252l1.5028 3.3212c0.38239 0.84442 0.5595 1.5565 0.48783 2.1673-0.0713 0.6109-0.43751 1.1044-1.0056 1.3617l-1.2898 0.58033c-0.20164 0.0915-0.44832 0.10091-0.64595-3e-3 -0.19761-0.10458-0.32639-0.28346-0.42168-0.49403l-2.8267-6.2492-0.41547 0.19069c-0.17624 0.0796-0.23257 0.15818-0.24443 0.40049-0.0128 0.24229 0.0762 0.63841 0.30695 1.1477l0.7705 1.6965c0.10216 0.22721 0.15916 0.45643 0.1049 0.68471-0.0547 0.22827-0.23809 0.41518-0.4501 0.51108-0.21187 0.0962-0.46938 0.10932-0.67696 0-0.20757-0.10932-0.34309-0.30144-0.44597-0.52865l-0.77101-1.7007c-0.4344-0.9592-0.63534-1.7683-0.55345-2.4567 0.0819-0.68837 0.49319-1.2378 1.141-1.5312l2.25-1.0201v5.2e-4c0.30706-0.13904 0.62216-0.20081 0.92863-0.18501zm0.0377 1.943c-0.0654-7e-3 -0.13485 0.0116-0.22634 0.0532l-0.39067 0.1757 2.3916 5.285 0.39016-0.1757c0.18514-0.0844 0.24112-0.16139 0.26251-0.34985 0.0214-0.18835-0.0416-0.50633-0.23151-0.92604l-1.4309-3.1585c-0.1956-0.43195-0.39619-0.69553-0.55603-0.80925-0.0798-0.057-0.14271-0.0881-0.20878-0.0941zm1.0144 33.86-6.5293 0.60151c-0.64165 3.2863-0.39667 6.6845 0.71055 9.8444 1.1072 3.16 3.0358 5.9674 5.5883 8.1344-2.9648 3.2737-5.1754 7.1584-6.4766 11.379l6.6182 3.1672c1.574-2.8357 3.9889-5.4147 6.8828-7.6114v-15.441c-1.3647-0.7474-2.6106-1.7047-3.6422-2.8923-1.7538-2.0193-2.8529-4.5235-3.1518-7.1815zm1.2935 76.117h5.2e-4c0.04 1e-3 0.0796 8e-3 0.11782 0.0202l1.1514 0.35812c0.2412 0.0745 0.37494 0.33246 0.29869 0.57619l-0.5457 1.7374c0.31407 0.19524 0.60658 0.43521 0.86765 0.72089 0.26118 0.28577 0.47439 0.59996 0.64182 0.93173l1.7627-0.40722c0.039-9e-3 0.079-0.0128 0.11886-0.0114 0.20709 8e-3 0.38197 0.1545 0.42633 0.35811l0.25941 1.186c0.0546 0.24862-0.10195 0.49657-0.34933 0.55345l-1.7673 0.40773c-0.0285 0.75435-0.25358 1.503-0.67128 2.1575l1.2154 1.3296c0.1702 0.18651 0.15701 0.4781-0.0295 0.65163l-0.89245 0.82993c-0.18686 0.17353-0.47654 0.16289-0.64699-0.0238l-1.2165-1.3307c-0.68078 0.366-1.4382 0.5314-2.1859 0.49919l-0.54726 1.7436c-0.0766 0.2433-0.33377 0.37996-0.57464 0.3054l-1.1524-0.35708c-0.24078-0.0749-0.37399-0.33277-0.29766-0.57619l0.54622-1.7389c-0.31432-0.19525-0.6075-0.43408-0.86868-0.71986-0.2612-0.28579-0.4744-0.59954-0.64182-0.93121l-1.7622 0.4067c-0.24684 0.0568-0.4908-0.0981-0.54518-0.34623l-0.25942-1.187c-0.0539-0.24812 0.10214-0.49529 0.34882-0.55242l1.7673-0.40773c0.029-0.75433 0.25476-1.502 0.67231-2.1565l-1.217-1.3317c-0.17089-0.18664-0.15769-0.47903 0.0295-0.65267l0.89245-0.82889c0.0899-0.0834 0.20871-0.12765 0.33021-0.12299 0.12129 4e-3 0.23542 0.0572 0.31729 0.14676l1.2149 1.3296c0.68116-0.3666 1.4389-0.53099 2.1869-0.49867l0.54726-1.743c0.0627-0.19959 0.25031-0.3331 0.45733-0.32556zm-21.745 2.3285v5.1e-4c0.42511 0.0321 0.79427 0.30484 0.94981 0.70177l1.1984 3.0598c1.0472-0.14735 2.1237-0.13273 3.1915 0.0558l1.3131-3.005c0.17091-0.39041 0.55027-0.64847 0.97617-0.66404 0.16656-6e-3 0.33241 0.0249 0.48524 0.0915l2.3518 1.0278c0.56176 0.24564 0.81791 0.90025 0.57206 1.4619l-1.3136 3.0055c0.86331 0.6557 1.6052 1.4356 2.2081 2.3043l3.0598-1.1984c0.15524-0.0606 0.32215-0.0855 0.48834-0.0729 0.42511 0.0321 0.79426 0.30483 0.94981 0.70176l0.93586 2.3895c0.2235 0.5708-0.0581 1.2147-0.6289 1.4382l-3.0592 1.1984c0.14758 1.0472 0.13261 2.1237-0.0558 3.1915l3.0045 1.3136c0.56158 0.24525 0.81813 0.89923 0.57309 1.4609l-1.0278 2.3518c-0.24545 0.56196-0.90012 0.81837-1.4619 0.57258l-3.005-1.3141c-0.65572 0.86329-1.4354 1.6053-2.3042 2.2081l1.1984 3.0598c0.2235 0.5708-0.0581 1.2147-0.6289 1.4382l-2.3895 0.93586c-0.5708 0.2235-1.2147-0.0581-1.4382-0.6289l-1.1989-3.0603c-1.047 0.14735-2.1237 0.13249-3.191-0.0558l-1.3131 3.0055c-0.24525 0.56187-0.8996 0.81847-1.4614 0.57309l-2.3513-1.0289c-0.56158-0.24525-0.81812-0.89922-0.57309-1.4609l1.3141-3.005c-0.86331-0.6557-1.6052-1.4355-2.2081-2.3042l-3.0603 1.1984c-0.57081 0.2235-1.2147-0.0581-1.4382-0.62891l-0.93534-2.39c-0.22287-0.57036 0.0583-1.2135 0.62838-1.4371l3.0603-1.1989c-0.14756-1.0476-0.1338-2.1239 0.0548-3.192l-3.005-1.3131c-0.56147-0.24565-0.81756-0.89988-0.57205-1.4614l1.0284-2.3518c0.17091-0.39041 0.55027-0.64847 0.97616-0.66404 0.16657-6e-3 0.33242 0.0249 0.48525 0.0915l3.005 1.3146c0.65583-0.86355 1.4353-1.6063 2.3042-2.2092l-1.1984-3.0587c-0.2239-0.5708 0.0575-1.215 0.62838-1.4387l2.3895-0.93638c0.15536-0.0609 0.32246-0.086 0.48886-0.0734zm20.616 1.8634c-0.53283-0.019-1.0749 0.16958-1.5064 0.57051-0.86295 0.80197-0.92207 2.1187-0.13435 2.9807 0.78784 0.86201 2.0935 0.90923 2.9564 0.10801 0.86295-0.80199 0.9226-2.1182 0.13488-2.9802-0.39392-0.43099-0.91769-0.65862-1.4506-0.678zm-17.003 5.8875c-2.3916-0.0357-4.6639 1.3398-5.6891 3.685-1.3669 3.1271 0.037 6.7131 3.1642 8.0801 3.1271 1.3669 6.7122-0.0371 8.0791-3.1647 1.3669-3.1271-0.0377-6.7117-3.1647-8.0786-0.78179-0.34176-1.5923-0.51017-2.3895-0.52193z" fill="#900" fill-opacity=".15" stroke-linecap="round" stroke-linejoin="round" stroke-width="2.3791"/>
</svg>
